solid OpenSCAD_Model
  facet normal 0.951056 0.309017 0
    outer loop
      vertex 100 0 50
      vertex 80.9017 58.7785 -50
      vertex 80.9017 58.7785 50
    endloop
  endfacet
  facet normal 0.951056 0.309017 0
    outer loop
      vertex 80.9017 58.7785 -50
      vertex 100 0 50
      vertex 100 0 -50
    endloop
  endfacet
  facet normal 0.587786 0.809016 -0
    outer loop
      vertex 80.9017 58.7785 -50
      vertex 30.9017 95.1057 50
      vertex 80.9017 58.7785 50
    endloop
  endfacet
  facet normal 0.587786 0.809016 0
    outer loop
      vertex 30.9017 95.1057 50
      vertex 80.9017 58.7785 -50
      vertex 30.9017 95.1057 -50
    endloop
  endfacet
  facet normal 0 1 -0
    outer loop
      vertex 30.9017 95.1057 -50
      vertex -30.9017 95.1057 50
      vertex 30.9017 95.1057 50
    endloop
  endfacet
  facet normal 0 1 0
    outer loop
      vertex -30.9017 95.1057 50
      vertex 30.9017 95.1057 -50
      vertex -30.9017 95.1057 -50
    endloop
  endfacet
  facet normal -0.587786 0.809016 0
    outer loop
      vertex -30.9017 95.1057 -50
      vertex -80.9017 58.7785 50
      vertex -30.9017 95.1057 50
    endloop
  endfacet
  facet normal -0.587786 0.809016 0
    outer loop
      vertex -80.9017 58.7785 50
      vertex -30.9017 95.1057 -50
      vertex -80.9017 58.7785 -50
    endloop
  endfacet
  facet normal -0.951056 0.309017 0
    outer loop
      vertex -100 -0 -50
      vertex -80.9017 58.7785 50
      vertex -80.9017 58.7785 -50
    endloop
  endfacet
  facet normal -0.951056 0.309017 0
    outer loop
      vertex -80.9017 58.7785 50
      vertex -100 -0 -50
      vertex -100 -0 50
    endloop
  endfacet
  facet normal -0.951056 -0.309017 0
    outer loop
      vertex -80.9017 -58.7785 -50
      vertex -100 -0 50
      vertex -100 -0 -50
    endloop
  endfacet
  facet normal -0.951056 -0.309017 0
    outer loop
      vertex -100 -0 50
      vertex -80.9017 -58.7785 -50
      vertex -80.9017 -58.7785 50
    endloop
  endfacet
  facet normal -0.587786 -0.809016 0
    outer loop
      vertex -80.9017 -58.7785 -50
      vertex -30.9017 -95.1057 50
      vertex -80.9017 -58.7785 50
    endloop
  endfacet
  facet normal -0.587786 -0.809016 -0
    outer loop
      vertex -30.9017 -95.1057 50
      vertex -80.9017 -58.7785 -50
      vertex -30.9017 -95.1057 -50
    endloop
  endfacet
  facet normal 0 -1 0
    outer loop
      vertex -30.9017 -95.1057 -50
      vertex 30.9017 -95.1057 50
      vertex -30.9017 -95.1057 50
    endloop
  endfacet
  facet normal 0 -1 -0
    outer loop
      vertex 30.9017 -95.1057 50
      vertex -30.9017 -95.1057 -50
      vertex 30.9017 -95.1057 -50
    endloop
  endfacet
  facet normal 0.587786 -0.809016 0
    outer loop
      vertex 30.9017 -95.1057 -50
      vertex 80.9017 -58.7785 50
      vertex 30.9017 -95.1057 50
    endloop
  endfacet
  facet normal 0.587786 -0.809016 0
    outer loop
      vertex 80.9017 -58.7785 50
      vertex 30.9017 -95.1057 -50
      vertex 80.9017 -58.7785 -50
    endloop
  endfacet
  facet normal 0.951056 -0.309017 0
    outer loop
      vertex 80.9017 -58.7785 50
      vertex 100 0 -50
      vertex 100 0 50
    endloop
  endfacet
  facet normal 0.951056 -0.309017 0
    outer loop
      vertex 100 0 -50
      vertex 80.9017 -58.7785 50
      vertex 80.9017 -58.7785 -50
    endloop
  endfacet
  facet normal 0 0 -1
    outer loop
      vertex 80.9017 -58.7785 -50
      vertex 80.9017 58.7785 -50
      vertex 100 0 -50
    endloop
  endfacet
  facet normal 0 0 -1
    outer loop
      vertex 30.9017 -95.1057 -50
      vertex 80.9017 58.7785 -50
      vertex 80.9017 -58.7785 -50
    endloop
  endfacet
  facet normal 0 0 -1
    outer loop
      vertex 30.9017 -95.1057 -50
      vertex 30.9017 95.1057 -50
      vertex 80.9017 58.7785 -50
    endloop
  endfacet
  facet normal 0 0 -1
    outer loop
      vertex -30.9017 -95.1057 -50
      vertex 30.9017 95.1057 -50
      vertex 30.9017 -95.1057 -50
    endloop
  endfacet
  facet normal 0 0 -1
    outer loop
      vertex -30.9017 -95.1057 -50
      vertex -30.9017 95.1057 -50
      vertex 30.9017 95.1057 -50
    endloop
  endfacet
  facet normal 0 0 -1
    outer loop
      vertex -80.9017 -58.7785 -50
      vertex -30.9017 95.1057 -50
      vertex -30.9017 -95.1057 -50
    endloop
  endfacet
  facet normal 0 0 -1
    outer loop
      vertex -80.9017 -58.7785 -50
      vertex -80.9017 58.7785 -50
      vertex -30.9017 95.1057 -50
    endloop
  endfacet
  facet normal 0 -0 -1
    outer loop
      vertex -80.9017 58.7785 -50
      vertex -80.9017 -58.7785 -50
      vertex -100 -0 -50
    endloop
  endfacet
  facet normal 0 0 1
    outer loop
      vertex 80.9017 58.7785 50
      vertex 80.9017 -58.7785 50
      vertex 100 0 50
    endloop
  endfacet
  facet normal 0 0 1
    outer loop
      vertex 30.9017 95.1057 50
      vertex 80.9017 -58.7785 50
      vertex 80.9017 58.7785 50
    endloop
  endfacet
  facet normal 0 0 1
    outer loop
      vertex 30.9017 95.1057 50
      vertex 30.9017 -95.1057 50
      vertex 80.9017 -58.7785 50
    endloop
  endfacet
  facet normal -0 0 1
    outer loop
      vertex -30.9017 95.1057 50
      vertex 30.9017 -95.1057 50
      vertex 30.9017 95.1057 50
    endloop
  endfacet
  facet normal 0 0 1
    outer loop
      vertex -30.9017 95.1057 50
      vertex -30.9017 -95.1057 50
      vertex 30.9017 -95.1057 50
    endloop
  endfacet
  facet normal -0 0 1
    outer loop
      vertex -80.9017 58.7785 50
      vertex -30.9017 -95.1057 50
      vertex -30.9017 95.1057 50
    endloop
  endfacet
  facet normal 0 0 1
    outer loop
      vertex -80.9017 58.7785 50
      vertex -80.9017 -58.7785 50
      vertex -30.9017 -95.1057 50
    endloop
  endfacet
  facet normal 0 -0 1
    outer loop
      vertex -80.9017 -58.7785 50
      vertex -80.9017 58.7785 50
      vertex -100 -0 50
    endloop
  endfacet
endsolid OpenSCAD_Model
