solid ASCII
  facet normal -1.899374e-16 9.781476e-01 -2.079117e-01
    outer loop
      vertex   4.116581e+01 1.530127e+01 -5.000000e+01
      vertex   -4.116581e+01 1.530127e+01 -5.000000e+01
      vertex   2.500000e+01 4.330127e+01 8.172964e+01
    endloop
  endfacet
  facet normal -1.390031e-16 9.781476e-01 -2.079117e-01
    outer loop
      vertex   2.500000e+01 4.330127e+01 8.172964e+01
      vertex   -4.116581e+01 1.530127e+01 -5.000000e+01
      vertex   -2.500000e+01 4.330127e+01 8.172964e+01
    endloop
  endfacet
  facet normal 0.000000e+00 -0.000000e+00 -1.000000e+00
    outer loop
      vertex   -4.116581e+01 1.530127e+01 -5.000000e+01
      vertex   4.116581e+01 1.530127e+01 -5.000000e+01
      vertex   -4.133975e+01 1.500000e+01 -5.000000e+01
    endloop
  endfacet
  facet normal 0.000000e+00 0.000000e+00 -1.000000e+00
    outer loop
      vertex   -4.133975e+01 1.500000e+01 -5.000000e+01
      vertex   4.116581e+01 1.530127e+01 -5.000000e+01
      vertex   4.133975e+01 1.500000e+01 -5.000000e+01
    endloop
  endfacet
  facet normal 8.660254e-01 5.000000e-01 4.036682e-15
    outer loop
      vertex   4.133975e+01 1.500000e+01 -5.000000e+01
      vertex   4.116581e+01 1.530127e+01 -5.000000e+01
      vertex   5.000000e+01 0.000000e+00 3.506923e+01
    endloop
  endfacet
  facet normal 8.660254e-01 5.000000e-01 -2.238866e-17
    outer loop
      vertex   5.000000e+01 0.000000e+00 3.506923e+01
      vertex   4.116581e+01 1.530127e+01 -5.000000e+01
      vertex   2.500000e+01 4.330127e+01 8.172964e+01
    endloop
  endfacet
  facet normal 8.660254e-01 5.000000e-01 -0.000000e+00
    outer loop
      vertex   5.000000e+01 0.000000e+00 3.506923e+01
      vertex   2.500000e+01 4.330127e+01 8.172964e+01
      vertex   5.000000e+01 0.000000e+00 8.185847e+01
    endloop
  endfacet
  facet normal 8.660254e-01 5.000000e-01 0.000000e+00
    outer loop
      vertex   5.000000e+01 0.000000e+00 8.185847e+01
      vertex   2.500000e+01 4.330127e+01 8.172964e+01
      vertex   2.500000e+01 4.330127e+01 8.185847e+01
    endloop
  endfacet
  facet normal 0.000000e+00 -9.848078e-01 -1.736482e-01
    outer loop
      vertex   -4.133975e+01 1.500000e+01 -5.000000e+01
      vertex   4.133975e+01 1.500000e+01 -5.000000e+01
      vertex   -5.000000e+01 0.000000e+00 3.506923e+01
    endloop
  endfacet
  facet normal 0.000000e+00 -9.848078e-01 -1.736482e-01
    outer loop
      vertex   -5.000000e+01 0.000000e+00 3.506923e+01
      vertex   4.133975e+01 1.500000e+01 -5.000000e+01
      vertex   5.000000e+01 0.000000e+00 3.506923e+01
    endloop
  endfacet
  facet normal -8.137977e-01 4.698463e-01 3.420201e-01
    outer loop
      vertex   -3.478768e-01 0.000000e+00 2.000000e+02
      vertex   8.604228e-15 6.025404e-01 2.000000e+02
      vertex   -5.000000e+01 0.000000e+00 8.185847e+01
    endloop
  endfacet
  facet normal -8.137977e-01 4.698463e-01 3.420201e-01
    outer loop
      vertex   -5.000000e+01 0.000000e+00 8.185847e+01
      vertex   8.604228e-15 6.025404e-01 2.000000e+02
      vertex   4.440892e-15 4.330127e+01 1.413431e+02
    endloop
  endfacet
  facet normal -8.137977e-01 4.698463e-01 3.420201e-01
    outer loop
      vertex   -5.000000e+01 0.000000e+00 8.185847e+01
      vertex   4.440892e-15 4.330127e+01 1.413431e+02
      vertex   -2.500000e+01 4.330127e+01 8.185847e+01
    endloop
  endfacet
  facet normal -8.660254e-01 5.000000e-01 -5.037449e-17
    outer loop
      vertex   -4.116581e+01 1.530127e+01 -5.000000e+01
      vertex   -5.000000e+01 0.000000e+00 3.506923e+01
      vertex   -2.500000e+01 4.330127e+01 8.172964e+01
    endloop
  endfacet
  facet normal -8.660254e-01 5.000000e-01 0.000000e+00
    outer loop
      vertex   -2.500000e+01 4.330127e+01 8.172964e+01
      vertex   -5.000000e+01 0.000000e+00 3.506923e+01
      vertex   -5.000000e+01 0.000000e+00 8.185847e+01
    endloop
  endfacet
  facet normal -8.660254e-01 5.000000e-01 0.000000e+00
    outer loop
      vertex   -2.500000e+01 4.330127e+01 8.172964e+01
      vertex   -5.000000e+01 0.000000e+00 8.185847e+01
      vertex   -2.500000e+01 4.330127e+01 8.185847e+01
    endloop
  endfacet
  facet normal -8.660254e-01 5.000000e-01 -2.295956e-15
    outer loop
      vertex   -4.116581e+01 1.530127e+01 -5.000000e+01
      vertex   -4.133975e+01 1.500000e+01 -5.000000e+01
      vertex   -5.000000e+01 0.000000e+00 3.506923e+01
    endloop
  endfacet
  facet normal -1.421085e-16 1.000000e+00 0.000000e+00
    outer loop
      vertex   2.500000e+01 4.330127e+01 8.172964e+01
      vertex   -2.500000e+01 4.330127e+01 8.172964e+01
      vertex   2.500000e+01 4.330127e+01 8.185847e+01
    endloop
  endfacet
  facet normal -1.421085e-16 1.000000e+00 0.000000e+00
    outer loop
      vertex   2.500000e+01 4.330127e+01 8.185847e+01
      vertex   -2.500000e+01 4.330127e+01 8.172964e+01
      vertex   -2.500000e+01 4.330127e+01 8.185847e+01
    endloop
  endfacet
  facet normal -1.421085e-16 1.000000e+00 5.972490e-17
    outer loop
      vertex   2.500000e+01 4.330127e+01 8.185847e+01
      vertex   -2.500000e+01 4.330127e+01 8.185847e+01
      vertex   4.440892e-15 4.330127e+01 1.413431e+02
    endloop
  endfacet
  facet normal 8.137977e-01 4.698463e-01 3.420201e-01
    outer loop
      vertex   2.500000e+01 4.330127e+01 8.185847e+01
      vertex   4.440892e-15 4.330127e+01 1.413431e+02
      vertex   5.000000e+01 0.000000e+00 8.185847e+01
    endloop
  endfacet
  facet normal 8.137977e-01 4.698463e-01 3.420201e-01
    outer loop
      vertex   5.000000e+01 0.000000e+00 8.185847e+01
      vertex   4.440892e-15 4.330127e+01 1.413431e+02
      vertex   8.604228e-15 6.025404e-01 2.000000e+02
    endloop
  endfacet
  facet normal 8.137977e-01 4.698463e-01 3.420201e-01
    outer loop
      vertex   5.000000e+01 0.000000e+00 8.185847e+01
      vertex   8.604228e-15 6.025404e-01 2.000000e+02
      vertex   3.478768e-01 0.000000e+00 2.000000e+02
    endloop
  endfacet
  facet normal 0.000000e+00 0.000000e+00 1.000000e+00
    outer loop
      vertex   8.604228e-15 6.025404e-01 2.000000e+02
      vertex   -3.478768e-01 0.000000e+00 2.000000e+02
      vertex   3.478768e-01 0.000000e+00 2.000000e+02
    endloop
  endfacet
  facet normal 0.000000e+00 -1.000000e+00 0.000000e+00
    outer loop
      vertex   -5.000000e+01 0.000000e+00 3.506923e+01
      vertex   5.000000e+01 0.000000e+00 3.506923e+01
      vertex   -5.000000e+01 0.000000e+00 8.185847e+01
    endloop
  endfacet
  facet normal 0.000000e+00 -1.000000e+00 0.000000e+00
    outer loop
      vertex   -5.000000e+01 0.000000e+00 8.185847e+01
      vertex   5.000000e+01 0.000000e+00 3.506923e+01
      vertex   5.000000e+01 0.000000e+00 8.185847e+01
    endloop
  endfacet
  facet normal 0.000000e+00 -1.000000e+00 0.000000e+00
    outer loop
      vertex   -5.000000e+01 0.000000e+00 8.185847e+01
      vertex   5.000000e+01 0.000000e+00 8.185847e+01
      vertex   -3.478768e-01 0.000000e+00 2.000000e+02
    endloop
  endfacet
  facet normal 0.000000e+00 -1.000000e+00 0.000000e+00
    outer loop
      vertex   -3.478768e-01 0.000000e+00 2.000000e+02
      vertex   5.000000e+01 0.000000e+00 8.185847e+01
      vertex   3.478768e-01 0.000000e+00 2.000000e+02
    endloop
  endfacet
endsolid
