<?xml version="1.0" encoding="utf-8" standalone="no"?>
<!DOCTYPE svg PUBLIC "-//W3C//DTD SVG 1.1//EN"
  "http://www.w3.org/Graphics/SVG/1.1/DTD/svg11.dtd">
<svg xmlns:xlink="http://www.w3.org/1999/xlink" width="507.72827pt" height="526.79952pt" viewBox="0 0 507.72827 526.79952" xmlns="http://www.w3.org/2000/svg" version="1.1">
 <metadata>
  <rdf:RDF xmlns:dc="http://purl.org/dc/elements/1.1/" xmlns:cc="http://creativecommons.org/ns#" xmlns:rdf="http://www.w3.org/1999/02/22-rdf-syntax-ns#">
   <cc:Work>
    <dc:type rdf:resource="http://purl.org/dc/dcmitype/StillImage"/>
    <dc:date>2026-01-19T15:43:27.105775</dc:date>
    <dc:format>image/svg+xml</dc:format>
    <dc:creator>
     <cc:Agent>
      <dc:title>Matplotlib v3.10.8, https://matplotlib.org/</dc:title>
     </cc:Agent>
    </dc:creator>
   </cc:Work>
  </rdf:RDF>
 </metadata>
 <defs>
  <style type="text/css">*{stroke-linejoin: round; stroke-linecap: butt}</style>
 </defs>
 <g id="figure_1">
  <g id="patch_1">
   <path d="M 0 526.79952 
L 507.72827 526.79952 
L 507.72827 0 
L 0 0 
z
" style="fill: #ffffff"/>
  </g>
  <g id="axes_1">
   <g id="patch_2">
    <path d="M 480.84702 276.958822 
C 480.84702 247.569461 475.057957 218.465874 463.811135 191.313645 
C 452.564313 164.161415 436.078456 139.488586 415.297039 118.707169 
C 394.515622 97.925752 369.842792 81.439894 342.690563 70.193073 
C 315.538333 58.946251 286.434746 53.157187 257.045385 53.157187 
C 227.656024 53.157187 198.552437 58.946251 171.400207 70.193073 
C 144.247978 81.439894 119.575148 97.925752 98.793731 118.707169 
C 78.012314 139.488586 61.526457 164.161415 50.279635 191.313645 
C 39.032813 218.465874 33.24375 247.569461 33.24375 276.958822 
C 33.24375 306.348184 39.032813 335.451771 50.279635 362.604 
C 61.526457 389.75623 78.012314 414.429059 98.793731 435.210476 
C 119.575148 455.991893 144.247978 472.477751 171.400207 483.724572 
C 198.552437 494.971394 227.656024 500.760457 257.045385 500.760457 
C 286.434746 500.760457 315.538333 494.971394 342.690563 483.724572 
C 369.842792 472.477751 394.515622 455.991893 415.297039 435.210476 
C 436.078456 414.429059 452.564313 389.75623 463.811135 362.604 
C 475.057957 335.451771 480.84702 306.348184 480.84702 276.958822 
M 257.045385 276.958822 
C 257.045385 276.958822 257.045385 276.958822 257.045385 276.958822 
C 257.045385 276.958822 257.045385 276.958822 257.045385 276.958822 
C 257.045385 276.958822 257.045385 276.958822 257.045385 276.958822 
C 257.045385 276.958822 257.045385 276.958822 257.045385 276.958822 
C 257.045385 276.958822 257.045385 276.958822 257.045385 276.958822 
C 257.045385 276.958822 257.045385 276.958822 257.045385 276.958822 
C 257.045385 276.958822 257.045385 276.958822 257.045385 276.958822 
C 257.045385 276.958822 257.045385 276.958822 257.045385 276.958822 
C 257.045385 276.958822 257.045385 276.958822 257.045385 276.958822 
C 257.045385 276.958822 257.045385 276.958822 257.045385 276.958822 
C 257.045385 276.958822 257.045385 276.958822 257.045385 276.958822 
C 257.045385 276.958822 257.045385 276.958822 257.045385 276.958822 
C 257.045385 276.958822 257.045385 276.958822 257.045385 276.958822 
C 257.045385 276.958822 257.045385 276.958822 257.045385 276.958822 
C 257.045385 276.958822 257.045385 276.958822 257.045385 276.958822 
C 257.045385 276.958822 257.045385 276.958822 257.045385 276.958822 
z
" style="fill: #ffffff"/>
   </g>
   <g id="patch_3">
    <path d="M 455.075844 276.958822 
L 455.096408 278.687188 
L 455.102376 280.41592 
L 455.093578 282.144897 
L 455.069834 283.873989 
L 455.030959 285.603059 
L 454.976765 287.331967 
L 454.907056 289.060561 
L 454.821637 290.788685 
L 454.720308 292.516176 
L 454.602873 294.242863 
L 454.469131 295.968567 
L 454.318889 297.693103 
L 454.151955 299.416279 
L 453.968145 301.137897 
L 453.767282 302.857752 
L 453.549201 304.575633 
L 453.313754 306.291327 
L 453.060807 308.004615 
L 452.790256 309.71528 
L 452.502022 311.423101 
L 452.196067 313.127864 
L 451.872399 314.829358 
L 451.531083 316.527385 
L 451.172256 318.221763 
L 450.796141 319.912331 
L 450.403065 321.59896 
L 449.993482 323.281562 
L 449.567994 324.9601 
L 449.127376 326.634603 
L 448.672607 328.305182 
L 448.204898 329.972047 
L 447.725719 331.635528 
L 447.23683 333.296095 
L 446.740303 334.954379 
L 446.238541 336.611195 
L 445.734284 338.267562 
L 445.230609 339.924718 
L 444.730904 341.584129 
L 444.238829 343.247498 
L 443.758249 344.916747 
L 443.293137 346.594004 
L 442.847458 348.281556 
L 442.425015 349.981801 
L 442.029278 351.697167 
L 441.663194 353.430023 
L 441.328986 355.18257 
L 441.027963 356.956724 
L 440.760344 358.753992 
L 440.525115 360.575353 
L 440.319937 362.42115 
L 440.141106 364.291002 
L 439.983577 366.18374 
L 439.841054 368.097381 
L 439.706134 370.029123 
L 439.570501 371.975384 
L 439.425153 373.931865 
L 439.260652 375.89364 
L 439.067372 377.855258 
L 438.835746 379.81086 
L 438.556486 381.754305 
L 438.220778 383.679285 
L 437.820447 385.579438 
L 437.34809 387.448462 
L 436.797171 389.280204 
L 436.162095 391.068751 
L 435.438253 392.808506 
L 434.62205 394.494253 
L 433.71091 396.121224 
L 432.703279 397.685148 
L 431.598612 399.182308 
L 430.397356 400.609582 
L 429.100933 401.964495 
L 427.711712 403.245261 
L 426.232988 404.450826 
L 424.668954 405.580911 
L 423.024665 406.636048 
L 421.306005 407.617619 
L 419.519638 408.527878 
L 417.672952 409.369971 
L 415.773991 410.147937 
L 413.83136 410.866696 
L 411.85412 411.532003 
L 409.851656 412.150391 
L 407.833517 412.729067 
L 405.809246 413.275786 
L 403.788174 413.798687 
L 401.779216 414.3061 
L 399.790658 414.80633 
L 397.829948 415.307427 
L 395.903516 415.816953 
L 394.016619 416.341763 
L 392.173242 416.887815 
L 390.376042 417.460019 
L 388.626362 418.062145 
L 386.92429 418.696776 
L 385.268781 419.365331 
L 383.657813 420.068139 
L 382.088569 420.80455 
L 380.557636 421.573088 
L 379.061202 422.371611 
L 377.595236 423.197486 
L 376.15565 424.04775 
L 374.738432 424.91926 
L 373.339751 425.808823 
L 371.956031 426.713292 
L 370.583999 427.629652 
L 369.22071 428.555073 
L 367.86355 429.486942 
L 366.510234 430.422881 
L 365.158778 431.360749 
L 363.807481 432.298636 
L 362.454892 433.234843 
L 361.099782 434.167867 
L 359.741112 435.096375 
L 358.378009 436.01918 
L 357.009734 436.935222 
L 355.635668 437.843543 
L 354.255287 438.743268 
L 352.868148 439.633593 
L 351.473873 440.513762 
L 350.072145 441.383064 
L 348.66269 442.240815 
L 347.245277 443.086357 
L 345.81971 443.919045 
L 344.385826 444.738249 
L 342.94349 445.543345 
L 341.492592 446.333717 
L 340.03305 447.10875 
L 338.564803 447.867836 
L 337.087815 448.610368 
L 335.602072 449.33574 
L 334.107583 450.043353 
L 332.604377 450.732607 
L 331.092506 451.402908 
L 329.572044 452.053666 
L 328.043085 452.684296 
L 326.505744 453.294215 
L 324.960157 453.882852 
L 323.406481 454.449637 
L 321.844894 454.99401 
L 320.275592 455.515419 
L 318.698791 456.013316 
L 317.114729 456.487167 
L 315.523658 456.936442 
L 313.925854 457.360622 
L 312.321607 457.759199 
L 310.711228 458.131673 
L 309.095043 458.477552 
L 307.473397 458.796358 
L 305.84665 459.087622 
L 304.215179 459.350884 
L 302.579379 459.585696 
L 300.939656 459.791621 
L 299.296436 459.968232 
L 297.650157 460.115115 
L 296.001273 460.231866 
L 294.35025 460.318092 
L 292.69757 460.373414 
L 291.043728 460.397464 
L 289.38923 460.389884 
L 287.734599 460.350333 
L 286.080366 460.278479 
L 284.427078 460.174006 
L 282.77529 460.03661 
L 281.125572 459.866003 
L 279.478503 459.66191 
L 277.834674 459.424074 
L 276.194686 459.152252 
L 274.55915 458.846222 
L 272.928685 458.505776 
L 271.303923 458.130729 
L 269.685502 457.720916 
L 268.074068 457.276196 
L 266.470276 456.796451 
L 264.874786 456.281589 
L 263.288266 455.73155 
L 261.711388 455.146303 
L 260.144829 454.525851 
L 258.589268 453.870238 
L 257.045385 453.179548 
L 255.513863 452.453909 
L 253.99538 451.693504 
L 252.490612 450.898568 
L 251.00023 450.069402 
L 249.524895 449.206372 
L 248.065254 448.309925 
L 246.621943 447.38059 
L 245.195576 446.418991 
L 243.786742 445.425859 
L 242.396002 444.402038 
L 241.023881 443.348505 
L 239.670861 442.266379 
L 238.337373 441.156937 
L 237.023789 440.021633 
L 235.730412 438.862114 
L 234.457463 437.680238 
L 233.205069 436.478101 
L 231.97325 435.25805 
L 230.761904 434.022709 
L 229.570788 432.775004 
L 228.399501 431.518179 
L 227.247467 430.255821 
L 226.113911 428.991876 
L 224.99784 427.730666 
L 223.898026 426.476895 
L 222.812981 425.235655 
L 221.740941 424.012417 
L 220.679851 422.813013 
L 219.627355 421.643608 
L 218.58079 420.510646 
L 217.537185 419.420789 
L 216.493277 418.380831 
L 215.445527 417.397589 
L 214.390158 416.477784 
L 213.323195 415.627892 
L 212.240528 414.853994 
L 211.137974 414.16161 
L 210.011365 413.555535 
L 208.856624 413.039686 
L 207.66986 412.616962 
L 206.447455 412.289133 
L 205.186144 412.056765 
L 203.883086 411.919182 
L 202.535923 411.874474 
L 201.142823 411.919547 
L 199.702494 412.050209 
L 198.214193 412.2613 
L 196.677713 412.546833 
L 195.093347 412.900162 
L 193.461852 413.31415 
L 191.784393 413.781337 
L 190.062495 414.294099 
L 188.29798 414.844786 
L 186.492911 415.425849 
L 184.649545 416.029938 
L 182.770277 416.649984 
L 180.857605 417.279257 
L 178.914089 417.911412 
L 176.942323 418.540505 
L 174.944911 419.161014 
L 172.924449 419.767833 
L 170.883507 420.356269 
L 168.824622 420.922024 
L 166.750291 421.461179 
L 164.662965 421.970175 
L 162.565044 422.445789 
L 160.458882 422.88511 
L 158.346781 423.28552 
L 156.230993 423.644672 
L 154.113723 423.96047 
L 151.997126 424.23105 
L 149.883313 424.454761 
L 147.774347 424.630155 
L 145.672247 424.755968 
L 143.578988 424.83111 
L 141.496498 424.854654 
L 139.426663 424.825822 
L 137.371322 424.743983 
L 135.332269 424.608638 
L 133.311253 424.419419 
L 131.30997 424.176078 
L 129.330072 423.878484 
L 127.373156 423.526615 
L 125.440766 423.120559 
L 123.534394 422.660502 
L 121.655469 422.146732 
L 119.805366 421.579627 
L 117.985393 420.95966 
L 116.196795 420.287389 
L 114.440749 419.563458 
L 112.718362 418.788593 
L 111.030667 417.963597 
L 109.37862 417.08935 
L 107.7631 416.166805 
L 106.184904 415.196985 
L 104.644741 414.180979 
L 103.143235 413.119942 
L 101.68092 412.015091 
L 100.258235 410.867699 
L 98.875524 409.679094 
L 97.533032 408.450659 
L 96.230905 407.183821 
L 94.969184 405.880054 
L 93.747809 404.540871 
L 92.566614 403.167823 
L 91.425324 401.76249 
L 90.32356 400.326483 
L 89.260836 398.861433 
L 88.23656 397.368987 
L 87.250035 395.850806 
L 86.300464 394.308555 
L 85.386949 392.743899 
L 84.508498 391.158497 
L 83.664028 389.553992 
L 82.852373 387.93201 
L 82.072287 386.294149 
L 81.322457 384.641971 
L 80.601507 382.977 
L 79.908009 381.300711 
L 79.240496 379.614523 
L 78.59747 377.919795 
L 77.977416 376.217819 
L 77.378811 374.509813 
L 76.800142 372.796918 
L 76.239916 371.080192 
L 75.696669 369.360609 
L 75.168986 367.63905 
L 74.655506 365.916311 
L 74.154936 364.193092 
L 73.666062 362.470005 
L 73.187753 360.747573 
L 72.718976 359.026227 
L 72.258794 357.306319 
L 71.806374 355.588118 
L 71.360991 353.871817 
L 70.922027 352.15754 
L 70.488969 350.445349 
L 70.06141 348.735246 
L 69.639043 347.027183 
L 69.221658 345.321068 
L 68.809135 343.616775 
L 68.401435 341.914144 
L 67.998596 340.212993 
L 67.600725 338.513124 
L 67.207986 336.814325 
L 66.820593 335.116378 
L 66.438806 333.419063 
L 66.062916 331.722164 
L 65.693244 330.025468 
L 65.330126 328.328771 
L 64.973917 326.631882 
L 64.624975 324.934619 
L 64.283662 323.236818 
L 63.950338 321.538327 
L 63.625356 319.839011 
L 63.309062 318.138749 
L 63.001789 316.437438 
L 62.703859 314.734988 
L 62.415579 313.031325 
L 62.137241 311.326387 
L 61.869124 309.620127 
L 61.611491 307.91251 
L 61.364593 306.203513 
L 61.128667 304.493122 
L 60.903939 302.781334 
L 60.690624 301.068156 
L 60.488927 299.353602 
L 60.299047 297.637696 
L 60.121175 295.920467 
L 59.955499 294.201953 
L 59.8022 292.482198 
L 59.661459 290.761251 
L 59.533457 289.03917 
L 59.41837 287.316015 
L 59.31638 285.591857 
L 59.227666 283.866769 
L 59.152412 282.140832 
L 59.090802 280.414133 
L 59.043027 278.686763 
L 59.009275 276.958822 
L 58.989744 275.230417 
L 58.984629 273.501659 
L 58.994133 271.772668 
L 59.018458 270.04357 
L 59.057811 268.314498 
L 59.112399 266.585594 
L 59.182433 264.857006 
L 59.268123 263.128889 
L 59.36968 261.401407 
L 59.487315 259.674731 
L 59.621238 257.949039 
L 59.771655 256.224518 
L 59.938774 254.501361 
L 60.122796 252.779769 
L 60.32392 251.05995 
L 60.542338 249.34212 
L 60.778239 247.626501 
L 61.031805 245.913321 
L 61.30321 244.202816 
L 61.592619 242.495226 
L 61.90019 240.790799 
L 62.226072 239.089784 
L 62.5704 237.39244 
L 62.9333 235.699025 
L 63.314885 234.009805 
L 63.715252 232.325044 
L 64.134486 230.645013 
L 64.572653 228.969981 
L 65.029801 227.300216 
L 65.505956 225.635987 
L 66.001125 223.97756 
L 66.515285 222.325195 
L 67.048385 220.679147 
L 67.600343 219.039661 
L 68.171038 217.40697 
L 68.760306 215.781292 
L 69.367935 214.162826 
L 69.993656 212.551747 
L 70.637137 210.9482 
L 71.297974 209.352294 
L 71.97568 207.764095 
L 72.669676 206.183619 
L 73.379277 204.610819 
L 74.103683 203.045577 
L 74.841967 201.487695 
L 75.593058 199.936879 
L 76.355739 198.392728 
L 77.128629 196.854722 
L 77.910179 195.322206 
L 78.698671 193.794384 
L 79.492215 192.270305 
L 80.288755 190.748854 
L 81.086085 189.228752 
L 81.881869 187.708553 
L 82.673672 186.186654 
L 83.459001 184.661305 
L 84.235357 183.130633 
L 85.000295 181.592672 
L 85.751499 180.045405 
L 86.48686 178.486812 
L 87.204558 176.91493 
L 87.903157 175.327918 
L 88.58168 173.724131 
L 89.239697 172.102191 
L 89.877386 170.461062 
L 90.495583 168.800117 
L 91.095819 167.119201 
L 91.680317 165.418676 
L 92.251983 163.699455 
L 92.814362 161.963022 
L 93.371569 160.211424 
L 93.928211 158.447259 
L 94.489281 156.673633 
L 95.060054 154.89412 
L 95.645966 153.112693 
L 96.252505 151.333656 
L 96.885095 149.561576 
L 97.548999 147.801196 
L 98.249225 146.05737 
L 98.990447 144.334982 
L 99.776942 142.638883 
L 100.612535 140.973821 
L 101.500565 139.34439 
L 102.443851 137.754976 
L 103.444682 136.20971 
L 104.5048 134.712426 
L 105.625406 133.266628 
L 106.807159 131.875454 
L 108.050187 130.541649 
L 109.354099 129.267536 
L 110.718 128.054993 
L 112.140506 126.905428 
L 113.619768 125.819758 
L 115.153485 124.798389 
L 116.738932 123.841198 
L 118.372982 122.947517 
L 120.052135 122.116121 
L 121.772543 121.345219 
L 123.530051 120.632452 
L 125.320231 119.974897 
L 127.138428 119.369082 
L 128.97981 118.811008 
L 130.839422 118.296182 
L 132.712256 117.819674 
L 134.593312 117.376174 
L 136.47768 116.960075 
L 138.360616 116.565563 
L 140.237622 116.18673 
L 142.104528 115.817684 
L 143.957566 115.452679 
L 145.793441 115.086239 
L 147.609386 114.713282 
L 149.403208 114.329234 
L 151.173312 113.930127 
L 152.918708 113.512679 
L 154.638999 113.074347 
L 156.334352 112.613353 
L 158.005448 112.128688 
L 159.653422 111.620078 
L 161.279787 111.08794 
L 162.88636 110.533309 
L 164.475182 109.957755 
L 166.048437 109.363292 
L 167.60838 108.752281 
L 169.157276 108.127335 
L 170.697336 107.491234 
L 172.230681 106.846844 
L 173.7593 106.197043 
L 175.28503 105.544673 
L 176.809533 104.892482 
L 178.334296 104.243101 
L 179.860624 103.59901 
L 181.389644 102.962531 
L 182.922315 102.335813 
L 184.459434 101.720835 
L 186.001651 101.119411 
L 187.549481 100.533193 
L 189.103317 99.963685 
L 190.663442 99.412251 
L 192.230042 98.88013 
L 193.803217 98.368449 
L 195.382992 97.878231 
L 196.969327 97.410413 
L 198.562123 96.96585 
L 200.16123 96.545332 
L 201.766454 96.149586 
L 203.377563 95.779291 
L 204.994289 95.435078 
L 206.616334 95.11754 
L 208.243374 94.827238 
L 209.875058 94.5647 
L 211.511013 94.330431 
L 213.150847 94.124912 
L 214.794146 93.948601 
L 216.440482 93.801941 
L 218.089407 93.685353 
L 219.740458 93.599246 
L 221.393157 93.544011 
L 223.047013 93.520025 
L 224.70152 93.52765 
L 226.356158 93.567234 
L 228.010395 93.639111 
L 229.663687 93.743601 
L 231.315476 93.881008 
L 232.965196 94.051624 
L 234.612265 94.255723 
L 236.256095 94.493564 
L 237.896083 94.765388 
L 239.53162 95.071421 
L 241.162085 95.411869 
L 242.786847 95.786918 
L 244.405268 96.196732 
L 246.016702 96.641454 
L 247.620495 97.121201 
L 249.215984 97.636064 
L 250.802504 98.186105 
L 252.379382 98.771354 
L 253.945941 99.391808 
L 255.501503 100.047423 
L 257.045385 100.738115 
L 258.576907 101.463756 
L 260.09539 102.224162 
L 261.600157 103.019097 
L 263.090539 103.848261 
L 264.565875 104.711284 
L 266.025516 105.607719 
L 267.468828 106.537033 
L 268.895198 107.4986 
L 270.304036 108.491683 
L 271.694784 109.51543 
L 273.066916 110.568856 
L 274.419955 111.650831 
L 275.753471 112.760059 
L 277.067097 113.895068 
L 278.360535 115.054181 
L 279.633574 116.235504 
L 280.886097 117.436897 
L 282.118097 118.655952 
L 283.329697 119.88997 
L 284.521165 121.135933 
L 285.692935 122.390477 
L 286.845627 123.649869 
L 287.980071 124.909984 
L 289.097329 126.166281 
L 290.19872 127.413791 
L 291.285843 128.647106 
L 292.360596 129.860383 
L 293.425201 131.047352 
L 294.482213 132.20135 
L 295.534534 133.315363 
L 296.58541 134.382099 
L 297.638423 135.394075 
L 298.697471 136.343738 
L 299.766728 137.223604 
L 300.850601 138.026428 
L 301.953653 138.745386 
L 303.080531 139.374273 
L 304.235868 139.907707 
L 305.424179 140.341324 
L 306.64975 140.67195 
L 307.916535 140.897751 
L 309.228051 141.018331 
L 310.587288 141.034782 
L 311.996644 140.949684 
L 313.457867 140.767043 
L 314.972039 140.492178 
L 316.539568 140.131569 
L 318.160213 139.692671 
L 319.833123 139.183705 
L 321.556894 138.613446 
L 323.32963 137.991012 
L 325.149022 137.325675 
L 327.012412 136.626676 
L 328.916872 135.903087 
L 330.859263 135.163682 
L 332.836298 134.416846 
L 334.844593 133.670505 
L 336.880712 132.93208 
L 338.9412 132.20846 
L 341.022618 131.505988 
L 343.121562 130.830471 
L 345.234684 130.187181 
L 347.358702 129.580884 
L 349.490413 129.015852 
L 351.626697 128.495901 
L 353.764527 128.024405 
L 355.900964 127.604335 
L 358.033166 127.23828 
L 360.158388 126.928472 
L 362.273978 126.676816 
L 364.377385 126.484908 
L 366.466152 126.354057 
L 368.537923 126.285305 
L 370.590438 126.279448 
L 372.621539 126.337046 
L 374.629167 126.458444 
L 376.611369 126.64378 
L 378.566291 126.893001 
L 380.49219 127.205873 
L 382.387429 127.581991 
L 384.250485 128.020786 
L 386.079947 128.521539 
L 387.874521 129.083384 
L 389.633037 129.705317 
L 391.354446 130.386202 
L 393.037829 131.124781 
L 394.682395 131.919677 
L 396.28749 132.769402 
L 397.852598 133.672362 
L 399.377342 134.626866 
L 400.86149 135.63113 
L 402.304955 136.683286 
L 403.7078 137.781387 
L 405.070235 138.923417 
L 406.392619 140.107296 
L 407.675462 141.330892 
L 408.919418 142.592029 
L 410.125288 143.888493 
L 411.294012 145.218049 
L 412.426664 146.578449 
L 413.524445 147.96744 
L 414.588676 149.382781 
L 415.620783 150.822256 
L 416.622288 152.283682 
L 417.594797 153.764926 
L 418.539979 155.263917 
L 419.459552 156.778661 
L 420.355266 158.307248 
L 421.228884 159.847871 
L 422.082157 161.398831 
L 422.916812 162.958549 
L 423.734528 164.525576 
L 424.536917 166.098596 
L 425.325505 167.676435 
L 426.10172 169.258059 
L 426.866872 170.84258 
L 427.622146 172.429249 
L 428.368588 174.017457 
L 429.107099 175.606727 
L 429.838433 177.19671 
L 430.563195 178.787169 
L 431.281842 180.377977 
L 431.994687 181.969102 
L 432.701907 183.560593 
L 433.403552 185.152572 
L 434.099556 186.745216 
L 434.789749 188.338752 
L 435.473868 189.933436 
L 436.151575 191.529552 
L 436.822466 193.127393 
L 437.48609 194.727256 
L 438.141958 196.329433 
L 438.789558 197.934207 
L 439.428365 199.541841 
L 440.057854 201.152576 
L 440.677507 202.766629 
L 441.286822 204.38419 
L 441.88532 206.005419 
L 442.47255 207.630446 
L 443.048094 209.259373 
L 443.611569 210.892272 
L 444.16263 212.529188 
L 444.700972 214.170141 
L 445.226328 215.815128 
L 445.738469 217.464122 
L 446.237204 219.117079 
L 446.722378 220.773938 
L 447.193869 222.434622 
L 447.651587 224.099045 
L 448.095467 225.767107 
L 448.525474 227.438704 
L 448.941592 229.113724 
L 449.343826 230.792051 
L 449.732195 232.473567 
L 450.106734 234.158152 
L 450.467485 235.845686 
L 450.814501 237.53605 
L 451.147838 239.229128 
L 451.467555 240.924803 
L 451.77371 242.622965 
L 452.066359 244.323504 
L 452.345556 246.026314 
L 452.611349 247.731293 
L 452.863776 249.438342 
L 453.102869 251.147365 
L 453.328651 252.858268 
L 453.541132 254.57096 
L 453.740312 256.285353 
L 453.926179 258.001358 
L 454.098708 259.718891 
L 454.257862 261.437864 
L 454.403591 263.158192 
L 454.53583 264.879789 
L 454.654504 266.602567 
L 454.759523 268.326437 
L 454.850786 270.051306 
L 454.92818 271.777079 
L 454.99158 273.503659 
L 455.04085 275.230942 
z
" clip-path="url(#pc8212b7f87)" style="fill: #1f77b4; opacity: 0.12; stroke: #1f77b4; stroke-linejoin: miter"/>
   </g>
   <g id="matplotlib.axis_1">
    <g id="xtick_1">
     <g id="line2d_1">
      <path d="M 257.045385 276.958822 
L 480.84702 276.958822 
" clip-path="url(#pc8212b7f87)" style="fill: none; stroke: #b0b0b0; stroke-opacity: 0.3; stroke-width: 0.8; stroke-linecap: square"/>
     </g>
     <g id="text_1">
      <!-- 0° -->
      <g transform="translate(489.16577 279.718197) scale(0.1 -0.1)">
       <defs>
        <path id="DejaVuSans-30" d="M 2034 4250 
Q 1547 4250 1301 3770 
Q 1056 3291 1056 2328 
Q 1056 1369 1301 889 
Q 1547 409 2034 409 
Q 2525 409 2770 889 
Q 3016 1369 3016 2328 
Q 3016 3291 2770 3770 
Q 2525 4250 2034 4250 
z
M 2034 4750 
Q 2819 4750 3233 4129 
Q 3647 3509 3647 2328 
Q 3647 1150 3233 529 
Q 2819 -91 2034 -91 
Q 1250 -91 836 529 
Q 422 1150 422 2328 
Q 422 3509 836 4129 
Q 1250 4750 2034 4750 
z
" transform="scale(0.015625)"/>
        <path id="DejaVuSans-b0" d="M 1600 4347 
Q 1350 4347 1178 4173 
Q 1006 4000 1006 3750 
Q 1006 3503 1178 3333 
Q 1350 3163 1600 3163 
Q 1850 3163 2022 3333 
Q 2194 3503 2194 3750 
Q 2194 3997 2020 4172 
Q 1847 4347 1600 4347 
z
M 1600 4750 
Q 1800 4750 1984 4673 
Q 2169 4597 2303 4453 
Q 2447 4313 2519 4134 
Q 2591 3956 2591 3750 
Q 2591 3338 2302 3052 
Q 2013 2766 1594 2766 
Q 1172 2766 890 3047 
Q 609 3328 609 3750 
Q 609 4169 896 4459 
Q 1184 4750 1600 4750 
z
" transform="scale(0.015625)"/>
       </defs>
       <use xlink:href="#DejaVuSans-30"/>
       <use xlink:href="#DejaVuSans-b0" transform="translate(63.623047 0)"/>
      </g>
     </g>
    </g>
    <g id="xtick_2">
     <g id="line2d_2">
      <path d="M 257.045385 276.958822 
L 415.297039 435.210476 
" clip-path="url(#pc8212b7f87)" style="fill: none; stroke: #b0b0b0; stroke-opacity: 0.3; stroke-width: 0.8; stroke-linecap: square"/>
     </g>
     <g id="text_2">
      <!-- 45° -->
      <g transform="translate(416.334034 447.869346) scale(0.1 -0.1)">
       <defs>
        <path id="DejaVuSans-34" d="M 2419 4116 
L 825 1625 
L 2419 1625 
L 2419 4116 
z
M 2253 4666 
L 3047 4666 
L 3047 1625 
L 3713 1625 
L 3713 1100 
L 3047 1100 
L 3047 0 
L 2419 0 
L 2419 1100 
L 313 1100 
L 313 1709 
L 2253 4666 
z
" transform="scale(0.015625)"/>
        <path id="DejaVuSans-35" d="M 691 4666 
L 3169 4666 
L 3169 4134 
L 1269 4134 
L 1269 2991 
Q 1406 3038 1543 3061 
Q 1681 3084 1819 3084 
Q 2600 3084 3056 2656 
Q 3513 2228 3513 1497 
Q 3513 744 3044 326 
Q 2575 -91 1722 -91 
Q 1428 -91 1123 -41 
Q 819 9 494 109 
L 494 744 
Q 775 591 1075 516 
Q 1375 441 1709 441 
Q 2250 441 2565 725 
Q 2881 1009 2881 1497 
Q 2881 1984 2565 2268 
Q 2250 2553 1709 2553 
Q 1456 2553 1204 2497 
Q 953 2441 691 2322 
L 691 4666 
z
" transform="scale(0.015625)"/>
       </defs>
       <use xlink:href="#DejaVuSans-34"/>
       <use xlink:href="#DejaVuSans-35" transform="translate(63.623047 0)"/>
       <use xlink:href="#DejaVuSans-b0" transform="translate(127.246094 0)"/>
      </g>
     </g>
    </g>
    <g id="xtick_3">
     <g id="line2d_3">
      <path d="M 257.045385 276.958822 
L 257.045385 500.760457 
" clip-path="url(#pc8212b7f87)" style="fill: none; stroke: #b0b0b0; stroke-opacity: 0.3; stroke-width: 0.8; stroke-linecap: square"/>
     </g>
     <g id="text_3">
      <!-- 90° -->
      <g transform="translate(248.182885 517.519832) scale(0.1 -0.1)">
       <defs>
        <path id="DejaVuSans-39" d="M 703 97 
L 703 672 
Q 941 559 1184 500 
Q 1428 441 1663 441 
Q 2288 441 2617 861 
Q 2947 1281 2994 2138 
Q 2813 1869 2534 1725 
Q 2256 1581 1919 1581 
Q 1219 1581 811 2004 
Q 403 2428 403 3163 
Q 403 3881 828 4315 
Q 1253 4750 1959 4750 
Q 2769 4750 3195 4129 
Q 3622 3509 3622 2328 
Q 3622 1225 3098 567 
Q 2575 -91 1691 -91 
Q 1453 -91 1209 -44 
Q 966 3 703 97 
z
M 1959 2075 
Q 2384 2075 2632 2365 
Q 2881 2656 2881 3163 
Q 2881 3666 2632 3958 
Q 2384 4250 1959 4250 
Q 1534 4250 1286 3958 
Q 1038 3666 1038 3163 
Q 1038 2656 1286 2365 
Q 1534 2075 1959 2075 
z
" transform="scale(0.015625)"/>
       </defs>
       <use xlink:href="#DejaVuSans-39"/>
       <use xlink:href="#DejaVuSans-30" transform="translate(63.623047 0)"/>
       <use xlink:href="#DejaVuSans-b0" transform="translate(127.246094 0)"/>
      </g>
     </g>
    </g>
    <g id="xtick_4">
     <g id="line2d_4">
      <path d="M 257.045385 276.958822 
L 98.793731 435.210476 
" clip-path="url(#pc8212b7f87)" style="fill: none; stroke: #b0b0b0; stroke-opacity: 0.3; stroke-width: 0.8; stroke-linecap: square"/>
     </g>
     <g id="text_4">
      <!-- 135° -->
      <g transform="translate(76.850486 447.869346) scale(0.1 -0.1)">
       <defs>
        <path id="DejaVuSans-31" d="M 794 531 
L 1825 531 
L 1825 4091 
L 703 3866 
L 703 4441 
L 1819 4666 
L 2450 4666 
L 2450 531 
L 3481 531 
L 3481 0 
L 794 0 
L 794 531 
z
" transform="scale(0.015625)"/>
        <path id="DejaVuSans-33" d="M 2597 2516 
Q 3050 2419 3304 2112 
Q 3559 1806 3559 1356 
Q 3559 666 3084 287 
Q 2609 -91 1734 -91 
Q 1441 -91 1130 -33 
Q 819 25 488 141 
L 488 750 
Q 750 597 1062 519 
Q 1375 441 1716 441 
Q 2309 441 2620 675 
Q 2931 909 2931 1356 
Q 2931 1769 2642 2001 
Q 2353 2234 1838 2234 
L 1294 2234 
L 1294 2753 
L 1863 2753 
Q 2328 2753 2575 2939 
Q 2822 3125 2822 3475 
Q 2822 3834 2567 4026 
Q 2313 4219 1838 4219 
Q 1578 4219 1281 4162 
Q 984 4106 628 3988 
L 628 4550 
Q 988 4650 1302 4700 
Q 1616 4750 1894 4750 
Q 2613 4750 3031 4423 
Q 3450 4097 3450 3541 
Q 3450 3153 3228 2886 
Q 3006 2619 2597 2516 
z
" transform="scale(0.015625)"/>
       </defs>
       <use xlink:href="#DejaVuSans-31"/>
       <use xlink:href="#DejaVuSans-33" transform="translate(63.623047 0)"/>
       <use xlink:href="#DejaVuSans-35" transform="translate(127.246094 0)"/>
       <use xlink:href="#DejaVuSans-b0" transform="translate(190.869141 0)"/>
      </g>
     </g>
    </g>
    <g id="xtick_5">
     <g id="line2d_5">
      <path d="M 257.045385 276.958822 
L 33.24375 276.958822 
" clip-path="url(#pc8212b7f87)" style="fill: none; stroke: #b0b0b0; stroke-opacity: 0.3; stroke-width: 0.8; stroke-linecap: square"/>
     </g>
     <g id="text_5">
      <!-- 180° -->
      <g transform="translate(7.2 279.718197) scale(0.1 -0.1)">
       <defs>
        <path id="DejaVuSans-38" d="M 2034 2216 
Q 1584 2216 1326 1975 
Q 1069 1734 1069 1313 
Q 1069 891 1326 650 
Q 1584 409 2034 409 
Q 2484 409 2743 651 
Q 3003 894 3003 1313 
Q 3003 1734 2745 1975 
Q 2488 2216 2034 2216 
z
M 1403 2484 
Q 997 2584 770 2862 
Q 544 3141 544 3541 
Q 544 4100 942 4425 
Q 1341 4750 2034 4750 
Q 2731 4750 3128 4425 
Q 3525 4100 3525 3541 
Q 3525 3141 3298 2862 
Q 3072 2584 2669 2484 
Q 3125 2378 3379 2068 
Q 3634 1759 3634 1313 
Q 3634 634 3220 271 
Q 2806 -91 2034 -91 
Q 1263 -91 848 271 
Q 434 634 434 1313 
Q 434 1759 690 2068 
Q 947 2378 1403 2484 
z
M 1172 3481 
Q 1172 3119 1398 2916 
Q 1625 2713 2034 2713 
Q 2441 2713 2670 2916 
Q 2900 3119 2900 3481 
Q 2900 3844 2670 4047 
Q 2441 4250 2034 4250 
Q 1625 4250 1398 4047 
Q 1172 3844 1172 3481 
z
" transform="scale(0.015625)"/>
       </defs>
       <use xlink:href="#DejaVuSans-31"/>
       <use xlink:href="#DejaVuSans-38" transform="translate(63.623047 0)"/>
       <use xlink:href="#DejaVuSans-30" transform="translate(127.246094 0)"/>
       <use xlink:href="#DejaVuSans-b0" transform="translate(190.869141 0)"/>
      </g>
     </g>
    </g>
    <g id="xtick_6">
     <g id="line2d_6">
      <path d="M 257.045385 276.958822 
L 98.793731 118.707169 
" clip-path="url(#pc8212b7f87)" style="fill: none; stroke: #b0b0b0; stroke-opacity: 0.3; stroke-width: 0.8; stroke-linecap: square"/>
     </g>
     <g id="text_6">
      <!-- 225° -->
      <g transform="translate(76.850486 111.567049) scale(0.1 -0.1)">
       <defs>
        <path id="DejaVuSans-32" d="M 1228 531 
L 3431 531 
L 3431 0 
L 469 0 
L 469 531 
Q 828 903 1448 1529 
Q 2069 2156 2228 2338 
Q 2531 2678 2651 2914 
Q 2772 3150 2772 3378 
Q 2772 3750 2511 3984 
Q 2250 4219 1831 4219 
Q 1534 4219 1204 4116 
Q 875 4013 500 3803 
L 500 4441 
Q 881 4594 1212 4672 
Q 1544 4750 1819 4750 
Q 2544 4750 2975 4387 
Q 3406 4025 3406 3419 
Q 3406 3131 3298 2873 
Q 3191 2616 2906 2266 
Q 2828 2175 2409 1742 
Q 1991 1309 1228 531 
z
" transform="scale(0.015625)"/>
       </defs>
       <use xlink:href="#DejaVuSans-32"/>
       <use xlink:href="#DejaVuSans-32" transform="translate(63.623047 0)"/>
       <use xlink:href="#DejaVuSans-35" transform="translate(127.246094 0)"/>
       <use xlink:href="#DejaVuSans-b0" transform="translate(190.869141 0)"/>
      </g>
     </g>
    </g>
    <g id="xtick_7">
     <g id="line2d_7">
      <path d="M 257.045385 276.958822 
L 257.045385 53.157187 
" clip-path="url(#pc8212b7f87)" style="fill: none; stroke: #b0b0b0; stroke-opacity: 0.3; stroke-width: 0.8; stroke-linecap: square"/>
     </g>
     <g id="text_7">
      <!-- 270° -->
      <g transform="translate(245.001635 41.916562) scale(0.1 -0.1)">
       <defs>
        <path id="DejaVuSans-37" d="M 525 4666 
L 3525 4666 
L 3525 4397 
L 1831 0 
L 1172 0 
L 2766 4134 
L 525 4134 
L 525 4666 
z
" transform="scale(0.015625)"/>
       </defs>
       <use xlink:href="#DejaVuSans-32"/>
       <use xlink:href="#DejaVuSans-37" transform="translate(63.623047 0)"/>
       <use xlink:href="#DejaVuSans-30" transform="translate(127.246094 0)"/>
       <use xlink:href="#DejaVuSans-b0" transform="translate(190.869141 0)"/>
      </g>
     </g>
    </g>
    <g id="xtick_8">
     <g id="line2d_8">
      <path d="M 257.045385 276.958822 
L 415.297039 118.707169 
" clip-path="url(#pc8212b7f87)" style="fill: none; stroke: #b0b0b0; stroke-opacity: 0.3; stroke-width: 0.8; stroke-linecap: square"/>
     </g>
     <g id="text_8">
      <!-- 315° -->
      <g transform="translate(413.152784 111.567049) scale(0.1 -0.1)">
       <use xlink:href="#DejaVuSans-33"/>
       <use xlink:href="#DejaVuSans-31" transform="translate(63.623047 0)"/>
       <use xlink:href="#DejaVuSans-35" transform="translate(127.246094 0)"/>
       <use xlink:href="#DejaVuSans-b0" transform="translate(190.869141 0)"/>
      </g>
     </g>
    </g>
   </g>
   <g id="matplotlib.axis_2">
    <g id="ytick_1">
     <g id="line2d_9">
      <path d="M 470.189799 276.958822 
C 470.189799 304.948691 464.676406 332.666392 453.965147 358.525659 
C 443.253888 384.384925 427.553071 407.882858 407.761246 427.674683 
C 387.96942 447.466509 364.471487 463.167326 338.612221 473.878584 
C 312.752955 484.589843 285.035253 490.103237 257.045385 490.103237 
C 229.055517 490.103237 201.337815 484.589843 175.478549 473.878584 
C 149.619283 463.167326 126.12135 447.466509 106.329524 427.674683 
C 86.537699 407.882858 70.836882 384.384925 60.125623 358.525659 
C 49.414364 332.666392 43.900971 304.948691 43.900971 276.958822 
C 43.900971 248.968954 49.414364 221.251253 60.125623 195.391986 
C 70.836882 169.53272 86.537699 146.034787 106.329524 126.242962 
C 126.12135 106.451136 149.619283 90.750319 175.478549 80.039061 
C 201.337815 69.327802 229.055517 63.814408 257.045385 63.814408 
C 285.035253 63.814408 312.752955 69.327802 338.612221 80.039061 
C 364.471487 90.750319 387.96942 106.451136 407.761246 126.242962 
C 427.553071 146.034787 443.253888 169.53272 453.965147 195.391986 
C 464.676406 221.251253 470.189799 248.968954 470.189799 276.958822 
" clip-path="url(#pc8212b7f87)" style="fill: none; stroke: #b0b0b0; stroke-opacity: 0.3; stroke-width: 0.8; stroke-linecap: square"/>
     </g>
     <g id="text_9">
      <!-- 0 dB -->
      <g transform="translate(453.965147 356.445971) scale(0.1 -0.1)">
       <defs>
        <path id="DejaVuSans-20" transform="scale(0.015625)"/>
        <path id="DejaVuSans-64" d="M 2906 2969 
L 2906 4863 
L 3481 4863 
L 3481 0 
L 2906 0 
L 2906 525 
Q 2725 213 2448 61 
Q 2172 -91 1784 -91 
Q 1150 -91 751 415 
Q 353 922 353 1747 
Q 353 2572 751 3078 
Q 1150 3584 1784 3584 
Q 2172 3584 2448 3432 
Q 2725 3281 2906 2969 
z
M 947 1747 
Q 947 1113 1208 752 
Q 1469 391 1925 391 
Q 2381 391 2643 752 
Q 2906 1113 2906 1747 
Q 2906 2381 2643 2742 
Q 2381 3103 1925 3103 
Q 1469 3103 1208 2742 
Q 947 2381 947 1747 
z
" transform="scale(0.015625)"/>
        <path id="DejaVuSans-42" d="M 1259 2228 
L 1259 519 
L 2272 519 
Q 2781 519 3026 730 
Q 3272 941 3272 1375 
Q 3272 1813 3026 2020 
Q 2781 2228 2272 2228 
L 1259 2228 
z
M 1259 4147 
L 1259 2741 
L 2194 2741 
Q 2656 2741 2882 2914 
Q 3109 3088 3109 3444 
Q 3109 3797 2882 3972 
Q 2656 4147 2194 4147 
L 1259 4147 
z
M 628 4666 
L 2241 4666 
Q 2963 4666 3353 4366 
Q 3744 4066 3744 3513 
Q 3744 3084 3544 2831 
Q 3344 2578 2956 2516 
Q 3422 2416 3680 2098 
Q 3938 1781 3938 1306 
Q 3938 681 3513 340 
Q 3088 0 2303 0 
L 628 0 
L 628 4666 
z
" transform="scale(0.015625)"/>
       </defs>
       <use xlink:href="#DejaVuSans-30"/>
       <use xlink:href="#DejaVuSans-20" transform="translate(63.623047 0)"/>
       <use xlink:href="#DejaVuSans-64" transform="translate(95.410156 0)"/>
       <use xlink:href="#DejaVuSans-42" transform="translate(158.886719 0)"/>
      </g>
     </g>
    </g>
    <g id="ytick_2">
     <g id="line2d_10">
      <path d="M 434.66573 276.958822 
C 434.66573 300.283713 430.071235 323.381797 421.145187 344.931186 
C 412.219138 366.480574 399.135124 386.062185 382.641936 402.555373 
C 366.148748 419.048561 346.567137 432.132575 325.017748 441.058624 
C 303.46836 449.984673 280.370275 454.579168 257.045385 454.579168 
C 233.720495 454.579168 210.62241 449.984673 189.073022 441.058624 
C 167.523633 432.132575 147.942022 419.048561 131.448834 402.555373 
C 114.955646 386.062185 101.871632 366.480574 92.945583 344.931186 
C 84.019535 323.381797 79.42504 300.283713 79.42504 276.958822 
C 79.42504 253.633932 84.019535 230.535848 92.945583 208.986459 
C 101.871632 187.437071 114.955646 167.85546 131.448834 151.362272 
C 147.942022 134.869084 167.523633 121.78507 189.073022 112.859021 
C 210.62241 103.932972 233.720495 99.338477 257.045385 99.338477 
C 280.370275 99.338477 303.46836 103.932972 325.017748 112.859021 
C 346.567137 121.78507 366.148748 134.869084 382.641936 151.362272 
C 399.135124 167.85546 412.219138 187.437071 421.145187 208.986459 
C 430.071235 230.535848 434.66573 253.633932 434.66573 276.958822 
" clip-path="url(#pc8212b7f87)" style="fill: none; stroke: #b0b0b0; stroke-opacity: 0.3; stroke-width: 0.8; stroke-linecap: square"/>
     </g>
     <g id="text_10">
      <!-- -5 dB -->
      <g transform="translate(421.145187 342.851498) scale(0.1 -0.1)">
       <defs>
        <path id="DejaVuSans-2d" d="M 313 2009 
L 1997 2009 
L 1997 1497 
L 313 1497 
L 313 2009 
z
" transform="scale(0.015625)"/>
       </defs>
       <use xlink:href="#DejaVuSans-2d"/>
       <use xlink:href="#DejaVuSans-35" transform="translate(36.083984 0)"/>
       <use xlink:href="#DejaVuSans-20" transform="translate(99.707031 0)"/>
       <use xlink:href="#DejaVuSans-64" transform="translate(131.494141 0)"/>
       <use xlink:href="#DejaVuSans-42" transform="translate(194.970703 0)"/>
      </g>
     </g>
    </g>
    <g id="ytick_3">
     <g id="line2d_11">
      <path d="M 399.141661 276.958822 
C 399.141661 295.618735 395.466065 314.097202 388.325226 331.336713 
C 381.184387 348.576224 370.717176 364.241513 357.522625 377.436063 
C 344.328075 390.630613 328.662786 401.097825 311.423276 408.238664 
C 294.183765 415.379503 275.705297 419.055099 257.045385 419.055099 
C 238.385473 419.055099 219.907005 415.379503 202.667494 408.238664 
C 185.427984 401.097825 169.762695 390.630613 156.568145 377.436063 
C 143.373594 364.241513 132.906383 348.576224 125.765544 331.336713 
C 118.624705 314.097202 114.949109 295.618735 114.949109 276.958822 
C 114.949109 258.29891 118.624705 239.820443 125.765544 222.580932 
C 132.906383 205.341421 143.373594 189.676132 156.568145 176.481582 
C 169.762695 163.287032 185.427984 152.81982 202.667494 145.678981 
C 219.907005 138.538142 238.385473 134.862546 257.045385 134.862546 
C 275.705297 134.862546 294.183765 138.538142 311.423276 145.678981 
C 328.662786 152.81982 344.328075 163.287032 357.522625 176.481582 
C 370.717176 189.676132 381.184387 205.341421 388.325226 222.580932 
C 395.466065 239.820443 399.141661 258.29891 399.141661 276.958822 
" clip-path="url(#pc8212b7f87)" style="fill: none; stroke: #b0b0b0; stroke-opacity: 0.3; stroke-width: 0.8; stroke-linecap: square"/>
     </g>
     <g id="text_11">
      <!-- -10 dB -->
      <g transform="translate(388.325226 329.257026) scale(0.1 -0.1)">
       <use xlink:href="#DejaVuSans-2d"/>
       <use xlink:href="#DejaVuSans-31" transform="translate(36.083984 0)"/>
       <use xlink:href="#DejaVuSans-30" transform="translate(99.707031 0)"/>
       <use xlink:href="#DejaVuSans-20" transform="translate(163.330078 0)"/>
       <use xlink:href="#DejaVuSans-64" transform="translate(195.117188 0)"/>
       <use xlink:href="#DejaVuSans-42" transform="translate(258.59375 0)"/>
      </g>
     </g>
    </g>
    <g id="ytick_4">
     <g id="line2d_12">
      <path d="M 363.617592 276.958822 
C 363.617592 290.953757 360.860895 304.812607 355.505266 317.742241 
C 350.149637 330.671874 342.299228 342.42084 332.403315 352.316753 
C 322.507403 362.212666 310.758436 370.063074 297.828803 375.418703 
C 284.89917 380.774333 271.040319 383.53103 257.045385 383.53103 
C 243.050451 383.53103 229.1916 380.774333 216.261967 375.418703 
C 203.332334 370.063074 191.583367 362.212666 181.687455 352.316753 
C 171.791542 342.42084 163.941133 330.671874 158.585504 317.742241 
C 153.229875 304.812607 150.473178 290.953757 150.473178 276.958822 
C 150.473178 262.963888 153.229875 249.105038 158.585504 236.175404 
C 163.941133 223.245771 171.791542 211.496805 181.687455 201.600892 
C 191.583367 191.704979 203.332334 183.854571 216.261967 178.498942 
C 229.1916 173.143312 243.050451 170.386615 257.045385 170.386615 
C 271.040319 170.386615 284.89917 173.143312 297.828803 178.498942 
C 310.758436 183.854571 322.507403 191.704979 332.403315 201.600892 
C 342.299228 211.496805 350.149637 223.245771 355.505266 236.175404 
C 360.860895 249.105038 363.617592 262.963888 363.617592 276.958822 
" clip-path="url(#pc8212b7f87)" style="fill: none; stroke: #b0b0b0; stroke-opacity: 0.3; stroke-width: 0.8; stroke-linecap: square"/>
     </g>
     <g id="text_12">
      <!-- -15 dB -->
      <g transform="translate(355.505266 315.662553) scale(0.1 -0.1)">
       <use xlink:href="#DejaVuSans-2d"/>
       <use xlink:href="#DejaVuSans-31" transform="translate(36.083984 0)"/>
       <use xlink:href="#DejaVuSans-35" transform="translate(99.707031 0)"/>
       <use xlink:href="#DejaVuSans-20" transform="translate(163.330078 0)"/>
       <use xlink:href="#DejaVuSans-64" transform="translate(195.117188 0)"/>
       <use xlink:href="#DejaVuSans-42" transform="translate(258.59375 0)"/>
      </g>
     </g>
    </g>
    <g id="ytick_5">
     <g id="line2d_13">
      <path d="M 328.093523 276.958822 
C 328.093523 286.288779 326.255725 295.528012 322.685306 304.147768 
C 319.114886 312.767523 313.88128 320.600168 307.284005 327.197443 
C 300.68673 333.794718 292.854086 339.028324 284.23433 342.598743 
C 275.614575 346.169163 266.375341 348.006961 257.045385 348.006961 
C 247.715429 348.006961 238.476195 346.169163 229.85644 342.598743 
C 221.236684 339.028324 213.40404 333.794718 206.806765 327.197443 
C 200.20949 320.600168 194.975884 312.767523 191.405464 304.147768 
C 187.835045 295.528012 185.997247 286.288779 185.997247 276.958822 
C 185.997247 267.628866 187.835045 258.389633 191.405464 249.769877 
C 194.975884 241.150122 200.20949 233.317477 206.806765 226.720202 
C 213.40404 220.122927 221.236684 214.889321 229.85644 211.318902 
C 238.476195 207.748482 247.715429 205.910684 257.045385 205.910684 
C 266.375341 205.910684 275.614575 207.748482 284.23433 211.318902 
C 292.854086 214.889321 300.68673 220.122927 307.284005 226.720202 
C 313.88128 233.317477 319.114886 241.150122 322.685306 249.769877 
C 326.255725 258.389633 328.093523 267.628866 328.093523 276.958822 
" clip-path="url(#pc8212b7f87)" style="fill: none; stroke: #b0b0b0; stroke-opacity: 0.3; stroke-width: 0.8; stroke-linecap: square"/>
     </g>
     <g id="text_13">
      <!-- -20 dB -->
      <g transform="translate(322.685306 302.06808) scale(0.1 -0.1)">
       <use xlink:href="#DejaVuSans-2d"/>
       <use xlink:href="#DejaVuSans-32" transform="translate(36.083984 0)"/>
       <use xlink:href="#DejaVuSans-30" transform="translate(99.707031 0)"/>
       <use xlink:href="#DejaVuSans-20" transform="translate(163.330078 0)"/>
       <use xlink:href="#DejaVuSans-64" transform="translate(195.117188 0)"/>
       <use xlink:href="#DejaVuSans-42" transform="translate(258.59375 0)"/>
      </g>
     </g>
    </g>
    <g id="ytick_6">
     <g id="line2d_14">
      <path d="M 292.569454 276.958822 
C 292.569454 281.623801 291.650555 286.243417 289.865345 290.553295 
C 288.080136 294.863173 285.463333 298.779495 282.164695 302.078133 
C 278.866058 305.37677 274.949735 307.993573 270.639858 309.778783 
C 266.32998 311.563993 261.710363 312.482892 257.045385 312.482892 
C 252.380407 312.482892 247.76079 311.563993 243.450912 309.778783 
C 239.141035 307.993573 235.224712 305.37677 231.926075 302.078133 
C 228.627437 298.779495 226.010634 294.863173 224.225425 290.553295 
C 222.440215 286.243417 221.521316 281.623801 221.521316 276.958822 
C 221.521316 272.293844 222.440215 267.674228 224.225425 263.36435 
C 226.010634 259.054472 228.627437 255.13815 231.926075 251.839512 
C 235.224712 248.540875 239.141035 245.924072 243.450912 244.138862 
C 247.76079 242.353652 252.380407 241.434753 257.045385 241.434753 
C 261.710363 241.434753 266.32998 242.353652 270.639858 244.138862 
C 274.949735 245.924072 278.866058 248.540875 282.164695 251.839512 
C 285.463333 255.13815 288.080136 259.054472 289.865345 263.36435 
C 291.650555 267.674228 292.569454 272.293844 292.569454 276.958822 
" clip-path="url(#pc8212b7f87)" style="fill: none; stroke: #b0b0b0; stroke-opacity: 0.3; stroke-width: 0.8; stroke-linecap: square"/>
     </g>
     <g id="text_14">
      <!-- -25 dB -->
      <g transform="translate(289.865345 288.473608) scale(0.1 -0.1)">
       <use xlink:href="#DejaVuSans-2d"/>
       <use xlink:href="#DejaVuSans-32" transform="translate(36.083984 0)"/>
       <use xlink:href="#DejaVuSans-35" transform="translate(99.707031 0)"/>
       <use xlink:href="#DejaVuSans-20" transform="translate(163.330078 0)"/>
       <use xlink:href="#DejaVuSans-64" transform="translate(195.117188 0)"/>
       <use xlink:href="#DejaVuSans-42" transform="translate(258.59375 0)"/>
      </g>
     </g>
    </g>
    <g id="ytick_7">
     <g id="line2d_15">
      <path d="M 257.045385 276.958822 
C 257.045385 276.958822 257.045385 276.958822 257.045385 276.958822 
C 257.045385 276.958822 257.045385 276.958822 257.045385 276.958822 
C 257.045385 276.958822 257.045385 276.958822 257.045385 276.958822 
C 257.045385 276.958822 257.045385 276.958822 257.045385 276.958822 
C 257.045385 276.958822 257.045385 276.958822 257.045385 276.958822 
C 257.045385 276.958822 257.045385 276.958822 257.045385 276.958822 
C 257.045385 276.958822 257.045385 276.958822 257.045385 276.958822 
C 257.045385 276.958822 257.045385 276.958822 257.045385 276.958822 
C 257.045385 276.958822 257.045385 276.958822 257.045385 276.958822 
C 257.045385 276.958822 257.045385 276.958822 257.045385 276.958822 
C 257.045385 276.958822 257.045385 276.958822 257.045385 276.958822 
C 257.045385 276.958822 257.045385 276.958822 257.045385 276.958822 
C 257.045385 276.958822 257.045385 276.958822 257.045385 276.958822 
C 257.045385 276.958822 257.045385 276.958822 257.045385 276.958822 
C 257.045385 276.958822 257.045385 276.958822 257.045385 276.958822 
C 257.045385 276.958822 257.045385 276.958822 257.045385 276.958822 
" clip-path="url(#pc8212b7f87)" style="fill: none; stroke: #b0b0b0; stroke-opacity: 0.3; stroke-width: 0.8; stroke-linecap: square"/>
     </g>
     <g id="text_15">
      <!-- -30 dB -->
      <g transform="translate(257.045385 274.879135) scale(0.1 -0.1)">
       <use xlink:href="#DejaVuSans-2d"/>
       <use xlink:href="#DejaVuSans-33" transform="translate(36.083984 0)"/>
       <use xlink:href="#DejaVuSans-30" transform="translate(99.707031 0)"/>
       <use xlink:href="#DejaVuSans-20" transform="translate(163.330078 0)"/>
       <use xlink:href="#DejaVuSans-64" transform="translate(195.117188 0)"/>
       <use xlink:href="#DejaVuSans-42" transform="translate(258.59375 0)"/>
      </g>
     </g>
    </g>
   </g>
   <g id="line2d_16">
    <path d="M 455.075844 276.958822 
L 455.069834 283.873989 
L 454.821637 290.788685 
L 454.318889 297.693103 
L 453.549201 304.575633 
L 452.502022 311.423101 
L 451.172256 318.221763 
L 449.567994 324.9601 
L 447.725719 331.635528 
L 442.425015 349.981801 
L 441.328986 355.18257 
L 440.525115 360.575353 
L 439.983577 366.18374 
L 439.067372 377.855258 
L 438.556486 381.754305 
L 437.820447 385.579438 
L 436.797171 389.280204 
L 435.438253 392.808506 
L 433.71091 396.121224 
L 432.703279 397.685148 
L 431.598612 399.182308 
L 430.397356 400.609582 
L 429.100933 401.964495 
L 427.711712 403.245261 
L 426.232988 404.450826 
L 423.024665 406.636048 
L 419.519638 408.527878 
L 415.773991 410.147937 
L 411.85412 411.532003 
L 407.833517 412.729067 
L 399.790658 414.80633 
L 394.016619 416.341763 
L 390.376042 417.460019 
L 386.92429 418.696776 
L 383.657813 420.068139 
L 380.557636 421.573088 
L 376.15565 424.04775 
L 371.956031 426.713292 
L 365.158778 431.360749 
L 355.635668 437.843543 
L 350.072145 441.383064 
L 344.385826 444.738249 
L 338.564803 447.867836 
L 334.107583 450.043353 
L 329.572044 452.053666 
L 324.960157 453.882852 
L 320.275592 455.515419 
L 315.523658 456.936442 
L 310.711228 458.131673 
L 305.84665 459.087622 
L 300.939656 459.791621 
L 296.001273 460.231866 
L 291.043728 460.397464 
L 286.080366 460.278479 
L 281.125572 459.866003 
L 276.194686 459.152252 
L 271.303923 458.130729 
L 266.470276 456.796451 
L 261.711388 455.146303 
L 257.045385 453.179548 
L 252.490612 450.898568 
L 248.065254 448.309925 
L 243.786742 445.425859 
L 239.670861 442.266379 
L 235.730412 438.862114 
L 231.97325 435.25805 
L 228.399501 431.518179 
L 222.812981 425.235655 
L 218.58079 420.510646 
L 216.493277 418.380831 
L 214.390158 416.477784 
L 212.240528 414.853994 
L 210.011365 413.555535 
L 207.66986 412.616962 
L 205.186144 412.056765 
L 202.535923 411.874474 
L 199.702494 412.050209 
L 196.677713 412.546833 
L 193.461852 413.31415 
L 188.29798 414.844786 
L 170.883507 420.356269 
L 164.662965 421.970175 
L 160.458882 422.88511 
L 156.230993 423.644672 
L 151.997126 424.23105 
L 147.774347 424.630155 
L 143.578988 424.83111 
L 139.426663 424.825822 
L 135.332269 424.608638 
L 131.30997 424.176078 
L 127.373156 423.526615 
L 123.534394 422.660502 
L 119.805366 421.579627 
L 116.196795 420.287389 
L 112.718362 418.788593 
L 109.37862 417.08935 
L 106.184904 415.196985 
L 103.143235 413.119942 
L 100.258235 410.867699 
L 97.533032 408.450659 
L 94.969184 405.880054 
L 92.566614 403.167823 
L 90.32356 400.326483 
L 88.23656 397.368987 
L 86.300464 394.308555 
L 84.508498 391.158497 
L 82.072287 386.294149 
L 79.908009 381.300711 
L 77.977416 376.217819 
L 76.239916 371.080192 
L 74.154936 364.193092 
L 71.806374 355.588118 
L 68.809135 343.616775 
L 66.062916 331.722164 
L 63.950338 321.538327 
L 62.415579 313.031325 
L 61.128667 304.493122 
L 60.299047 297.637696 
L 59.661459 290.761251 
L 59.227666 283.866769 
L 59.009275 276.958822 
L 59.018458 270.04357 
L 59.268123 263.128889 
L 59.771655 256.224518 
L 60.542338 249.34212 
L 61.592619 242.495226 
L 62.5704 237.39244 
L 63.715252 232.325044 
L 65.029801 227.300216 
L 66.515285 222.325195 
L 68.171038 217.40697 
L 69.993656 212.551747 
L 71.97568 207.764095 
L 74.841967 201.487695 
L 77.910179 195.322206 
L 86.48686 178.486812 
L 88.58168 173.724131 
L 90.495583 168.800117 
L 92.251983 163.699455 
L 96.885095 149.561576 
L 98.249225 146.05737 
L 99.776942 142.638883 
L 101.500565 139.34439 
L 103.444682 136.20971 
L 105.625406 133.266628 
L 108.050187 130.541649 
L 110.718 128.054993 
L 113.619768 125.819758 
L 116.738932 123.841198 
L 120.052135 122.116121 
L 123.530051 120.632452 
L 127.138428 119.369082 
L 130.839422 118.296182 
L 136.47768 116.960075 
L 154.638999 113.074347 
L 159.653422 111.620078 
L 164.475182 109.957755 
L 170.697336 107.491234 
L 186.001651 101.119411 
L 190.663442 99.412251 
L 195.382992 97.878231 
L 200.16123 96.545332 
L 204.994289 95.435078 
L 209.875058 94.5647 
L 214.794146 93.948601 
L 219.740458 93.599246 
L 224.70152 93.52765 
L 229.663687 93.743601 
L 234.612265 94.255723 
L 239.53162 95.071421 
L 244.405268 96.196732 
L 249.215984 97.636064 
L 253.945941 99.391808 
L 258.576907 101.463756 
L 263.090539 103.848261 
L 267.468828 106.537033 
L 271.694784 109.51543 
L 275.753471 112.760059 
L 279.633574 116.235504 
L 283.329697 119.88997 
L 287.980071 124.909984 
L 295.534534 133.315363 
L 297.638423 135.394075 
L 299.766728 137.223604 
L 301.953653 138.745386 
L 304.235868 139.907707 
L 306.64975 140.67195 
L 307.916535 140.897751 
L 310.587288 141.034782 
L 313.457867 140.767043 
L 316.539568 140.131569 
L 319.833123 139.183705 
L 325.149022 137.325675 
L 338.9412 132.20846 
L 345.234684 130.187181 
L 349.490413 129.015852 
L 353.764527 128.024405 
L 358.033166 127.23828 
L 362.273978 126.676816 
L 366.466152 126.354057 
L 370.590438 126.279448 
L 374.629167 126.458444 
L 378.566291 126.893001 
L 382.387429 127.581991 
L 386.079947 128.521539 
L 389.633037 129.705317 
L 393.037829 131.124781 
L 396.28749 132.769402 
L 399.377342 134.626866 
L 402.304955 136.683286 
L 405.070235 138.923417 
L 407.675462 141.330892 
L 410.125288 143.888493 
L 412.426664 146.578449 
L 414.588676 149.382781 
L 417.594797 153.764926 
L 420.355266 158.307248 
L 422.916812 162.958549 
L 426.10172 169.258059 
L 429.838433 177.19671 
L 434.099556 186.745216 
L 438.141958 196.329433 
L 441.286822 204.38419 
L 443.611569 210.892272 
L 445.738469 217.464122 
L 447.651587 224.099045 
L 449.343826 230.792051 
L 450.814501 237.53605 
L 452.066359 244.323504 
L 453.102869 251.147365 
L 453.926179 258.001358 
L 454.53583 264.879789 
L 454.92818 271.777079 
L 455.04085 275.230942 
L 455.04085 275.230942 
" clip-path="url(#pc8212b7f87)" style="fill: none; stroke: #1f77b4; stroke-width: 2.2; stroke-linecap: square"/>
   </g>
   <g id="line2d_17">
    <path d="M 257.045385 276.958822 
L 363.617592 461.5473 
" clip-path="url(#pc8212b7f87)" style="fill: none; stroke: #d62728; stroke-opacity: 0.9; stroke-width: 1.8; stroke-linecap: square"/>
   </g>
   <g id="patch_4">
    <path d="M 480.84702 276.958822 
C 480.84702 247.569461 475.057957 218.465874 463.811135 191.313645 
C 452.564313 164.161415 436.078456 139.488586 415.297039 118.707169 
C 394.515622 97.925752 369.842792 81.439894 342.690563 70.193073 
C 315.538333 58.946251 286.434746 53.157187 257.045385 53.157187 
C 227.656024 53.157187 198.552437 58.946251 171.400207 70.193073 
C 144.247978 81.439894 119.575148 97.925752 98.793731 118.707169 
C 78.012314 139.488586 61.526457 164.161415 50.279635 191.313645 
C 39.032813 218.465874 33.24375 247.569461 33.24375 276.958822 
C 33.24375 306.348184 39.032813 335.451771 50.279635 362.604 
C 61.526457 389.75623 78.012314 414.429059 98.793731 435.210476 
C 119.575148 455.991893 144.247978 472.477751 171.400207 483.724572 
C 198.552437 494.971394 227.656024 500.760457 257.045385 500.760457 
C 286.434746 500.760457 315.538333 494.971394 342.690563 483.724572 
C 369.842792 472.477751 394.515622 455.991893 415.297039 435.210476 
C 436.078456 414.429059 452.564313 389.75623 463.811135 362.604 
C 475.057957 335.451771 480.84702 306.348184 480.84702 276.958822 
" style="fill: none; stroke: #000000; stroke-width: 0.8; stroke-linejoin: miter; stroke-linecap: square"/>
   </g>
   <g id="patch_5">
    <path d="M 379.245912 485.039571 
Q 371.985954 474.126505 365.654891 464.60974 
" style="fill: none; stroke: #d62728; stroke-width: 1.5; stroke-linecap: round"/>
    <path d="M 366.205247 469.047882 
L 365.654891 464.60974 
L 369.535619 466.83234 
z
" style="fill: #d62728; stroke: #d62728; stroke-width: 1.5; stroke-linecap: round"/>
   </g>
   <g id="text_16">
    <!-- Observer angle θ -->
    <g style="fill: #d62728" transform="translate(341.883596 496.385308) scale(0.1 -0.1)">
     <defs>
      <path id="DejaVuSans-4f" d="M 2522 4238 
Q 1834 4238 1429 3725 
Q 1025 3213 1025 2328 
Q 1025 1447 1429 934 
Q 1834 422 2522 422 
Q 3209 422 3611 934 
Q 4013 1447 4013 2328 
Q 4013 3213 3611 3725 
Q 3209 4238 2522 4238 
z
M 2522 4750 
Q 3503 4750 4090 4092 
Q 4678 3434 4678 2328 
Q 4678 1225 4090 567 
Q 3503 -91 2522 -91 
Q 1538 -91 948 565 
Q 359 1222 359 2328 
Q 359 3434 948 4092 
Q 1538 4750 2522 4750 
z
" transform="scale(0.015625)"/>
      <path id="DejaVuSans-62" d="M 3116 1747 
Q 3116 2381 2855 2742 
Q 2594 3103 2138 3103 
Q 1681 3103 1420 2742 
Q 1159 2381 1159 1747 
Q 1159 1113 1420 752 
Q 1681 391 2138 391 
Q 2594 391 2855 752 
Q 3116 1113 3116 1747 
z
M 1159 2969 
Q 1341 3281 1617 3432 
Q 1894 3584 2278 3584 
Q 2916 3584 3314 3078 
Q 3713 2572 3713 1747 
Q 3713 922 3314 415 
Q 2916 -91 2278 -91 
Q 1894 -91 1617 61 
Q 1341 213 1159 525 
L 1159 0 
L 581 0 
L 581 4863 
L 1159 4863 
L 1159 2969 
z
" transform="scale(0.015625)"/>
      <path id="DejaVuSans-73" d="M 2834 3397 
L 2834 2853 
Q 2591 2978 2328 3040 
Q 2066 3103 1784 3103 
Q 1356 3103 1142 2972 
Q 928 2841 928 2578 
Q 928 2378 1081 2264 
Q 1234 2150 1697 2047 
L 1894 2003 
Q 2506 1872 2764 1633 
Q 3022 1394 3022 966 
Q 3022 478 2636 193 
Q 2250 -91 1575 -91 
Q 1294 -91 989 -36 
Q 684 19 347 128 
L 347 722 
Q 666 556 975 473 
Q 1284 391 1588 391 
Q 1994 391 2212 530 
Q 2431 669 2431 922 
Q 2431 1156 2273 1281 
Q 2116 1406 1581 1522 
L 1381 1569 
Q 847 1681 609 1914 
Q 372 2147 372 2553 
Q 372 3047 722 3315 
Q 1072 3584 1716 3584 
Q 2034 3584 2315 3537 
Q 2597 3491 2834 3397 
z
" transform="scale(0.015625)"/>
      <path id="DejaVuSans-65" d="M 3597 1894 
L 3597 1613 
L 953 1613 
Q 991 1019 1311 708 
Q 1631 397 2203 397 
Q 2534 397 2845 478 
Q 3156 559 3463 722 
L 3463 178 
Q 3153 47 2828 -22 
Q 2503 -91 2169 -91 
Q 1331 -91 842 396 
Q 353 884 353 1716 
Q 353 2575 817 3079 
Q 1281 3584 2069 3584 
Q 2775 3584 3186 3129 
Q 3597 2675 3597 1894 
z
M 3022 2063 
Q 3016 2534 2758 2815 
Q 2500 3097 2075 3097 
Q 1594 3097 1305 2825 
Q 1016 2553 972 2059 
L 3022 2063 
z
" transform="scale(0.015625)"/>
      <path id="DejaVuSans-72" d="M 2631 2963 
Q 2534 3019 2420 3045 
Q 2306 3072 2169 3072 
Q 1681 3072 1420 2755 
Q 1159 2438 1159 1844 
L 1159 0 
L 581 0 
L 581 3500 
L 1159 3500 
L 1159 2956 
Q 1341 3275 1631 3429 
Q 1922 3584 2338 3584 
Q 2397 3584 2469 3576 
Q 2541 3569 2628 3553 
L 2631 2963 
z
" transform="scale(0.015625)"/>
      <path id="DejaVuSans-76" d="M 191 3500 
L 800 3500 
L 1894 563 
L 2988 3500 
L 3597 3500 
L 2284 0 
L 1503 0 
L 191 3500 
z
" transform="scale(0.015625)"/>
      <path id="DejaVuSans-61" d="M 2194 1759 
Q 1497 1759 1228 1600 
Q 959 1441 959 1056 
Q 959 750 1161 570 
Q 1363 391 1709 391 
Q 2188 391 2477 730 
Q 2766 1069 2766 1631 
L 2766 1759 
L 2194 1759 
z
M 3341 1997 
L 3341 0 
L 2766 0 
L 2766 531 
Q 2569 213 2275 61 
Q 1981 -91 1556 -91 
Q 1019 -91 701 211 
Q 384 513 384 1019 
Q 384 1609 779 1909 
Q 1175 2209 1959 2209 
L 2766 2209 
L 2766 2266 
Q 2766 2663 2505 2880 
Q 2244 3097 1772 3097 
Q 1472 3097 1187 3025 
Q 903 2953 641 2809 
L 641 3341 
Q 956 3463 1253 3523 
Q 1550 3584 1831 3584 
Q 2591 3584 2966 3190 
Q 3341 2797 3341 1997 
z
" transform="scale(0.015625)"/>
      <path id="DejaVuSans-6e" d="M 3513 2113 
L 3513 0 
L 2938 0 
L 2938 2094 
Q 2938 2591 2744 2837 
Q 2550 3084 2163 3084 
Q 1697 3084 1428 2787 
Q 1159 2491 1159 1978 
L 1159 0 
L 581 0 
L 581 3500 
L 1159 3500 
L 1159 2956 
Q 1366 3272 1645 3428 
Q 1925 3584 2291 3584 
Q 2894 3584 3203 3211 
Q 3513 2838 3513 2113 
z
" transform="scale(0.015625)"/>
      <path id="DejaVuSans-67" d="M 2906 1791 
Q 2906 2416 2648 2759 
Q 2391 3103 1925 3103 
Q 1463 3103 1205 2759 
Q 947 2416 947 1791 
Q 947 1169 1205 825 
Q 1463 481 1925 481 
Q 2391 481 2648 825 
Q 2906 1169 2906 1791 
z
M 3481 434 
Q 3481 -459 3084 -895 
Q 2688 -1331 1869 -1331 
Q 1566 -1331 1297 -1286 
Q 1028 -1241 775 -1147 
L 775 -588 
Q 1028 -725 1275 -790 
Q 1522 -856 1778 -856 
Q 2344 -856 2625 -561 
Q 2906 -266 2906 331 
L 2906 616 
Q 2728 306 2450 153 
Q 2172 0 1784 0 
Q 1141 0 747 490 
Q 353 981 353 1791 
Q 353 2603 747 3093 
Q 1141 3584 1784 3584 
Q 2172 3584 2450 3431 
Q 2728 3278 2906 2969 
L 2906 3500 
L 3481 3500 
L 3481 434 
z
" transform="scale(0.015625)"/>
      <path id="DejaVuSans-6c" d="M 603 4863 
L 1178 4863 
L 1178 0 
L 603 0 
L 603 4863 
z
" transform="scale(0.015625)"/>
      <path id="DejaVuSans-3b8" d="M 2953 2219 
L 963 2219 
Q 1009 1284 1225 888 
Q 1494 400 1959 400 
Q 2428 400 2688 891 
Q 2916 1322 2953 2219 
z
M 2944 2750 
Q 2856 3638 2688 3950 
Q 2419 4444 1959 4444 
Q 1481 4444 1228 3956 
Q 1028 3563 969 2750 
L 2944 2750 
z
M 1959 4913 
Q 2709 4913 3138 4250 
Q 3566 3591 3566 2422 
Q 3566 1256 3138 594 
Q 2709 -72 1959 -72 
Q 1206 -72 781 594 
Q 353 1256 353 2422 
Q 353 3591 781 4250 
Q 1206 4913 1959 4913 
z
" transform="scale(0.015625)"/>
     </defs>
     <use xlink:href="#DejaVuSans-4f"/>
     <use xlink:href="#DejaVuSans-62" transform="translate(78.710938 0)"/>
     <use xlink:href="#DejaVuSans-73" transform="translate(142.1875 0)"/>
     <use xlink:href="#DejaVuSans-65" transform="translate(194.287109 0)"/>
     <use xlink:href="#DejaVuSans-72" transform="translate(255.810547 0)"/>
     <use xlink:href="#DejaVuSans-76" transform="translate(296.923828 0)"/>
     <use xlink:href="#DejaVuSans-65" transform="translate(356.103516 0)"/>
     <use xlink:href="#DejaVuSans-72" transform="translate(417.626953 0)"/>
     <use xlink:href="#DejaVuSans-20" transform="translate(458.740234 0)"/>
     <use xlink:href="#DejaVuSans-61" transform="translate(490.527344 0)"/>
     <use xlink:href="#DejaVuSans-6e" transform="translate(551.806641 0)"/>
     <use xlink:href="#DejaVuSans-67" transform="translate(615.185547 0)"/>
     <use xlink:href="#DejaVuSans-6c" transform="translate(678.662109 0)"/>
     <use xlink:href="#DejaVuSans-65" transform="translate(706.445312 0)"/>
     <use xlink:href="#DejaVuSans-20" transform="translate(767.96875 0)"/>
     <use xlink:href="#DejaVuSans-3b8" transform="translate(799.755859 0)"/>
    </g>
   </g>
   <g id="text_17">
    <!-- Illustrative RCS Pattern vs Observation Angle -->
    <g transform="translate(121.97976 16.318125) scale(0.12 -0.12)">
     <defs>
      <path id="DejaVuSans-49" d="M 628 4666 
L 1259 4666 
L 1259 0 
L 628 0 
L 628 4666 
z
" transform="scale(0.015625)"/>
      <path id="DejaVuSans-75" d="M 544 1381 
L 544 3500 
L 1119 3500 
L 1119 1403 
Q 1119 906 1312 657 
Q 1506 409 1894 409 
Q 2359 409 2629 706 
Q 2900 1003 2900 1516 
L 2900 3500 
L 3475 3500 
L 3475 0 
L 2900 0 
L 2900 538 
Q 2691 219 2414 64 
Q 2138 -91 1772 -91 
Q 1169 -91 856 284 
Q 544 659 544 1381 
z
M 1991 3584 
L 1991 3584 
z
" transform="scale(0.015625)"/>
      <path id="DejaVuSans-74" d="M 1172 4494 
L 1172 3500 
L 2356 3500 
L 2356 3053 
L 1172 3053 
L 1172 1153 
Q 1172 725 1289 603 
Q 1406 481 1766 481 
L 2356 481 
L 2356 0 
L 1766 0 
Q 1100 0 847 248 
Q 594 497 594 1153 
L 594 3053 
L 172 3053 
L 172 3500 
L 594 3500 
L 594 4494 
L 1172 4494 
z
" transform="scale(0.015625)"/>
      <path id="DejaVuSans-69" d="M 603 3500 
L 1178 3500 
L 1178 0 
L 603 0 
L 603 3500 
z
M 603 4863 
L 1178 4863 
L 1178 4134 
L 603 4134 
L 603 4863 
z
" transform="scale(0.015625)"/>
      <path id="DejaVuSans-52" d="M 2841 2188 
Q 3044 2119 3236 1894 
Q 3428 1669 3622 1275 
L 4263 0 
L 3584 0 
L 2988 1197 
Q 2756 1666 2539 1819 
Q 2322 1972 1947 1972 
L 1259 1972 
L 1259 0 
L 628 0 
L 628 4666 
L 2053 4666 
Q 2853 4666 3247 4331 
Q 3641 3997 3641 3322 
Q 3641 2881 3436 2590 
Q 3231 2300 2841 2188 
z
M 1259 4147 
L 1259 2491 
L 2053 2491 
Q 2509 2491 2742 2702 
Q 2975 2913 2975 3322 
Q 2975 3731 2742 3939 
Q 2509 4147 2053 4147 
L 1259 4147 
z
" transform="scale(0.015625)"/>
      <path id="DejaVuSans-43" d="M 4122 4306 
L 4122 3641 
Q 3803 3938 3442 4084 
Q 3081 4231 2675 4231 
Q 1875 4231 1450 3742 
Q 1025 3253 1025 2328 
Q 1025 1406 1450 917 
Q 1875 428 2675 428 
Q 3081 428 3442 575 
Q 3803 722 4122 1019 
L 4122 359 
Q 3791 134 3420 21 
Q 3050 -91 2638 -91 
Q 1578 -91 968 557 
Q 359 1206 359 2328 
Q 359 3453 968 4101 
Q 1578 4750 2638 4750 
Q 3056 4750 3426 4639 
Q 3797 4528 4122 4306 
z
" transform="scale(0.015625)"/>
      <path id="DejaVuSans-53" d="M 3425 4513 
L 3425 3897 
Q 3066 4069 2747 4153 
Q 2428 4238 2131 4238 
Q 1616 4238 1336 4038 
Q 1056 3838 1056 3469 
Q 1056 3159 1242 3001 
Q 1428 2844 1947 2747 
L 2328 2669 
Q 3034 2534 3370 2195 
Q 3706 1856 3706 1288 
Q 3706 609 3251 259 
Q 2797 -91 1919 -91 
Q 1588 -91 1214 -16 
Q 841 59 441 206 
L 441 856 
Q 825 641 1194 531 
Q 1563 422 1919 422 
Q 2459 422 2753 634 
Q 3047 847 3047 1241 
Q 3047 1584 2836 1778 
Q 2625 1972 2144 2069 
L 1759 2144 
Q 1053 2284 737 2584 
Q 422 2884 422 3419 
Q 422 4038 858 4394 
Q 1294 4750 2059 4750 
Q 2388 4750 2728 4690 
Q 3069 4631 3425 4513 
z
" transform="scale(0.015625)"/>
      <path id="DejaVuSans-50" d="M 1259 4147 
L 1259 2394 
L 2053 2394 
Q 2494 2394 2734 2622 
Q 2975 2850 2975 3272 
Q 2975 3691 2734 3919 
Q 2494 4147 2053 4147 
L 1259 4147 
z
M 628 4666 
L 2053 4666 
Q 2838 4666 3239 4311 
Q 3641 3956 3641 3272 
Q 3641 2581 3239 2228 
Q 2838 1875 2053 1875 
L 1259 1875 
L 1259 0 
L 628 0 
L 628 4666 
z
" transform="scale(0.015625)"/>
      <path id="DejaVuSans-6f" d="M 1959 3097 
Q 1497 3097 1228 2736 
Q 959 2375 959 1747 
Q 959 1119 1226 758 
Q 1494 397 1959 397 
Q 2419 397 2687 759 
Q 2956 1122 2956 1747 
Q 2956 2369 2687 2733 
Q 2419 3097 1959 3097 
z
M 1959 3584 
Q 2709 3584 3137 3096 
Q 3566 2609 3566 1747 
Q 3566 888 3137 398 
Q 2709 -91 1959 -91 
Q 1206 -91 779 398 
Q 353 888 353 1747 
Q 353 2609 779 3096 
Q 1206 3584 1959 3584 
z
" transform="scale(0.015625)"/>
      <path id="DejaVuSans-41" d="M 2188 4044 
L 1331 1722 
L 3047 1722 
L 2188 4044 
z
M 1831 4666 
L 2547 4666 
L 4325 0 
L 3669 0 
L 3244 1197 
L 1141 1197 
L 716 0 
L 50 0 
L 1831 4666 
z
" transform="scale(0.015625)"/>
     </defs>
     <use xlink:href="#DejaVuSans-49"/>
     <use xlink:href="#DejaVuSans-6c" transform="translate(29.492188 0)"/>
     <use xlink:href="#DejaVuSans-6c" transform="translate(57.275391 0)"/>
     <use xlink:href="#DejaVuSans-75" transform="translate(85.058594 0)"/>
     <use xlink:href="#DejaVuSans-73" transform="translate(148.4375 0)"/>
     <use xlink:href="#DejaVuSans-74" transform="translate(200.537109 0)"/>
     <use xlink:href="#DejaVuSans-72" transform="translate(239.746094 0)"/>
     <use xlink:href="#DejaVuSans-61" transform="translate(280.859375 0)"/>
     <use xlink:href="#DejaVuSans-74" transform="translate(342.138672 0)"/>
     <use xlink:href="#DejaVuSans-69" transform="translate(381.347656 0)"/>
     <use xlink:href="#DejaVuSans-76" transform="translate(409.130859 0)"/>
     <use xlink:href="#DejaVuSans-65" transform="translate(468.310547 0)"/>
     <use xlink:href="#DejaVuSans-20" transform="translate(529.833984 0)"/>
     <use xlink:href="#DejaVuSans-52" transform="translate(561.621094 0)"/>
     <use xlink:href="#DejaVuSans-43" transform="translate(626.103516 0)"/>
     <use xlink:href="#DejaVuSans-53" transform="translate(695.927734 0)"/>
     <use xlink:href="#DejaVuSans-20" transform="translate(759.404297 0)"/>
     <use xlink:href="#DejaVuSans-50" transform="translate(791.191406 0)"/>
     <use xlink:href="#DejaVuSans-61" transform="translate(846.994141 0)"/>
     <use xlink:href="#DejaVuSans-74" transform="translate(908.273438 0)"/>
     <use xlink:href="#DejaVuSans-74" transform="translate(947.482422 0)"/>
     <use xlink:href="#DejaVuSans-65" transform="translate(986.691406 0)"/>
     <use xlink:href="#DejaVuSans-72" transform="translate(1048.214844 0)"/>
     <use xlink:href="#DejaVuSans-6e" transform="translate(1087.578125 0)"/>
     <use xlink:href="#DejaVuSans-20" transform="translate(1150.957031 0)"/>
     <use xlink:href="#DejaVuSans-76" transform="translate(1182.744141 0)"/>
     <use xlink:href="#DejaVuSans-73" transform="translate(1241.923828 0)"/>
     <use xlink:href="#DejaVuSans-20" transform="translate(1294.023438 0)"/>
     <use xlink:href="#DejaVuSans-4f" transform="translate(1325.810547 0)"/>
     <use xlink:href="#DejaVuSans-62" transform="translate(1404.521484 0)"/>
     <use xlink:href="#DejaVuSans-73" transform="translate(1467.998047 0)"/>
     <use xlink:href="#DejaVuSans-65" transform="translate(1520.097656 0)"/>
     <use xlink:href="#DejaVuSans-72" transform="translate(1581.621094 0)"/>
     <use xlink:href="#DejaVuSans-76" transform="translate(1622.734375 0)"/>
     <use xlink:href="#DejaVuSans-61" transform="translate(1681.914062 0)"/>
     <use xlink:href="#DejaVuSans-74" transform="translate(1743.193359 0)"/>
     <use xlink:href="#DejaVuSans-69" transform="translate(1782.402344 0)"/>
     <use xlink:href="#DejaVuSans-6f" transform="translate(1810.185547 0)"/>
     <use xlink:href="#DejaVuSans-6e" transform="translate(1871.367188 0)"/>
     <use xlink:href="#DejaVuSans-20" transform="translate(1934.746094 0)"/>
     <use xlink:href="#DejaVuSans-41" transform="translate(1966.533203 0)"/>
     <use xlink:href="#DejaVuSans-6e" transform="translate(2034.941406 0)"/>
     <use xlink:href="#DejaVuSans-67" transform="translate(2098.320312 0)"/>
     <use xlink:href="#DejaVuSans-6c" transform="translate(2161.796875 0)"/>
     <use xlink:href="#DejaVuSans-65" transform="translate(2189.580078 0)"/>
    </g>
   </g>
   <g id="patch_6">
    <path d="M 218.999107 263.530724 
L 251.674146 258.159485 
L 251.674146 268.901964 
L 218.999107 274.273203 
L 295.091663 274.273203 
L 262.416624 268.901964 
L 262.416624 258.159485 
L 295.091663 263.530724 
L 295.091663 267.111551 
L 218.999107 267.111551 
z
" clip-path="url(#pc8212b7f87)" style="fill: #111111; opacity: 0.95"/>
   </g>
   <g id="patch_7">
    <path d="M 257.045385 232.198495 
L 261.521418 252.340643 
L 261.521418 270.244773 
L 266.892657 279.196839 
L 260.626211 279.196839 
L 260.626211 285.910888 
L 257.045385 285.910888 
L 253.464559 285.910888 
L 253.464559 279.196839 
L 247.198113 279.196839 
L 252.569352 270.244773 
L 252.569352 252.340643 
z
" clip-path="url(#pc8212b7f87)" style="fill: #111111; opacity: 0.95"/>
   </g>
   <g id="patch_8">
    <path d="M 257.045385 232.198495 
L 261.521418 252.340643 
L 261.521418 270.244773 
L 266.892657 279.196839 
L 260.626211 279.196839 
L 260.626211 285.910888 
L 257.045385 285.910888 
L 253.464559 285.910888 
L 253.464559 279.196839 
L 247.198113 279.196839 
L 252.569352 270.244773 
L 252.569352 252.340643 
L 257.045385 232.198495 
z
" clip-path="url(#pc8212b7f87)" style="fill: none; opacity: 0.9; stroke: #ffffff; stroke-linejoin: miter"/>
   </g>
  </g>
 </g>
 <defs>
  <clipPath id="pc8212b7f87">
   <path d="M 480.84702 276.958822 
C 480.84702 247.569461 475.057957 218.465874 463.811135 191.313645 
C 452.564313 164.161415 436.078456 139.488586 415.297039 118.707169 
C 394.515622 97.925752 369.842792 81.439894 342.690563 70.193073 
C 315.538333 58.946251 286.434746 53.157187 257.045385 53.157187 
C 227.656024 53.157187 198.552437 58.946251 171.400207 70.193073 
C 144.247978 81.439894 119.575148 97.925752 98.793731 118.707169 
C 78.012314 139.488586 61.526457 164.161415 50.279635 191.313645 
C 39.032813 218.465874 33.24375 247.569461 33.24375 276.958822 
C 33.24375 306.348184 39.032813 335.451771 50.279635 362.604 
C 61.526457 389.75623 78.012314 414.429059 98.793731 435.210476 
C 119.575148 455.991893 144.247978 472.477751 171.400207 483.724572 
C 198.552437 494.971394 227.656024 500.760457 257.045385 500.760457 
C 286.434746 500.760457 315.538333 494.971394 342.690563 483.724572 
C 369.842792 472.477751 394.515622 455.991893 415.297039 435.210476 
C 436.078456 414.429059 452.564313 389.75623 463.811135 362.604 
C 475.057957 335.451771 480.84702 306.348184 480.84702 276.958822 
M 257.045385 276.958822 
C 257.045385 276.958822 257.045385 276.958822 257.045385 276.958822 
C 257.045385 276.958822 257.045385 276.958822 257.045385 276.958822 
C 257.045385 276.958822 257.045385 276.958822 257.045385 276.958822 
C 257.045385 276.958822 257.045385 276.958822 257.045385 276.958822 
C 257.045385 276.958822 257.045385 276.958822 257.045385 276.958822 
C 257.045385 276.958822 257.045385 276.958822 257.045385 276.958822 
C 257.045385 276.958822 257.045385 276.958822 257.045385 276.958822 
C 257.045385 276.958822 257.045385 276.958822 257.045385 276.958822 
C 257.045385 276.958822 257.045385 276.958822 257.045385 276.958822 
C 257.045385 276.958822 257.045385 276.958822 257.045385 276.958822 
C 257.045385 276.958822 257.045385 276.958822 257.045385 276.958822 
C 257.045385 276.958822 257.045385 276.958822 257.045385 276.958822 
C 257.045385 276.958822 257.045385 276.958822 257.045385 276.958822 
C 257.045385 276.958822 257.045385 276.958822 257.045385 276.958822 
C 257.045385 276.958822 257.045385 276.958822 257.045385 276.958822 
C 257.045385 276.958822 257.045385 276.958822 257.045385 276.958822 
z
"/>
  </clipPath>
 </defs>
</svg>
