<?xml version="1.0" encoding="UTF-8" standalone="no"?>
<!DOCTYPE svg PUBLIC "-//W3C//DTD SVG 1.1//EN"
 "http://www.w3.org/Graphics/SVG/1.1/DTD/svg11.dtd">
<!-- Generated by graphviz version 2.43.0 (0)
 -->
<!-- Title: RCS_Tech_Tree Pages: 1 -->
<svg width="1835pt" height="3254pt"
 viewBox="0.00 0.00 1835.30 3253.80" xmlns="http://www.w3.org/2000/svg" xmlns:xlink="http://www.w3.org/1999/xlink">
<g id="graph0" class="graph" transform="scale(1 1) rotate(0) translate(86.4 3167.4)">
<title>RCS_Tech_Tree</title>
<polygon fill="#060e18" stroke="transparent" points="-86.4,86.4 -86.4,-3167.4 1748.9,-3167.4 1748.9,86.4 -86.4,86.4"/>
<text text-anchor="middle" x="831.25" y="-3053" font-family="Helvetica,sans-Serif" font-size="30.00" fill="#9ab8d8">Radar Observability Design Maturity</text>
<text text-anchor="middle" x="831.25" y="-3020" font-family="Helvetica,sans-Serif" font-size="30.00" fill="#9ab8d8">★ &#160;Gold border = current project capability &#160;(L0, L1 maturity &#160;· &#160;FDTD solver &#160;· &#160;V1 validation)</text>
<!-- L0 -->
<g id="node1" class="node">
<title>L0</title>
<path fill="#12202e" stroke="#d4a800" stroke-width="4" d="M614.5,-3007C614.5,-3007 77.5,-3007 77.5,-3007 71.5,-3007 65.5,-3001 65.5,-2995 65.5,-2995 65.5,-2712 65.5,-2712 65.5,-2706 71.5,-2700 77.5,-2700 77.5,-2700 614.5,-2700 614.5,-2700 620.5,-2700 626.5,-2706 626.5,-2712 626.5,-2712 626.5,-2995 626.5,-2995 626.5,-3001 620.5,-3007 614.5,-3007"/>
<polygon fill="#12202e" stroke="transparent" points="65.5,-2700 65.5,-3007 626.5,-3007 626.5,-2700 65.5,-2700"/>
<polygon fill="#251a00" stroke="transparent" points="66,-2962.5 66,-3006.5 627,-3006.5 627,-2962.5 66,-2962.5"/>
<text text-anchor="start" x="218.5" y="-2979.9" font-family="Helvetica,sans-Serif" font-size="14.00" fill="#d0e4f8"> &#160;&#160;&#160;</text>
<text text-anchor="start" x="237.5" y="-2979.9" font-family="Helvetica,sans-Serif" font-weight="bold" font-size="22.00" fill="#c09020">◆◆◆   TIER 0   ◆◆◆</text>
<text text-anchor="start" x="464.5" y="-2979.9" font-family="Helvetica,sans-Serif" font-size="14.00" fill="#d0e4f8"> &#160;</text>
<text text-anchor="start" x="82" y="-2929.9" font-family="Helvetica,sans-Serif" font-size="14.00" fill="#d0e4f8"> &#160;&#160;&#160;</text>
<text text-anchor="start" x="101" y="-2929.9" font-family="Helvetica,sans-Serif" font-weight="bold" font-size="22.00" fill="#ffd060">L0 &#160;· &#160;Intuition &amp; Unvalidated Simulation</text>
<text text-anchor="start" x="601" y="-2929.9" font-family="Helvetica,sans-Serif" font-size="14.00" fill="#d0e4f8"> &#160;</text>
<text text-anchor="start" x="82" y="-2877.9" font-family="Helvetica,sans-Serif" font-size="14.00" fill="#d0e4f8"> &#160;&#160;&#160;</text>
<text text-anchor="start" x="101" y="-2877.9" font-family="Helvetica,sans-Serif" font-style="italic" font-size="17.00" fill="#9ab8d8">Unlock: Geometric reasoning + first&#45;run field data</text>
<text text-anchor="start" x="523" y="-2877.9" font-family="Helvetica,sans-Serif" font-size="14.00" fill="#d0e4f8"> &#160;</text>
<text text-anchor="start" x="82" y="-2826.9" font-family="Helvetica,sans-Serif" font-size="14.00" fill="#d0e4f8"> &#160;&#160;&#160;</text>
<text text-anchor="start" x="101" y="-2826.9" font-family="Helvetica,sans-Serif" font-size="17.00" fill="#c8daf0">• Single&#45;aspect plane&#45;wave simulation</text>
<text text-anchor="start" x="82" y="-2809.9" font-family="Helvetica,sans-Serif" font-size="17.00" fill="#c8daf0">• Near&#45;field visualization only</text>
<text text-anchor="start" x="82" y="-2792.9" font-family="Helvetica,sans-Serif" font-size="17.00" fill="#c8daf0">• Manual geometry comparison</text>
<text text-anchor="start" x="118.5" y="-2775.9" font-family="Helvetica,sans-Serif" font-size="17.00" fill="#c8daf0">• No calibrated measurements</text>
<text text-anchor="start" x="379.5" y="-2775.9" font-family="Helvetica,sans-Serif" font-size="14.00" fill="#d0e4f8"> &#160;</text>
<text text-anchor="start" x="82" y="-2722.9" font-family="Helvetica,sans-Serif" font-size="14.00" fill="#d0e4f8"> &#160;&#160;&#160;</text>
<text text-anchor="start" x="101" y="-2722.9" font-family="Helvetica,sans-Serif" font-style="italic" font-size="22.00" fill="#506878">Individual &#160;| &#160;Workstation compute</text>
<text text-anchor="start" x="481" y="-2722.9" font-family="Helvetica,sans-Serif" font-size="14.00" fill="#d0e4f8"> &#160;</text>
</g>
<!-- L1 -->
<g id="node2" class="node">
<title>L1</title>
<path fill="#162435" stroke="#d4a800" stroke-width="4" d="M598.5,-2484C598.5,-2484 93.5,-2484 93.5,-2484 87.5,-2484 81.5,-2478 81.5,-2472 81.5,-2472 81.5,-2172 81.5,-2172 81.5,-2166 87.5,-2160 93.5,-2160 93.5,-2160 598.5,-2160 598.5,-2160 604.5,-2160 610.5,-2166 610.5,-2172 610.5,-2172 610.5,-2472 610.5,-2472 610.5,-2478 604.5,-2484 598.5,-2484"/>
<polygon fill="#162435" stroke="transparent" points="81.5,-2160 81.5,-2484 610.5,-2484 610.5,-2160 81.5,-2160"/>
<polygon fill="#251a00" stroke="transparent" points="82,-2440 82,-2484 611,-2484 611,-2440 82,-2440"/>
<text text-anchor="start" x="218.5" y="-2457.4" font-family="Helvetica,sans-Serif" font-size="14.00" fill="#d0e4f8"> &#160;&#160;&#160;</text>
<text text-anchor="start" x="237.5" y="-2457.4" font-family="Helvetica,sans-Serif" font-weight="bold" font-size="22.00" fill="#c09020">◆◆◆   TIER 1   ◆◆◆</text>
<text text-anchor="start" x="464.5" y="-2457.4" font-family="Helvetica,sans-Serif" font-size="14.00" fill="#d0e4f8"> &#160;</text>
<text text-anchor="start" x="98" y="-2407.4" font-family="Helvetica,sans-Serif" font-size="14.00" fill="#d0e4f8"> &#160;&#160;&#160;</text>
<text text-anchor="start" x="117" y="-2407.4" font-family="Helvetica,sans-Serif" font-weight="bold" font-size="22.00" fill="#ffd060">L1 &#160;· &#160;Spatial Attribution of Scattering</text>
<text text-anchor="start" x="585" y="-2407.4" font-family="Helvetica,sans-Serif" font-size="14.00" fill="#d0e4f8"> &#160;</text>
<text text-anchor="start" x="98" y="-2355.4" font-family="Helvetica,sans-Serif" font-size="14.00" fill="#d0e4f8"> &#160;&#160;&#160;</text>
<text text-anchor="start" x="117" y="-2355.4" font-family="Helvetica,sans-Serif" font-style="italic" font-size="17.00" fill="#9ab8d8">Unlock: “Where is the return coming from?”</text>
<text text-anchor="start" x="488" y="-2355.4" font-family="Helvetica,sans-Serif" font-size="14.00" fill="#d0e4f8"> &#160;</text>
<text text-anchor="start" x="98" y="-2304.4" font-family="Helvetica,sans-Serif" font-size="14.00" fill="#d0e4f8"> &#160;&#160;&#160;</text>
<text text-anchor="start" x="117" y="-2304.4" font-family="Helvetica,sans-Serif" font-size="17.00" fill="#c8daf0">• Backscatter hot&#45;spot spatial mapping</text>
<text text-anchor="start" x="98" y="-2287.4" font-family="Helvetica,sans-Serif" font-size="17.00" fill="#c8daf0">• Feature attribution: edges vs. cavities</text>
<text text-anchor="start" x="98" y="-2270.4" font-family="Helvetica,sans-Serif" font-size="17.00" fill="#c8daf0">• Directional Poynting accumulation</text>
<text text-anchor="start" x="98" y="-2253.4" font-family="Helvetica,sans-Serif" font-size="17.00" fill="#c8daf0">• Repeatable post&#45;processing pipeline</text>
<text text-anchor="start" x="113.5" y="-2236.4" font-family="Helvetica,sans-Serif" font-size="17.00" fill="#c8daf0">• Canonical geometry benchmarking</text>
<text text-anchor="start" x="423.5" y="-2236.4" font-family="Helvetica,sans-Serif" font-size="14.00" fill="#d0e4f8"> &#160;</text>
<text text-anchor="start" x="98" y="-2183.4" font-family="Helvetica,sans-Serif" font-size="14.00" fill="#d0e4f8"> &#160;&#160;&#160;</text>
<text text-anchor="start" x="117" y="-2183.4" font-family="Helvetica,sans-Serif" font-style="italic" font-size="22.00" fill="#506878">1–3 engineers &#160;| &#160;Structured workflow</text>
<text text-anchor="start" x="531" y="-2183.4" font-family="Helvetica,sans-Serif" font-size="14.00" fill="#d0e4f8"> &#160;</text>
</g>
<!-- L0&#45;&gt;L1 -->
<g id="edge1" class="edge">
<title>L0&#45;&gt;L1</title>
<path fill="none" stroke="#4a90d8" stroke-width="3" d="M346,-2699.7C346,-2635.88 346,-2561.43 346,-2495.64"/>
<polygon fill="#4a90d8" stroke="#4a90d8" stroke-width="3" points="349.85,-2495.31 346,-2484.31 342.15,-2495.31 349.85,-2495.31"/>
</g>
<!-- FDTD -->
<g id="node12" class="node">
<title>FDTD</title>
<path fill="#180c22" stroke="#d4a800" stroke-width="3" d="M1135,-2421.5C1135,-2421.5 867,-2421.5 867,-2421.5 861,-2421.5 855,-2415.5 855,-2409.5 855,-2409.5 855,-2234.5 855,-2234.5 855,-2228.5 861,-2222.5 867,-2222.5 867,-2222.5 1135,-2222.5 1135,-2222.5 1141,-2222.5 1147,-2228.5 1147,-2234.5 1147,-2234.5 1147,-2409.5 1147,-2409.5 1147,-2415.5 1141,-2421.5 1135,-2421.5"/>
<text text-anchor="middle" x="1001" y="-2394.9" font-family="Helvetica,sans-Serif" font-size="17.00" fill="#d0a0f8">FDTD</text>
<text text-anchor="middle" x="1001" y="-2375.9" font-family="Helvetica,sans-Serif" font-size="17.00" fill="#d0a0f8">Finite&#45;Difference Time&#45;Domain</text>
<text text-anchor="middle" x="1001" y="-2336.9" font-family="Helvetica,sans-Serif" font-size="17.00" fill="#d0a0f8">+ Field&#45;level physical insight</text>
<text text-anchor="middle" x="1001" y="-2317.9" font-family="Helvetica,sans-Serif" font-size="17.00" fill="#d0a0f8">+ Broadband single&#45;run</text>
<text text-anchor="middle" x="1001" y="-2298.9" font-family="Helvetica,sans-Serif" font-size="17.00" fill="#d0a0f8">+ Cavity / transient physics</text>
<text text-anchor="middle" x="1001" y="-2259.9" font-family="Helvetica,sans-Serif" font-size="17.00" fill="#d0a0f8">− Grid scaling O(N³)</text>
<text text-anchor="middle" x="1001" y="-2240.9" font-family="Helvetica,sans-Serif" font-size="17.00" fill="#d0a0f8">− Large airframe size limits</text>
</g>
<!-- L0&#45;&gt;FDTD -->
<g id="edge18" class="edge">
<title>L0&#45;&gt;FDTD</title>
<path fill="none" stroke="#a060e0" stroke-width="1.2" stroke-dasharray="5,2" d="M539.9,-2695.76C649.73,-2606.97 783.75,-2498.62 878.94,-2421.68"/>
<polygon fill="#a060e0" stroke="#a060e0" stroke-width="1.2" points="538.36,-2694.3 535.01,-2699.7 541,-2697.56 538.36,-2694.3"/>
</g>
<!-- L2 -->
<g id="node3" class="node">
<title>L2</title>
<path fill="#1a2e4a" stroke="#3a80c0" stroke-width="2.5" d="M644,-1944C644,-1944 48,-1944 48,-1944 42,-1944 36,-1938 36,-1932 36,-1932 36,-1632 36,-1632 36,-1626 42,-1620 48,-1620 48,-1620 644,-1620 644,-1620 650,-1620 656,-1626 656,-1632 656,-1632 656,-1932 656,-1932 656,-1938 650,-1944 644,-1944"/>
<polygon fill="#1a2e4a" stroke="transparent" points="36,-1620 36,-1944 656,-1944 656,-1620 36,-1620"/>
<polygon fill="#0e1e38" stroke="transparent" points="36,-1900 36,-1944 656,-1944 656,-1900 36,-1900"/>
<text text-anchor="start" x="218" y="-1917.4" font-family="Helvetica,sans-Serif" font-size="14.00" fill="#d0e4f8"> &#160;&#160;&#160;</text>
<text text-anchor="start" x="237" y="-1917.4" font-family="Helvetica,sans-Serif" font-weight="bold" font-size="22.00" fill="#4888b8">◆◆◆   TIER 2   ◆◆◆</text>
<text text-anchor="start" x="464" y="-1917.4" font-family="Helvetica,sans-Serif" font-size="14.00" fill="#d0e4f8"> &#160;</text>
<text text-anchor="start" x="52" y="-1867.4" font-family="Helvetica,sans-Serif" font-size="14.00" fill="#d0e4f8"> &#160;&#160;&#160;</text>
<text text-anchor="start" x="71" y="-1867.4" font-family="Helvetica,sans-Serif" font-weight="bold" font-size="22.00" fill="#90c8f8">L2 &#160;· &#160;Parametric Observability Exploration</text>
<text text-anchor="start" x="597" y="-1867.4" font-family="Helvetica,sans-Serif" font-size="14.00" fill="#d0e4f8"> &#160;</text>
<text text-anchor="start" x="52" y="-1815.4" font-family="Helvetica,sans-Serif" font-size="14.00" fill="#d0e4f8"> &#160;&#160;&#160;</text>
<text text-anchor="start" x="71" y="-1815.4" font-family="Helvetica,sans-Serif" font-style="italic" font-size="17.00" fill="#9ab8d8">Unlock: “How does it change with angle, frequency, polarization?”</text>
<text text-anchor="start" x="630" y="-1815.4" font-family="Helvetica,sans-Serif" font-size="14.00" fill="#d0e4f8"> &#160;</text>
<text text-anchor="start" x="52" y="-1764.4" font-family="Helvetica,sans-Serif" font-size="14.00" fill="#d0e4f8"> &#160;&#160;&#160;</text>
<text text-anchor="start" x="71" y="-1764.4" font-family="Helvetica,sans-Serif" font-size="17.00" fill="#c8daf0">• Azimuth / elevation aspect sweeps</text>
<text text-anchor="start" x="52" y="-1747.4" font-family="Helvetica,sans-Serif" font-size="17.00" fill="#c8daf0">• Frequency sweep analysis</text>
<text text-anchor="start" x="52" y="-1730.4" font-family="Helvetica,sans-Serif" font-size="17.00" fill="#c8daf0">• Polarization comparison: HH / VV / HV</text>
<text text-anchor="start" x="52" y="-1713.4" font-family="Helvetica,sans-Serif" font-size="17.00" fill="#c8daf0">• Multi&#45;geometry morphology comparison</text>
<text text-anchor="start" x="106.5" y="-1696.4" font-family="Helvetica,sans-Serif" font-size="17.00" fill="#c8daf0">• Scripted batch solver runs</text>
<text text-anchor="start" x="341.5" y="-1696.4" font-family="Helvetica,sans-Serif" font-size="14.00" fill="#d0e4f8"> &#160;</text>
<text text-anchor="start" x="52" y="-1643.4" font-family="Helvetica,sans-Serif" font-size="14.00" fill="#d0e4f8"> &#160;&#160;&#160;</text>
<text text-anchor="start" x="71" y="-1643.4" font-family="Helvetica,sans-Serif" font-style="italic" font-size="22.00" fill="#506878">Dedicated EM team &#160;| &#160;Shared compute cluster</text>
<text text-anchor="start" x="588" y="-1643.4" font-family="Helvetica,sans-Serif" font-size="14.00" fill="#d0e4f8"> &#160;</text>
</g>
<!-- L1&#45;&gt;L2 -->
<g id="edge2" class="edge">
<title>L1&#45;&gt;L2</title>
<path fill="none" stroke="#4a90d8" stroke-width="3" d="M346,-2159.95C346,-2095.42 346,-2020.96 346,-1955.34"/>
<polygon fill="#4a90d8" stroke="#4a90d8" stroke-width="3" points="349.85,-1955.05 346,-1944.05 342.15,-1955.05 349.85,-1955.05"/>
</g>
<!-- L1&#45;&gt;FDTD -->
<g id="edge19" class="edge">
<title>L1&#45;&gt;FDTD</title>
<path fill="none" stroke="#a060e0" stroke-width="1.2" stroke-dasharray="5,2" d="M617.01,-2204.12C696.23,-2193.98 775.46,-2205.17 854.68,-2237.69"/>
<polygon fill="#a060e0" stroke="#a060e0" stroke-width="1.2" points="616.48,-2202.07 610.81,-2204.95 617.04,-2206.23 616.48,-2202.07"/>
</g>
<!-- L1&#45;&gt;FDTD -->
<!-- L3 -->
<g id="node4" class="node">
<title>L3</title>
<path fill="#1c3460" stroke="#3a80c0" stroke-width="2.5" d="M570,-1404C570,-1404 122,-1404 122,-1404 116,-1404 110,-1398 110,-1392 110,-1392 110,-1092 110,-1092 110,-1086 116,-1080 122,-1080 122,-1080 570,-1080 570,-1080 576,-1080 582,-1086 582,-1092 582,-1092 582,-1392 582,-1392 582,-1398 576,-1404 570,-1404"/>
<polygon fill="#1c3460" stroke="transparent" points="110,-1080 110,-1404 582,-1404 582,-1080 110,-1080"/>
<polygon fill="#0e2040" stroke="transparent" points="110,-1360 110,-1404 582,-1404 582,-1360 110,-1360"/>
<text text-anchor="start" x="218" y="-1377.4" font-family="Helvetica,sans-Serif" font-size="14.00" fill="#d0e4f8"> &#160;&#160;&#160;</text>
<text text-anchor="start" x="237" y="-1377.4" font-family="Helvetica,sans-Serif" font-weight="bold" font-size="22.00" fill="#4888b8">◆◆◆   TIER 3   ◆◆◆</text>
<text text-anchor="start" x="464" y="-1377.4" font-family="Helvetica,sans-Serif" font-size="14.00" fill="#d0e4f8"> &#160;</text>
<text text-anchor="start" x="126" y="-1327.4" font-family="Helvetica,sans-Serif" font-size="14.00" fill="#d0e4f8"> &#160;&#160;&#160;</text>
<text text-anchor="start" x="145" y="-1327.4" font-family="Helvetica,sans-Serif" font-weight="bold" font-size="22.00" fill="#70b0e8">L3 &#160;· &#160;Calibrated RCS Engineering</text>
<text text-anchor="start" x="556" y="-1327.4" font-family="Helvetica,sans-Serif" font-size="14.00" fill="#d0e4f8"> &#160;</text>
<text text-anchor="start" x="126" y="-1275.4" font-family="Helvetica,sans-Serif" font-size="14.00" fill="#d0e4f8"> &#160;&#160;&#160;</text>
<text text-anchor="start" x="145" y="-1275.4" font-family="Helvetica,sans-Serif" font-style="italic" font-size="17.00" fill="#9ab8d8">Unlock: “Can we trust the numbers?”</text>
<text text-anchor="start" x="461" y="-1275.4" font-family="Helvetica,sans-Serif" font-size="14.00" fill="#d0e4f8"> &#160;</text>
<text text-anchor="start" x="126" y="-1224.4" font-family="Helvetica,sans-Serif" font-size="14.00" fill="#d0e4f8"> &#160;&#160;&#160;</text>
<text text-anchor="start" x="145" y="-1224.4" font-family="Helvetica,sans-Serif" font-size="17.00" fill="#c8daf0">• Calibrated far&#45;field RCS extraction</text>
<text text-anchor="start" x="126" y="-1207.4" font-family="Helvetica,sans-Serif" font-size="17.00" fill="#c8daf0">• Bistatic scattering pattern analysis</text>
<text text-anchor="start" x="126" y="-1190.4" font-family="Helvetica,sans-Serif" font-size="17.00" fill="#c8daf0">• Polarimetric characterization</text>
<text text-anchor="start" x="126" y="-1173.4" font-family="Helvetica,sans-Serif" font-size="17.00" fill="#c8daf0">• Cross&#45;solver verification</text>
<text text-anchor="start" x="146.5" y="-1156.4" font-family="Helvetica,sans-Serif" font-size="17.00" fill="#c8daf0">• Geometry sensitivity mapping</text>
<text text-anchor="start" x="416.5" y="-1156.4" font-family="Helvetica,sans-Serif" font-size="14.00" fill="#d0e4f8"> &#160;</text>
<text text-anchor="start" x="126" y="-1103.4" font-family="Helvetica,sans-Serif" font-size="14.00" fill="#d0e4f8"> &#160;&#160;&#160;</text>
<text text-anchor="start" x="145" y="-1103.4" font-family="Helvetica,sans-Serif" font-style="italic" font-size="22.00" fill="#506878">Multi&#45;discipline team &#160;| &#160;HPC cluster</text>
<text text-anchor="start" x="537" y="-1103.4" font-family="Helvetica,sans-Serif" font-size="14.00" fill="#d0e4f8"> &#160;</text>
</g>
<!-- L2&#45;&gt;L3 -->
<g id="edge3" class="edge">
<title>L2&#45;&gt;L3</title>
<path fill="none" stroke="#4a90d8" stroke-width="3" d="M346,-1619.95C346,-1555.42 346,-1480.96 346,-1415.34"/>
<polygon fill="#4a90d8" stroke="#4a90d8" stroke-width="3" points="349.85,-1415.05 346,-1404.05 342.15,-1415.05 349.85,-1415.05"/>
</g>
<!-- L2&#45;&gt;FDTD -->
<g id="edge20" class="edge">
<title>L2&#45;&gt;FDTD</title>
<path fill="none" stroke="#a060e0" stroke-width="1.2" stroke-dasharray="5,2" d="M547.05,-1948.14C656.25,-2037.83 787.61,-2145.73 880.86,-2222.32"/>
<polygon fill="#a060e0" stroke="#a060e0" stroke-width="1.2" points="548.17,-1946.34 542.2,-1944.15 545.5,-1949.58 548.17,-1946.34"/>
</g>
<!-- FEM -->
<g id="node13" class="node">
<title>FEM</title>
<path fill="#1c1028" stroke="#6a3a98" stroke-width="1.5" d="M961.5,-1341.5C961.5,-1341.5 678.5,-1341.5 678.5,-1341.5 672.5,-1341.5 666.5,-1335.5 666.5,-1329.5 666.5,-1329.5 666.5,-1154.5 666.5,-1154.5 666.5,-1148.5 672.5,-1142.5 678.5,-1142.5 678.5,-1142.5 961.5,-1142.5 961.5,-1142.5 967.5,-1142.5 973.5,-1148.5 973.5,-1154.5 973.5,-1154.5 973.5,-1329.5 973.5,-1329.5 973.5,-1335.5 967.5,-1341.5 961.5,-1341.5"/>
<text text-anchor="middle" x="820" y="-1314.9" font-family="Helvetica,sans-Serif" font-size="17.00" fill="#c090f0">FEM</text>
<text text-anchor="middle" x="820" y="-1295.9" font-family="Helvetica,sans-Serif" font-size="17.00" fill="#c090f0">Finite Element Method</text>
<text text-anchor="middle" x="820" y="-1256.9" font-family="Helvetica,sans-Serif" font-size="17.00" fill="#c090f0">+ Adaptive meshing</text>
<text text-anchor="middle" x="820" y="-1237.9" font-family="Helvetica,sans-Serif" font-size="17.00" fill="#c090f0">+ Complex boundary conditions</text>
<text text-anchor="middle" x="820" y="-1218.9" font-family="Helvetica,sans-Serif" font-size="17.00" fill="#c090f0">+ Cavity / material detail</text>
<text text-anchor="middle" x="820" y="-1179.9" font-family="Helvetica,sans-Serif" font-size="17.00" fill="#c090f0">− Less suited for</text>
<text text-anchor="middle" x="820" y="-1160.9" font-family="Helvetica,sans-Serif" font-size="17.00" fill="#c090f0"> &#160;open far&#45;field scattering</text>
</g>
<!-- L2&#45;&gt;FEM -->
<g id="edge21" class="edge">
<title>L2&#45;&gt;FEM</title>
<path fill="none" stroke="#a060e0" stroke-width="1.2" stroke-dasharray="5,2" d="M491.88,-1615.42C570.89,-1525.75 665.83,-1417.99 733.21,-1341.51"/>
<polygon fill="#a060e0" stroke="#a060e0" stroke-width="1.2" points="490.29,-1614.06 487.89,-1619.95 493.44,-1616.83 490.29,-1614.06"/>
</g>
<!-- A1 -->
<g id="node15" class="node">
<title>A1</title>
<path fill="#180e08" stroke="#5a3810" stroke-width="1.5" d="M1130.5,-1833.5C1130.5,-1833.5 899.5,-1833.5 899.5,-1833.5 893.5,-1833.5 887.5,-1827.5 887.5,-1821.5 887.5,-1821.5 887.5,-1742.5 887.5,-1742.5 887.5,-1736.5 893.5,-1730.5 899.5,-1730.5 899.5,-1730.5 1130.5,-1730.5 1130.5,-1730.5 1136.5,-1730.5 1142.5,-1736.5 1142.5,-1742.5 1142.5,-1742.5 1142.5,-1821.5 1142.5,-1821.5 1142.5,-1827.5 1136.5,-1833.5 1130.5,-1833.5"/>
<text text-anchor="middle" x="1015" y="-1806.9" font-family="Helvetica,sans-Serif" font-size="17.00" fill="#c07828">A1 &#160;· &#160;Scripted Batch Runs</text>
<text text-anchor="middle" x="1015" y="-1767.9" font-family="Helvetica,sans-Serif" font-size="17.00" fill="#c07828">Repeatable pipelines</text>
<text text-anchor="middle" x="1015" y="-1748.9" font-family="Helvetica,sans-Serif" font-size="17.00" fill="#c07828">Basic parameter loops</text>
</g>
<!-- L2&#45;&gt;A1 -->
<g id="edge27" class="edge">
<title>L2&#45;&gt;A1</title>
<path fill="none" stroke="#c08040" stroke-width="1.2" stroke-dasharray="5,2" d="M662.25,-1660.86C752.96,-1657.27 843.66,-1680.47 934.37,-1730.48"/>
<polygon fill="#c08040" stroke="#c08040" stroke-width="1.2" points="661.9,-1658.78 656,-1661.15 662.09,-1662.97 661.9,-1658.78"/>
</g>
<!-- L2&#45;&gt;A1 -->
<!-- L4 -->
<g id="node5" class="node">
<title>L4</title>
<path fill="#123a70" stroke="#3a80c0" stroke-width="2.5" d="M620,-864C620,-864 72,-864 72,-864 66,-864 60,-858 60,-852 60,-852 60,-552 60,-552 60,-546 66,-540 72,-540 72,-540 620,-540 620,-540 626,-540 632,-546 632,-552 632,-552 632,-852 632,-852 632,-858 626,-864 620,-864"/>
<polygon fill="#123a70" stroke="transparent" points="60,-540 60,-864 632,-864 632,-540 60,-540"/>
<polygon fill="#0a2248" stroke="transparent" points="60,-820 60,-864 632,-864 632,-820 60,-820"/>
<text text-anchor="start" x="218" y="-837.4" font-family="Helvetica,sans-Serif" font-size="14.00" fill="#d0e4f8"> &#160;&#160;&#160;</text>
<text text-anchor="start" x="237" y="-837.4" font-family="Helvetica,sans-Serif" font-weight="bold" font-size="22.00" fill="#407898">◆◆◆   TIER 4   ◆◆◆</text>
<text text-anchor="start" x="464" y="-837.4" font-family="Helvetica,sans-Serif" font-size="14.00" fill="#d0e4f8"> &#160;</text>
<text text-anchor="start" x="76" y="-787.4" font-family="Helvetica,sans-Serif" font-size="14.00" fill="#d0e4f8"> &#160;&#160;&#160;</text>
<text text-anchor="start" x="95" y="-787.4" font-family="Helvetica,sans-Serif" font-weight="bold" font-size="22.00" fill="#50a0d8">L4 &#160;· &#160;Integrated Observability Design</text>
<text text-anchor="start" x="560" y="-787.4" font-family="Helvetica,sans-Serif" font-size="14.00" fill="#d0e4f8"> &#160;</text>
<text text-anchor="start" x="76" y="-735.4" font-family="Helvetica,sans-Serif" font-size="14.00" fill="#d0e4f8"> &#160;&#160;&#160;</text>
<text text-anchor="start" x="95" y="-735.4" font-family="Helvetica,sans-Serif" font-style="italic" font-size="17.00" fill="#9ab8d8">Unlock: “Observability becomes a design variable.”</text>
<text text-anchor="start" x="528" y="-735.4" font-family="Helvetica,sans-Serif" font-size="14.00" fill="#d0e4f8"> &#160;</text>
<text text-anchor="start" x="76" y="-684.4" font-family="Helvetica,sans-Serif" font-size="14.00" fill="#d0e4f8"> &#160;&#160;&#160;</text>
<text text-anchor="start" x="95" y="-684.4" font-family="Helvetica,sans-Serif" font-size="17.00" fill="#c8daf0">• Multi&#45;aspect observability envelope</text>
<text text-anchor="start" x="76" y="-667.4" font-family="Helvetica,sans-Serif" font-size="17.00" fill="#c8daf0">• Aero / structure vs. observability trade studies</text>
<text text-anchor="start" x="76" y="-650.4" font-family="Helvetica,sans-Serif" font-size="17.00" fill="#c8daf0">• Monte Carlo design space exploration</text>
<text text-anchor="start" x="76" y="-633.4" font-family="Helvetica,sans-Serif" font-size="17.00" fill="#c8daf0">• Parametric airframe generation</text>
<text text-anchor="start" x="141.5" y="-616.4" font-family="Helvetica,sans-Serif" font-size="17.00" fill="#c8daf0">• Surrogate model acceleration</text>
<text text-anchor="start" x="406.5" y="-616.4" font-family="Helvetica,sans-Serif" font-size="14.00" fill="#d0e4f8"> &#160;</text>
<text text-anchor="start" x="76" y="-563.4" font-family="Helvetica,sans-Serif" font-size="14.00" fill="#d0e4f8"> &#160;&#160;&#160;</text>
<text text-anchor="start" x="95" y="-563.4" font-family="Helvetica,sans-Serif" font-style="italic" font-size="22.00" fill="#506878">Program&#45;level &#160;| &#160;EM + aero + structures team</text>
<text text-anchor="start" x="606" y="-563.4" font-family="Helvetica,sans-Serif" font-size="14.00" fill="#d0e4f8"> &#160;</text>
</g>
<!-- L3&#45;&gt;L4 -->
<g id="edge4" class="edge">
<title>L3&#45;&gt;L4</title>
<path fill="none" stroke="#4a90d8" stroke-width="3" d="M346,-1079.95C346,-1015.42 346,-940.96 346,-875.34"/>
<polygon fill="#4a90d8" stroke="#4a90d8" stroke-width="3" points="349.85,-875.05 346,-864.05 342.15,-875.05 349.85,-875.05"/>
</g>
<!-- L3&#45;&gt;FEM -->
<g id="edge22" class="edge">
<title>L3&#45;&gt;FEM</title>
<path fill="none" stroke="#a060e0" stroke-width="1.2" stroke-dasharray="5,2" d="M588.43,-1120.56C620.24,-1121.31 652.04,-1128.62 683.84,-1142.5"/>
<polygon fill="#a060e0" stroke="#a060e0" stroke-width="1.2" points="588.09,-1118.46 582.07,-1120.5 588.05,-1122.66 588.09,-1118.46"/>
</g>
<!-- L3&#45;&gt;FEM -->
<!-- MoM -->
<g id="node14" class="node">
<title>MoM</title>
<path fill="#201430" stroke="#6a3a98" stroke-width="1.5" d="M976,-801.5C976,-801.5 702,-801.5 702,-801.5 696,-801.5 690,-795.5 690,-789.5 690,-789.5 690,-614.5 690,-614.5 690,-608.5 696,-602.5 702,-602.5 702,-602.5 976,-602.5 976,-602.5 982,-602.5 988,-608.5 988,-614.5 988,-614.5 988,-789.5 988,-789.5 988,-795.5 982,-801.5 976,-801.5"/>
<text text-anchor="middle" x="839" y="-774.9" font-family="Helvetica,sans-Serif" font-size="17.00" fill="#b080e8">MoM</text>
<text text-anchor="middle" x="839" y="-755.9" font-family="Helvetica,sans-Serif" font-size="17.00" fill="#b080e8">Method of Moments</text>
<text text-anchor="middle" x="839" y="-716.9" font-family="Helvetica,sans-Serif" font-size="17.00" fill="#b080e8">+ Surface discretization</text>
<text text-anchor="middle" x="839" y="-697.9" font-family="Helvetica,sans-Serif" font-size="17.00" fill="#b080e8">+ Large metallic sweeps</text>
<text text-anchor="middle" x="839" y="-678.9" font-family="Helvetica,sans-Serif" font-size="17.00" fill="#b080e8">+ Design&#45;space efficiency</text>
<text text-anchor="middle" x="839" y="-639.9" font-family="Helvetica,sans-Serif" font-size="17.00" fill="#b080e8">− Limited volumetric materials</text>
<text text-anchor="middle" x="839" y="-620.9" font-family="Helvetica,sans-Serif" font-size="17.00" fill="#b080e8">− Dense matrix O(N²)</text>
</g>
<!-- L3&#45;&gt;MoM -->
<g id="edge24" class="edge">
<title>L3&#45;&gt;MoM</title>
<path fill="none" stroke="#a060e0" stroke-width="1.2" stroke-dasharray="5,2" d="M497.73,-1075.42C579.9,-985.75 678.65,-877.99 748.73,-801.51"/>
<polygon fill="#a060e0" stroke="#a060e0" stroke-width="1.2" points="496.09,-1074.1 493.58,-1079.95 499.18,-1076.94 496.09,-1074.1"/>
</g>
<!-- A2 -->
<g id="node16" class="node">
<title>A2</title>
<path fill="#1e1008" stroke="#6a4818" stroke-width="1.5" d="M1315,-1293.5C1315,-1293.5 1067,-1293.5 1067,-1293.5 1061,-1293.5 1055,-1287.5 1055,-1281.5 1055,-1281.5 1055,-1202.5 1055,-1202.5 1055,-1196.5 1061,-1190.5 1067,-1190.5 1067,-1190.5 1315,-1190.5 1315,-1190.5 1321,-1190.5 1327,-1196.5 1327,-1202.5 1327,-1202.5 1327,-1281.5 1327,-1281.5 1327,-1287.5 1321,-1293.5 1315,-1293.5"/>
<text text-anchor="middle" x="1191" y="-1266.9" font-family="Helvetica,sans-Serif" font-size="17.00" fill="#d08838">A2 &#160;· &#160;Parametric Sweeps</text>
<text text-anchor="middle" x="1191" y="-1227.9" font-family="Helvetica,sans-Serif" font-size="17.00" fill="#d08838">Structured geometry</text>
<text text-anchor="middle" x="1191" y="-1208.9" font-family="Helvetica,sans-Serif" font-size="17.00" fill="#d08838">exploration + data handling</text>
</g>
<!-- L3&#45;&gt;A2 -->
<g id="edge28" class="edge">
<title>L3&#45;&gt;A2</title>
<path fill="none" stroke="#c08040" stroke-width="1.2" stroke-dasharray="5,2" d="M499.64,-1408.27C548.6,-1450.29 606.02,-1489.77 667,-1512 794.77,-1558.59 850.29,-1570.64 973,-1512 1067.45,-1466.87 1134.11,-1358.62 1167.2,-1293.73"/>
<polygon fill="#c08040" stroke="#c08040" stroke-width="1.2" points="500.84,-1406.53 494.93,-1404.19 498.1,-1409.71 500.84,-1406.53"/>
</g>
<!-- L5 -->
<g id="node6" class="node">
<title>L5</title>
<path fill="#0c3498" stroke="#3a80c0" stroke-width="2.5" d="M680,-324C680,-324 12,-324 12,-324 6,-324 0,-318 0,-312 0,-312 0,-12 0,-12 0,-6 6,0 12,0 12,0 680,0 680,0 686,0 692,-6 692,-12 692,-12 692,-312 692,-312 692,-318 686,-324 680,-324"/>
<polygon fill="#0c3498" stroke="transparent" points="0,0 0,-324 692,-324 692,0 0,0"/>
<polygon fill="#061a50" stroke="transparent" points="0,-280 0,-324 692,-324 692,-280 0,-280"/>
<text text-anchor="start" x="218" y="-297.4" font-family="Helvetica,sans-Serif" font-size="14.00" fill="#d0e4f8"> &#160;&#160;&#160;</text>
<text text-anchor="start" x="237" y="-297.4" font-family="Helvetica,sans-Serif" font-weight="bold" font-size="22.00" fill="#3870a0">◆◆◆   TIER 5   ◆◆◆</text>
<text text-anchor="start" x="464" y="-297.4" font-family="Helvetica,sans-Serif" font-size="14.00" fill="#d0e4f8"> &#160;</text>
<text text-anchor="start" x="16" y="-247.4" font-family="Helvetica,sans-Serif" font-size="14.00" fill="#d0e4f8"> &#160;&#160;&#160;</text>
<text text-anchor="start" x="35" y="-247.4" font-family="Helvetica,sans-Serif" font-weight="bold" font-size="22.00" fill="#40a0ff">L5 &#160;· &#160;Closed&#45;Loop Observability Optimization</text>
<text text-anchor="start" x="594" y="-247.4" font-family="Helvetica,sans-Serif" font-size="14.00" fill="#d0e4f8"> &#160;</text>
<text text-anchor="start" x="16" y="-195.4" font-family="Helvetica,sans-Serif" font-size="14.00" fill="#d0e4f8"> &#160;&#160;&#160;</text>
<text text-anchor="start" x="35" y="-195.4" font-family="Helvetica,sans-Serif" font-style="italic" font-size="17.00" fill="#9ab8d8">Unlock: “Automated exploration and optimization of aircraft observability.”</text>
<text text-anchor="start" x="666" y="-195.4" font-family="Helvetica,sans-Serif" font-size="14.00" fill="#d0e4f8"> &#160;</text>
<text text-anchor="start" x="16" y="-144.4" font-family="Helvetica,sans-Serif" font-size="14.00" fill="#d0e4f8"> &#160;&#160;&#160;</text>
<text text-anchor="start" x="35" y="-144.4" font-family="Helvetica,sans-Serif" font-size="17.00" fill="#c8daf0">• AI&#45;driven geometry exploration</text>
<text text-anchor="start" x="16" y="-127.4" font-family="Helvetica,sans-Serif" font-size="17.00" fill="#c8daf0">• Monte Carlo + gradient refinement</text>
<text text-anchor="start" x="16" y="-110.4" font-family="Helvetica,sans-Serif" font-size="17.00" fill="#c8daf0">• Adjoint sensitivity methods</text>
<text text-anchor="start" x="16" y="-93.4" font-family="Helvetica,sans-Serif" font-size="17.00" fill="#c8daf0">• Surrogate&#45;accelerated optimization</text>
<text text-anchor="start" x="50.5" y="-76.4" font-family="Helvetica,sans-Serif" font-size="17.00" fill="#c8daf0">• Uncertainty quantification</text>
<text text-anchor="start" x="285.5" y="-76.4" font-family="Helvetica,sans-Serif" font-size="14.00" fill="#d0e4f8"> &#160;</text>
<text text-anchor="start" x="16" y="-23.4" font-family="Helvetica,sans-Serif" font-size="14.00" fill="#d0e4f8"> &#160;&#160;&#160;</text>
<text text-anchor="start" x="35" y="-23.4" font-family="Helvetica,sans-Serif" font-style="italic" font-size="22.00" fill="#506878">Major aerospace program &#160;| &#160;Formal EM discipline</text>
<text text-anchor="start" x="578" y="-23.4" font-family="Helvetica,sans-Serif" font-size="14.00" fill="#d0e4f8"> &#160;</text>
</g>
<!-- L4&#45;&gt;L5 -->
<g id="edge5" class="edge">
<title>L4&#45;&gt;L5</title>
<path fill="none" stroke="#4a90d8" stroke-width="3" d="M346,-539.95C346,-475.42 346,-400.96 346,-335.34"/>
<polygon fill="#4a90d8" stroke="#4a90d8" stroke-width="3" points="349.85,-335.05 346,-324.05 342.15,-335.05 349.85,-335.05"/>
</g>
<!-- L4&#45;&gt;FEM -->
<g id="edge23" class="edge">
<title>L4&#45;&gt;FEM</title>
<path fill="none" stroke="#a060e0" stroke-width="1.2" stroke-dasharray="5,2" d="M491.97,-868.67C570.9,-958.26 665.71,-1065.88 733.06,-1142.32"/>
<polygon fill="#a060e0" stroke="#a060e0" stroke-width="1.2" points="493.52,-867.27 487.98,-864.15 490.37,-870.04 493.52,-867.27"/>
</g>
<!-- L4&#45;&gt;MoM -->
<g id="edge25" class="edge">
<title>L4&#45;&gt;MoM</title>
<path fill="none" stroke="#a060e0" stroke-width="1.2" stroke-dasharray="5,2" d="M638.51,-584.73C658.01,-588.32 677.51,-594.19 697,-602.34"/>
<polygon fill="#a060e0" stroke="#a060e0" stroke-width="1.2" points="638.73,-582.64 632.46,-583.69 638.02,-586.78 638.73,-582.64"/>
</g>
<!-- L4&#45;&gt;MoM -->
<!-- A3 -->
<g id="node17" class="node">
<title>A3</title>
<path fill="#241408" stroke="#7a5828" stroke-width="1.5" d="M1322.5,-753.5C1322.5,-753.5 1057.5,-753.5 1057.5,-753.5 1051.5,-753.5 1045.5,-747.5 1045.5,-741.5 1045.5,-741.5 1045.5,-662.5 1045.5,-662.5 1045.5,-656.5 1051.5,-650.5 1057.5,-650.5 1057.5,-650.5 1322.5,-650.5 1322.5,-650.5 1328.5,-650.5 1334.5,-656.5 1334.5,-662.5 1334.5,-662.5 1334.5,-741.5 1334.5,-741.5 1334.5,-747.5 1328.5,-753.5 1322.5,-753.5"/>
<text text-anchor="middle" x="1190" y="-726.9" font-family="Helvetica,sans-Serif" font-size="17.00" fill="#d89848">A3 &#160;· &#160;Monte Carlo Exploration</text>
<text text-anchor="middle" x="1190" y="-687.9" font-family="Helvetica,sans-Serif" font-size="17.00" fill="#d89848">Sensitivity mapping</text>
<text text-anchor="middle" x="1190" y="-668.9" font-family="Helvetica,sans-Serif" font-size="17.00" fill="#d89848">Multi&#45;run comparison</text>
</g>
<!-- L4&#45;&gt;A3 -->
<g id="edge29" class="edge">
<title>L4&#45;&gt;A3</title>
<path fill="none" stroke="#c08040" stroke-width="1.2" stroke-dasharray="5,2" d="M511.68,-867.84C564.35,-910.09 625.74,-949.79 690,-972 815.18,-1015.26 869.57,-1031.3 988,-972 1078.95,-926.46 1139.49,-818.36 1169.01,-753.6"/>
<polygon fill="#c08040" stroke="#c08040" stroke-width="1.2" points="512.92,-866.14 506.93,-864.01 510.28,-869.41 512.92,-866.14"/>
</g>
<!-- L5&#45;&gt;MoM -->
<g id="edge26" class="edge">
<title>L5&#45;&gt;MoM</title>
<path fill="none" stroke="#a060e0" stroke-width="1.2" stroke-dasharray="5,2" d="M497.82,-328.67C579.91,-418.26 678.53,-525.88 748.58,-602.32"/>
<polygon fill="#a060e0" stroke="#a060e0" stroke-width="1.2" points="499.28,-327.16 493.67,-324.15 496.18,-330 499.28,-327.16"/>
</g>
<!-- A4 -->
<g id="node18" class="node">
<title>A4</title>
<path fill="#2a1a08" stroke="#8a6838" stroke-width="1.5" d="M1183.5,-223C1183.5,-223 906.5,-223 906.5,-223 900.5,-223 894.5,-217 894.5,-211 894.5,-211 894.5,-113 894.5,-113 894.5,-107 900.5,-101 906.5,-101 906.5,-101 1183.5,-101 1183.5,-101 1189.5,-101 1195.5,-107 1195.5,-113 1195.5,-113 1195.5,-211 1195.5,-211 1195.5,-217 1189.5,-223 1183.5,-223"/>
<text text-anchor="middle" x="1045" y="-196.4" font-family="Helvetica,sans-Serif" font-size="17.00" fill="#e0a858">A4 &#160;· &#160;Surrogate + Optimization</text>
<text text-anchor="middle" x="1045" y="-157.4" font-family="Helvetica,sans-Serif" font-size="17.00" fill="#e0a858">ML model acceleration</text>
<text text-anchor="middle" x="1045" y="-138.4" font-family="Helvetica,sans-Serif" font-size="17.00" fill="#e0a858">Multi&#45;objective loops</text>
<text text-anchor="middle" x="1045" y="-119.4" font-family="Helvetica,sans-Serif" font-size="17.00" fill="#e0a858">Adjoint gradient descent</text>
</g>
<!-- L5&#45;&gt;A4 -->
<g id="edge30" class="edge">
<title>L5&#45;&gt;A4</title>
<path fill="none" stroke="#c08040" stroke-width="1.2" stroke-dasharray="5,2" d="M698.43,-40.51C779.6,-40.98 860.78,-61.12 941.95,-100.92"/>
<polygon fill="#c08040" stroke="#c08040" stroke-width="1.2" points="698.09,-38.41 692.09,-40.51 698.09,-42.61 698.09,-38.41"/>
</g>
<!-- L5&#45;&gt;A4 -->
<!-- V0 -->
<g id="node7" class="node">
<title>V0</title>
<path fill="#0a1810" stroke="#1a4028" stroke-width="1.5" d="M1616.5,-2905C1616.5,-2905 1419.5,-2905 1419.5,-2905 1413.5,-2905 1407.5,-2899 1407.5,-2893 1407.5,-2893 1407.5,-2814 1407.5,-2814 1407.5,-2808 1413.5,-2802 1419.5,-2802 1419.5,-2802 1616.5,-2802 1616.5,-2802 1622.5,-2802 1628.5,-2808 1628.5,-2814 1628.5,-2814 1628.5,-2893 1628.5,-2893 1628.5,-2899 1622.5,-2905 1616.5,-2905"/>
<text text-anchor="middle" x="1518" y="-2878.4" font-family="Helvetica,sans-Serif" font-size="17.00" fill="#507060">V0 &#160;· &#160;No Validation</text>
<text text-anchor="middle" x="1518" y="-2839.4" font-family="Helvetica,sans-Serif" font-size="17.00" fill="#507060">Anecdotal correlation</text>
<text text-anchor="middle" x="1518" y="-2820.4" font-family="Helvetica,sans-Serif" font-size="17.00" fill="#507060">to known returns only</text>
</g>
<!-- V0&#45;&gt;L0 -->
<!-- V1 -->
<g id="node8" class="node">
<title>V1</title>
<path fill="#0e2018" stroke="#d4a800" stroke-width="3" d="M1634,-2373.5C1634,-2373.5 1402,-2373.5 1402,-2373.5 1396,-2373.5 1390,-2367.5 1390,-2361.5 1390,-2361.5 1390,-2282.5 1390,-2282.5 1390,-2276.5 1396,-2270.5 1402,-2270.5 1402,-2270.5 1634,-2270.5 1634,-2270.5 1640,-2270.5 1646,-2276.5 1646,-2282.5 1646,-2282.5 1646,-2361.5 1646,-2361.5 1646,-2367.5 1640,-2373.5 1634,-2373.5"/>
<text text-anchor="middle" x="1518" y="-2346.9" font-family="Helvetica,sans-Serif" font-size="17.00" fill="#80c888">V1 &#160;· &#160;Canonical Validation</text>
<text text-anchor="middle" x="1518" y="-2307.9" font-family="Helvetica,sans-Serif" font-size="17.00" fill="#80c888">Sphere comparison</text>
<text text-anchor="middle" x="1518" y="-2288.9" font-family="Helvetica,sans-Serif" font-size="17.00" fill="#80c888">Analytical benchmarks</text>
</g>
<!-- V0&#45;&gt;V1 -->
<g id="edge6" class="edge">
<title>V0&#45;&gt;V1</title>
<path fill="none" stroke="#2a7050" stroke-width="2" d="M1518,-2801.73C1518,-2703.19 1518,-2486.52 1518,-2381.87"/>
<polygon fill="#2a7050" stroke="#2a7050" stroke-width="2" points="1520.8,-2381.62 1518,-2373.62 1515.2,-2381.62 1520.8,-2381.62"/>
</g>
<!-- V1&#45;&gt;L1 -->
<g id="edge13" class="edge">
<title>V1&#45;&gt;L1</title>
<path fill="none" stroke="#30a060" stroke-width="1.2" stroke-dasharray="5,2" d="M1461.65,-2373.58C1394.71,-2431.03 1276.9,-2520.47 1156.67,-2556 976.88,-2609.13 774.24,-2550.66 616.54,-2478.88"/>
<polygon fill="#30a060" stroke="#30a060" stroke-width="1.2" points="617.28,-2476.91 610.95,-2476.33 615.53,-2480.73 617.28,-2476.91"/>
<text text-anchor="middle" x="1006.44" y="-2592.92" font-family="Helvetica,sans-Serif" font-size="13.00" fill="#607890">enables</text>
<text text-anchor="middle" x="1006.44" y="-2578.92" font-family="Helvetica,sans-Serif" font-size="13.00" fill="#607890">engineering</text>
</g>
<!-- V1&#45;&gt;L1 -->
<!-- V2 -->
<g id="node9" class="node">
<title>V2</title>
<path fill="#102818" stroke="#206038" stroke-width="1.5" d="M1650.5,-1833.5C1650.5,-1833.5 1385.5,-1833.5 1385.5,-1833.5 1379.5,-1833.5 1373.5,-1827.5 1373.5,-1821.5 1373.5,-1821.5 1373.5,-1742.5 1373.5,-1742.5 1373.5,-1736.5 1379.5,-1730.5 1385.5,-1730.5 1385.5,-1730.5 1650.5,-1730.5 1650.5,-1730.5 1656.5,-1730.5 1662.5,-1736.5 1662.5,-1742.5 1662.5,-1742.5 1662.5,-1821.5 1662.5,-1821.5 1662.5,-1827.5 1656.5,-1833.5 1650.5,-1833.5"/>
<text text-anchor="middle" x="1518" y="-1806.9" font-family="Helvetica,sans-Serif" font-size="17.00" fill="#80c888">V2 &#160;· &#160;Material Coupon Testing</text>
<text text-anchor="middle" x="1518" y="-1767.9" font-family="Helvetica,sans-Serif" font-size="17.00" fill="#80c888">Reflectivity measurement</text>
<text text-anchor="middle" x="1518" y="-1748.9" font-family="Helvetica,sans-Serif" font-size="17.00" fill="#80c888">S&#45;parameter extraction</text>
</g>
<!-- V1&#45;&gt;V2 -->
<g id="edge7" class="edge">
<title>V1&#45;&gt;V2</title>
<path fill="none" stroke="#2a7050" stroke-width="2" d="M1518,-2270.39C1518,-2170.45 1518,-1948.28 1518,-1841.94"/>
<polygon fill="#2a7050" stroke="#2a7050" stroke-width="2" points="1520.8,-1841.87 1518,-1833.87 1515.2,-1841.87 1520.8,-1841.87"/>
</g>
<!-- V2&#45;&gt;L2 -->
<g id="edge14" class="edge">
<title>V2&#45;&gt;L2</title>
<path fill="none" stroke="#30a060" stroke-width="1.2" stroke-dasharray="5,2" d="M1460.92,-1833.59C1393.14,-1891.05 1273.93,-1980.5 1152.67,-2016 980.65,-2066.37 787.85,-2014.42 633.88,-1946.8"/>
<polygon fill="#30a060" stroke="#30a060" stroke-width="1.2" points="634.29,-1944.68 627.96,-1944.18 632.59,-1948.53 634.29,-1944.68"/>
<text text-anchor="middle" x="1024.75" y="-2051.39" font-family="Helvetica,sans-Serif" font-size="13.00" fill="#607890">improves</text>
<text text-anchor="middle" x="1024.75" y="-2037.39" font-family="Helvetica,sans-Serif" font-size="13.00" fill="#607890">credibility</text>
</g>
<!-- V2&#45;&gt;L2 -->
<!-- V3 -->
<g id="node10" class="node">
<title>V3</title>
<path fill="#143020" stroke="#286848" stroke-width="1.5" d="M1637,-1293.5C1637,-1293.5 1399,-1293.5 1399,-1293.5 1393,-1293.5 1387,-1287.5 1387,-1281.5 1387,-1281.5 1387,-1202.5 1387,-1202.5 1387,-1196.5 1393,-1190.5 1399,-1190.5 1399,-1190.5 1637,-1190.5 1637,-1190.5 1643,-1190.5 1649,-1196.5 1649,-1202.5 1649,-1202.5 1649,-1281.5 1649,-1281.5 1649,-1287.5 1643,-1293.5 1637,-1293.5"/>
<text text-anchor="middle" x="1518" y="-1266.9" font-family="Helvetica,sans-Serif" font-size="17.00" fill="#90d0a0">V3 &#160;· &#160;Scaled Model Testing</text>
<text text-anchor="middle" x="1518" y="-1227.9" font-family="Helvetica,sans-Serif" font-size="17.00" fill="#90d0a0">Anechoic chamber runs</text>
<text text-anchor="middle" x="1518" y="-1208.9" font-family="Helvetica,sans-Serif" font-size="17.00" fill="#90d0a0">Subassembly validation</text>
</g>
<!-- V2&#45;&gt;V3 -->
<g id="edge8" class="edge">
<title>V2&#45;&gt;V3</title>
<path fill="none" stroke="#2a7050" stroke-width="2" d="M1518,-1730.39C1518,-1630.45 1518,-1408.28 1518,-1301.94"/>
<polygon fill="#2a7050" stroke="#2a7050" stroke-width="2" points="1520.8,-1301.87 1518,-1293.87 1515.2,-1301.87 1520.8,-1301.87"/>
</g>
<!-- V3&#45;&gt;L3 -->
<g id="edge15" class="edge">
<title>V3&#45;&gt;L3</title>
<path fill="none" stroke="#30a060" stroke-width="1.2" stroke-dasharray="5,2" d="M1495.31,-1293.74C1467.26,-1350.42 1413.62,-1438.28 1336.67,-1476 1201.11,-1542.45 800.52,-1523.81 657.33,-1476 611.61,-1460.73 567.2,-1435.82 526.93,-1407.81"/>
<polygon fill="#30a060" stroke="#30a060" stroke-width="1.2" points="527.64,-1405.75 521.53,-1404.02 525.23,-1409.19 527.64,-1405.75"/>
<text text-anchor="middle" x="977.8" y="-1536.54" font-family="Helvetica,sans-Serif" font-size="13.00" fill="#607890">required</text>
<text text-anchor="middle" x="977.8" y="-1522.54" font-family="Helvetica,sans-Serif" font-size="13.00" fill="#607890">for trust</text>
</g>
<!-- V3&#45;&gt;L3 -->
<!-- V3&#45;&gt;L4 -->
<g id="edge16" class="edge">
<title>V3&#45;&gt;L4</title>
<path fill="none" stroke="#30a060" stroke-width="1.2" stroke-dasharray="5,2" d="M1478.3,-1190.18C1448.18,-1154.74 1403.9,-1108.83 1356,-1080 1078.87,-913.19 960.55,-986.05 661,-864 653.41,-860.91 645.75,-857.7 638.06,-854.4"/>
<polygon fill="#30a060" stroke="#30a060" stroke-width="1.2" points="638.51,-852.3 632.17,-851.85 636.84,-856.16 638.51,-852.3"/>
</g>
<!-- V4 -->
<g id="node11" class="node">
<title>V4</title>
<path fill="#183828" stroke="#307858" stroke-width="1.5" d="M1630.5,-753.5C1630.5,-753.5 1405.5,-753.5 1405.5,-753.5 1399.5,-753.5 1393.5,-747.5 1393.5,-741.5 1393.5,-741.5 1393.5,-662.5 1393.5,-662.5 1393.5,-656.5 1399.5,-650.5 1405.5,-650.5 1405.5,-650.5 1630.5,-650.5 1630.5,-650.5 1636.5,-650.5 1642.5,-656.5 1642.5,-662.5 1642.5,-662.5 1642.5,-741.5 1642.5,-741.5 1642.5,-747.5 1636.5,-753.5 1630.5,-753.5"/>
<text text-anchor="middle" x="1518" y="-726.9" font-family="Helvetica,sans-Serif" font-size="17.00" fill="#a0d8b0">V4 &#160;· &#160;Full Aircraft Range</text>
<text text-anchor="middle" x="1518" y="-687.9" font-family="Helvetica,sans-Serif" font-size="17.00" fill="#a0d8b0">Compact / outdoor range</text>
<text text-anchor="middle" x="1518" y="-668.9" font-family="Helvetica,sans-Serif" font-size="17.00" fill="#a0d8b0">Flight&#45;based validation</text>
</g>
<!-- V3&#45;&gt;V4 -->
<g id="edge9" class="edge">
<title>V3&#45;&gt;V4</title>
<path fill="none" stroke="#2a7050" stroke-width="2" d="M1518,-1190.39C1518,-1090.45 1518,-868.28 1518,-761.94"/>
<polygon fill="#2a7050" stroke="#2a7050" stroke-width="2" points="1520.8,-761.87 1518,-753.87 1515.2,-761.87 1520.8,-761.87"/>
</g>
<!-- V4&#45;&gt;L4 -->
<!-- V4&#45;&gt;L5 -->
<g id="edge17" class="edge">
<title>V4&#45;&gt;L5</title>
<path fill="none" stroke="#30a060" stroke-width="1.2" stroke-dasharray="5,2" d="M1479.98,-650.47C1451.37,-615.42 1409.42,-569.83 1364,-540 1251.03,-465.8 945.08,-356.4 697.86,-274.53"/>
<polygon fill="#30a060" stroke="#30a060" stroke-width="1.2" points="698.39,-272.5 692.03,-272.6 697.07,-276.48 698.39,-272.5"/>
<text text-anchor="middle" x="1067.65" y="-436.24" font-family="Helvetica,sans-Serif" font-size="13.00" fill="#607890">required</text>
<text text-anchor="middle" x="1067.65" y="-422.24" font-family="Helvetica,sans-Serif" font-size="13.00" fill="#607890">for closure</text>
</g>
<!-- FEM&#45;&gt;A2 -->
<!-- MoM&#45;&gt;A3 -->
<!-- A1&#45;&gt;A2 -->
<g id="edge10" class="edge">
<title>A1&#45;&gt;A2</title>
<path fill="none" stroke="#7a5828" stroke-width="2" d="M1031.56,-1730.39C1064.28,-1630.35 1137.08,-1407.84 1171.82,-1301.62"/>
<polygon fill="#7a5828" stroke="#7a5828" stroke-width="2" points="1174.53,-1302.35 1174.36,-1293.87 1169.21,-1300.6 1174.53,-1302.35"/>
</g>
<!-- A2&#45;&gt;A3 -->
<g id="edge11" class="edge">
<title>A2&#45;&gt;A3</title>
<path fill="none" stroke="#7a5828" stroke-width="2" d="M1190.91,-1190.39C1190.72,-1090.45 1190.31,-868.28 1190.11,-761.94"/>
<polygon fill="#7a5828" stroke="#7a5828" stroke-width="2" points="1192.91,-761.87 1190.09,-753.87 1187.31,-761.88 1192.91,-761.87"/>
</g>
<!-- A3&#45;&gt;A4 -->
<g id="edge12" class="edge">
<title>A3&#45;&gt;A4</title>
<path fill="none" stroke="#7a5828" stroke-width="2" d="M1176.36,-650.39C1150.19,-553.29 1092.92,-340.79 1063.4,-231.27"/>
<polygon fill="#7a5828" stroke="#7a5828" stroke-width="2" points="1066.02,-230.24 1061.24,-223.24 1060.61,-231.69 1066.02,-230.24"/>
</g>
</g>
</svg>
