<?xml version="1.0" encoding="UTF-8" standalone="no"?>
<!DOCTYPE svg PUBLIC "-//W3C//DTD SVG 1.1//EN"
 "http://www.w3.org/Graphics/SVG/1.1/DTD/svg11.dtd">
<!-- Generated by graphviz version 2.43.0 (0)
 -->
<!-- Title: RCS_Tech_Tree Pages: 1 -->
<svg width="1375pt" height="2924pt"
 viewBox="0.00 0.00 1374.80 2923.80" xmlns="http://www.w3.org/2000/svg" xmlns:xlink="http://www.w3.org/1999/xlink">
<g id="graph0" class="graph" transform="scale(1 1) rotate(0) translate(86.4 2837.4)">
<title>RCS_Tech_Tree</title>
<polygon fill="#060e18" stroke="transparent" points="-86.4,86.4 -86.4,-2837.4 1288.4,-2837.4 1288.4,86.4 -86.4,86.4"/>
<text text-anchor="middle" x="601" y="-2729.4" font-family="Helvetica,sans-Serif" font-size="22.00" fill="#9ab8d8">Radar Observability Design Maturity</text>
<text text-anchor="middle" x="601" y="-2705.4" font-family="Helvetica,sans-Serif" font-size="22.00" fill="#9ab8d8">★ &#160;Gold border = current project capability &#160;(L0, L1 maturity &#160;· &#160;FDTD solver &#160;· &#160;V1 validation)</text>
<!-- L0 -->
<g id="node1" class="node">
<title>L0</title>
<path fill="#12202e" stroke="#d4a800" stroke-width="4" d="M426,-2695C426,-2695 48,-2695 48,-2695 42,-2695 36,-2689 36,-2683 36,-2683 36,-2447 36,-2447 36,-2441 42,-2435 48,-2435 48,-2435 426,-2435 426,-2435 432,-2435 438,-2441 438,-2447 438,-2447 438,-2683 438,-2683 438,-2689 432,-2695 426,-2695"/>
<polygon fill="#12202e" stroke="transparent" points="36,-2435 36,-2695 438,-2695 438,-2435 36,-2435"/>
<polygon fill="#251a00" stroke="transparent" points="36,-2660 36,-2695 438,-2695 438,-2660 36,-2660"/>
<text text-anchor="start" x="171" y="-2674.8" font-family="Helvetica,sans-Serif" font-size="14.00" fill="#d0e4f8"> &#160;&#160;&#160;</text>
<text text-anchor="start" x="190" y="-2674.8" font-family="Helvetica,sans-Serif" font-weight="bold" font-size="10.00" fill="#c09020">◆◆◆   TIER 0   ◆◆◆</text>
<text text-anchor="start" x="293" y="-2674.8" font-family="Helvetica,sans-Serif" font-size="14.00" fill="#d0e4f8"> &#160;</text>
<text text-anchor="start" x="52" y="-2633" font-family="Helvetica,sans-Serif" font-size="14.00" fill="#d0e4f8"> &#160;&#160;&#160;</text>
<text text-anchor="start" x="71" y="-2633" font-family="Helvetica,sans-Serif" font-weight="bold" font-size="15.00" fill="#ffd060">L0 &#160;· &#160;Intuition &amp; Unvalidated Simulation</text>
<text text-anchor="start" x="412" y="-2633" font-family="Helvetica,sans-Serif" font-size="14.00" fill="#d0e4f8"> &#160;</text>
<text text-anchor="start" x="52" y="-2584.8" font-family="Helvetica,sans-Serif" font-size="14.00" fill="#d0e4f8"> &#160;&#160;&#160;</text>
<text text-anchor="start" x="71" y="-2584.8" font-family="Helvetica,sans-Serif" font-style="italic" font-size="11.00" fill="#9ab8d8">Unlock: Geometric reasoning + first&#45;run field data</text>
<text text-anchor="start" x="346" y="-2584.8" font-family="Helvetica,sans-Serif" font-size="14.00" fill="#d0e4f8"> &#160;</text>
<text text-anchor="start" x="52" y="-2537.8" font-family="Helvetica,sans-Serif" font-size="14.00" fill="#d0e4f8"> &#160;&#160;&#160;</text>
<text text-anchor="start" x="71" y="-2537.8" font-family="Helvetica,sans-Serif" font-size="11.00" fill="#c8daf0">• Single&#45;aspect plane&#45;wave simulation</text>
<text text-anchor="start" x="52" y="-2526.2" font-family="Helvetica,sans-Serif" font-size="11.00" fill="#c8daf0">• Near&#45;field visualization only</text>
<text text-anchor="start" x="52" y="-2515.2" font-family="Helvetica,sans-Serif" font-size="11.00" fill="#c8daf0">• Manual geometry comparison</text>
<text text-anchor="start" x="77" y="-2501.8" font-family="Helvetica,sans-Serif" font-size="11.00" fill="#c8daf0">• No calibrated measurements</text>
<text text-anchor="start" x="248" y="-2501.8" font-family="Helvetica,sans-Serif" font-size="14.00" fill="#d0e4f8"> &#160;</text>
<text text-anchor="start" x="52" y="-2455.8" font-family="Helvetica,sans-Serif" font-size="14.00" fill="#d0e4f8"> &#160;&#160;&#160;</text>
<text text-anchor="start" x="71" y="-2455.8" font-family="Helvetica,sans-Serif" font-style="italic" font-size="10.00" fill="#506878">Individual &#160;| &#160;Workstation compute</text>
<text text-anchor="start" x="239" y="-2455.8" font-family="Helvetica,sans-Serif" font-size="14.00" fill="#d0e4f8"> &#160;</text>
</g>
<!-- L1 -->
<g id="node2" class="node">
<title>L1</title>
<path fill="#162435" stroke="#d4a800" stroke-width="4" d="M416.5,-2219C416.5,-2219 57.5,-2219 57.5,-2219 51.5,-2219 45.5,-2213 45.5,-2207 45.5,-2207 45.5,-1960 45.5,-1960 45.5,-1954 51.5,-1948 57.5,-1948 57.5,-1948 416.5,-1948 416.5,-1948 422.5,-1948 428.5,-1954 428.5,-1960 428.5,-1960 428.5,-2207 428.5,-2207 428.5,-2213 422.5,-2219 416.5,-2219"/>
<polygon fill="#162435" stroke="transparent" points="45.5,-1948 45.5,-2219 428.5,-2219 428.5,-1948 45.5,-1948"/>
<polygon fill="#251a00" stroke="transparent" points="46,-2183.5 46,-2218.5 429,-2218.5 429,-2183.5 46,-2183.5"/>
<text text-anchor="start" x="171.5" y="-2198.3" font-family="Helvetica,sans-Serif" font-size="14.00" fill="#d0e4f8"> &#160;&#160;&#160;</text>
<text text-anchor="start" x="190.5" y="-2198.3" font-family="Helvetica,sans-Serif" font-weight="bold" font-size="10.00" fill="#c09020">◆◆◆   TIER 1   ◆◆◆</text>
<text text-anchor="start" x="293.5" y="-2198.3" font-family="Helvetica,sans-Serif" font-size="14.00" fill="#d0e4f8"> &#160;</text>
<text text-anchor="start" x="62" y="-2156.5" font-family="Helvetica,sans-Serif" font-size="14.00" fill="#d0e4f8"> &#160;&#160;&#160;</text>
<text text-anchor="start" x="81" y="-2156.5" font-family="Helvetica,sans-Serif" font-weight="bold" font-size="15.00" fill="#ffd060">L1 &#160;· &#160;Spatial Attribution of Scattering</text>
<text text-anchor="start" x="403" y="-2156.5" font-family="Helvetica,sans-Serif" font-size="14.00" fill="#d0e4f8"> &#160;</text>
<text text-anchor="start" x="62" y="-2108.3" font-family="Helvetica,sans-Serif" font-size="14.00" fill="#d0e4f8"> &#160;&#160;&#160;</text>
<text text-anchor="start" x="81" y="-2108.3" font-family="Helvetica,sans-Serif" font-style="italic" font-size="11.00" fill="#9ab8d8">Unlock: “Where is the return coming from?”</text>
<text text-anchor="start" x="325" y="-2108.3" font-family="Helvetica,sans-Serif" font-size="14.00" fill="#d0e4f8"> &#160;</text>
<text text-anchor="start" x="62" y="-2061.3" font-family="Helvetica,sans-Serif" font-size="14.00" fill="#d0e4f8"> &#160;&#160;&#160;</text>
<text text-anchor="start" x="81" y="-2061.3" font-family="Helvetica,sans-Serif" font-size="11.00" fill="#c8daf0">• Backscatter hot&#45;spot spatial mapping</text>
<text text-anchor="start" x="62" y="-2049.7" font-family="Helvetica,sans-Serif" font-size="11.00" fill="#c8daf0">• Feature attribution: edges vs. cavities</text>
<text text-anchor="start" x="62" y="-2038.7" font-family="Helvetica,sans-Serif" font-size="11.00" fill="#c8daf0">• Directional Poynting accumulation</text>
<text text-anchor="start" x="62" y="-2027.7" font-family="Helvetica,sans-Serif" font-size="11.00" fill="#c8daf0">• Repeatable post&#45;processing pipeline</text>
<text text-anchor="start" x="74" y="-2014.3" font-family="Helvetica,sans-Serif" font-size="11.00" fill="#c8daf0">• Canonical geometry benchmarking</text>
<text text-anchor="start" x="276" y="-2014.3" font-family="Helvetica,sans-Serif" font-size="14.00" fill="#d0e4f8"> &#160;</text>
<text text-anchor="start" x="62" y="-1968.3" font-family="Helvetica,sans-Serif" font-size="14.00" fill="#d0e4f8"> &#160;&#160;&#160;</text>
<text text-anchor="start" x="81" y="-1968.3" font-family="Helvetica,sans-Serif" font-style="italic" font-size="10.00" fill="#506878">1–3 engineers &#160;| &#160;Structured workflow</text>
<text text-anchor="start" x="262" y="-1968.3" font-family="Helvetica,sans-Serif" font-size="14.00" fill="#d0e4f8"> &#160;</text>
</g>
<!-- L0&#45;&gt;L1 -->
<g id="edge1" class="edge">
<title>L0&#45;&gt;L1</title>
<path fill="none" stroke="#4a90d8" stroke-width="3" d="M237,-2434.87C237,-2371.81 237,-2295.67 237,-2230.5"/>
<polygon fill="#4a90d8" stroke="#4a90d8" stroke-width="3" points="240.85,-2230.3 237,-2219.3 233.15,-2230.3 240.85,-2230.3"/>
</g>
<!-- FDTD -->
<g id="node12" class="node">
<title>FDTD</title>
<path fill="#180c22" stroke="#d4a800" stroke-width="3" d="M809,-2151.5C809,-2151.5 631,-2151.5 631,-2151.5 625,-2151.5 619,-2145.5 619,-2139.5 619,-2139.5 619,-2027.5 619,-2027.5 619,-2021.5 625,-2015.5 631,-2015.5 631,-2015.5 809,-2015.5 809,-2015.5 815,-2015.5 821,-2021.5 821,-2027.5 821,-2027.5 821,-2139.5 821,-2139.5 821,-2145.5 815,-2151.5 809,-2151.5"/>
<text text-anchor="middle" x="720" y="-2129.7" font-family="Helvetica,sans-Serif" font-size="11.00" fill="#d0a0f8">FDTD</text>
<text text-anchor="middle" x="720" y="-2117.7" font-family="Helvetica,sans-Serif" font-size="11.00" fill="#d0a0f8">Finite&#45;Difference Time&#45;Domain</text>
<text text-anchor="middle" x="720" y="-2092.7" font-family="Helvetica,sans-Serif" font-size="11.00" fill="#d0a0f8">+ Field&#45;level physical insight</text>
<text text-anchor="middle" x="720" y="-2080.7" font-family="Helvetica,sans-Serif" font-size="11.00" fill="#d0a0f8">+ Broadband single&#45;run</text>
<text text-anchor="middle" x="720" y="-2068.7" font-family="Helvetica,sans-Serif" font-size="11.00" fill="#d0a0f8">+ Cavity / transient physics</text>
<text text-anchor="middle" x="720" y="-2043.7" font-family="Helvetica,sans-Serif" font-size="11.00" fill="#d0a0f8">− Grid scaling O(N³)</text>
<text text-anchor="middle" x="720" y="-2031.7" font-family="Helvetica,sans-Serif" font-size="11.00" fill="#d0a0f8">− Large airframe size limits</text>
</g>
<!-- L0&#45;&gt;FDTD -->
<g id="edge18" class="edge">
<title>L0&#45;&gt;FDTD</title>
<path fill="none" stroke="#a060e0" stroke-width="1.2" stroke-dasharray="5,2" d="M371.4,-2430.57C462.72,-2339.92 579.66,-2223.82 652.2,-2151.81"/>
<polygon fill="#a060e0" stroke="#a060e0" stroke-width="1.2" points="369.85,-2429.15 367.07,-2434.87 372.81,-2432.14 369.85,-2429.15"/>
</g>
<!-- L2 -->
<g id="node3" class="node">
<title>L2</title>
<path fill="#1a2e4a" stroke="#3a80c0" stroke-width="2.5" d="M438.5,-1732C438.5,-1732 35.5,-1732 35.5,-1732 29.5,-1732 23.5,-1726 23.5,-1720 23.5,-1720 23.5,-1473 23.5,-1473 23.5,-1467 29.5,-1461 35.5,-1461 35.5,-1461 438.5,-1461 438.5,-1461 444.5,-1461 450.5,-1467 450.5,-1473 450.5,-1473 450.5,-1720 450.5,-1720 450.5,-1726 444.5,-1732 438.5,-1732"/>
<polygon fill="#1a2e4a" stroke="transparent" points="23.5,-1461 23.5,-1732 450.5,-1732 450.5,-1461 23.5,-1461"/>
<polygon fill="#0e1e38" stroke="transparent" points="24,-1696.5 24,-1731.5 451,-1731.5 451,-1696.5 24,-1696.5"/>
<text text-anchor="start" x="171.5" y="-1711.3" font-family="Helvetica,sans-Serif" font-size="14.00" fill="#d0e4f8"> &#160;&#160;&#160;</text>
<text text-anchor="start" x="190.5" y="-1711.3" font-family="Helvetica,sans-Serif" font-weight="bold" font-size="10.00" fill="#4888b8">◆◆◆   TIER 2   ◆◆◆</text>
<text text-anchor="start" x="293.5" y="-1711.3" font-family="Helvetica,sans-Serif" font-size="14.00" fill="#d0e4f8"> &#160;</text>
<text text-anchor="start" x="40" y="-1669.5" font-family="Helvetica,sans-Serif" font-size="14.00" fill="#d0e4f8"> &#160;&#160;&#160;</text>
<text text-anchor="start" x="59" y="-1669.5" font-family="Helvetica,sans-Serif" font-weight="bold" font-size="15.00" fill="#90c8f8">L2 &#160;· &#160;Parametric Observability Exploration</text>
<text text-anchor="start" x="421" y="-1669.5" font-family="Helvetica,sans-Serif" font-size="14.00" fill="#d0e4f8"> &#160;</text>
<text text-anchor="start" x="40" y="-1621.3" font-family="Helvetica,sans-Serif" font-size="14.00" fill="#d0e4f8"> &#160;&#160;&#160;</text>
<text text-anchor="start" x="59" y="-1621.3" font-family="Helvetica,sans-Serif" font-style="italic" font-size="11.00" fill="#9ab8d8">Unlock: “How does it change with angle, frequency, polarization?”</text>
<text text-anchor="start" x="425" y="-1621.3" font-family="Helvetica,sans-Serif" font-size="14.00" fill="#d0e4f8"> &#160;</text>
<text text-anchor="start" x="40" y="-1574.3" font-family="Helvetica,sans-Serif" font-size="14.00" fill="#d0e4f8"> &#160;&#160;&#160;</text>
<text text-anchor="start" x="59" y="-1574.3" font-family="Helvetica,sans-Serif" font-size="11.00" fill="#c8daf0">• Azimuth / elevation aspect sweeps</text>
<text text-anchor="start" x="40" y="-1562.7" font-family="Helvetica,sans-Serif" font-size="11.00" fill="#c8daf0">• Frequency sweep analysis</text>
<text text-anchor="start" x="40" y="-1551.7" font-family="Helvetica,sans-Serif" font-size="11.00" fill="#c8daf0">• Polarization comparison: HH / VV / HV</text>
<text text-anchor="start" x="40" y="-1540.7" font-family="Helvetica,sans-Serif" font-size="11.00" fill="#c8daf0">• Multi&#45;geometry morphology comparison</text>
<text text-anchor="start" x="73" y="-1527.3" font-family="Helvetica,sans-Serif" font-size="11.00" fill="#c8daf0">• Scripted batch solver runs</text>
<text text-anchor="start" x="229" y="-1527.3" font-family="Helvetica,sans-Serif" font-size="14.00" fill="#d0e4f8"> &#160;</text>
<text text-anchor="start" x="40" y="-1481.3" font-family="Helvetica,sans-Serif" font-size="14.00" fill="#d0e4f8"> &#160;&#160;&#160;</text>
<text text-anchor="start" x="59" y="-1481.3" font-family="Helvetica,sans-Serif" font-style="italic" font-size="10.00" fill="#506878">Dedicated EM team &#160;| &#160;Shared compute cluster</text>
<text text-anchor="start" x="286" y="-1481.3" font-family="Helvetica,sans-Serif" font-size="14.00" fill="#d0e4f8"> &#160;</text>
</g>
<!-- L1&#45;&gt;L2 -->
<g id="edge2" class="edge">
<title>L1&#45;&gt;L2</title>
<path fill="none" stroke="#4a90d8" stroke-width="3" d="M237,-1947.72C237,-1884.13 237,-1808.12 237,-1743.2"/>
<polygon fill="#4a90d8" stroke="#4a90d8" stroke-width="3" points="240.85,-1743.05 237,-1732.05 233.15,-1743.05 240.85,-1743.05"/>
</g>
<!-- L1&#45;&gt;FDTD -->
<g id="edge19" class="edge">
<title>L1&#45;&gt;FDTD</title>
<path fill="none" stroke="#a060e0" stroke-width="1.2" stroke-dasharray="5,2" d="M434.45,-1985.26C495.95,-1975.82 557.45,-1986.15 618.94,-2016.24"/>
<polygon fill="#a060e0" stroke="#a060e0" stroke-width="1.2" points="434.08,-1983.19 428.5,-1986.23 434.76,-1987.33 434.08,-1983.19"/>
</g>
<!-- L1&#45;&gt;FDTD -->
<!-- L3 -->
<g id="node4" class="node">
<title>L3</title>
<path fill="#1c3460" stroke="#3a80c0" stroke-width="2.5" d="M396,-1245C396,-1245 78,-1245 78,-1245 72,-1245 66,-1239 66,-1233 66,-1233 66,-986 66,-986 66,-980 72,-974 78,-974 78,-974 396,-974 396,-974 402,-974 408,-980 408,-986 408,-986 408,-1233 408,-1233 408,-1239 402,-1245 396,-1245"/>
<polygon fill="#1c3460" stroke="transparent" points="66,-974 66,-1245 408,-1245 408,-974 66,-974"/>
<polygon fill="#0e2040" stroke="transparent" points="66,-1209.5 66,-1244.5 408,-1244.5 408,-1209.5 66,-1209.5"/>
<text text-anchor="start" x="171" y="-1224.3" font-family="Helvetica,sans-Serif" font-size="14.00" fill="#d0e4f8"> &#160;&#160;&#160;</text>
<text text-anchor="start" x="190" y="-1224.3" font-family="Helvetica,sans-Serif" font-weight="bold" font-size="10.00" fill="#4888b8">◆◆◆   TIER 3   ◆◆◆</text>
<text text-anchor="start" x="293" y="-1224.3" font-family="Helvetica,sans-Serif" font-size="14.00" fill="#d0e4f8"> &#160;</text>
<text text-anchor="start" x="82" y="-1182.5" font-family="Helvetica,sans-Serif" font-size="14.00" fill="#d0e4f8"> &#160;&#160;&#160;</text>
<text text-anchor="start" x="101" y="-1182.5" font-family="Helvetica,sans-Serif" font-weight="bold" font-size="15.00" fill="#70b0e8">L3 &#160;· &#160;Calibrated RCS Engineering</text>
<text text-anchor="start" x="382" y="-1182.5" font-family="Helvetica,sans-Serif" font-size="14.00" fill="#d0e4f8"> &#160;</text>
<text text-anchor="start" x="82" y="-1134.3" font-family="Helvetica,sans-Serif" font-size="14.00" fill="#d0e4f8"> &#160;&#160;&#160;</text>
<text text-anchor="start" x="101" y="-1134.3" font-family="Helvetica,sans-Serif" font-style="italic" font-size="11.00" fill="#9ab8d8">Unlock: “Can we trust the numbers?”</text>
<text text-anchor="start" x="307" y="-1134.3" font-family="Helvetica,sans-Serif" font-size="14.00" fill="#d0e4f8"> &#160;</text>
<text text-anchor="start" x="82" y="-1087.3" font-family="Helvetica,sans-Serif" font-size="14.00" fill="#d0e4f8"> &#160;&#160;&#160;</text>
<text text-anchor="start" x="101" y="-1087.3" font-family="Helvetica,sans-Serif" font-size="11.00" fill="#c8daf0">• Calibrated far&#45;field RCS extraction</text>
<text text-anchor="start" x="82" y="-1075.7" font-family="Helvetica,sans-Serif" font-size="11.00" fill="#c8daf0">• Bistatic scattering pattern analysis</text>
<text text-anchor="start" x="82" y="-1064.7" font-family="Helvetica,sans-Serif" font-size="11.00" fill="#c8daf0">• Polarimetric characterization</text>
<text text-anchor="start" x="82" y="-1053.7" font-family="Helvetica,sans-Serif" font-size="11.00" fill="#c8daf0">• Cross&#45;solver verification</text>
<text text-anchor="start" x="96" y="-1040.3" font-family="Helvetica,sans-Serif" font-size="11.00" fill="#c8daf0">• Geometry sensitivity mapping</text>
<text text-anchor="start" x="274" y="-1040.3" font-family="Helvetica,sans-Serif" font-size="14.00" fill="#d0e4f8"> &#160;</text>
<text text-anchor="start" x="82" y="-994.3" font-family="Helvetica,sans-Serif" font-size="14.00" fill="#d0e4f8"> &#160;&#160;&#160;</text>
<text text-anchor="start" x="101" y="-994.3" font-family="Helvetica,sans-Serif" font-style="italic" font-size="10.00" fill="#506878">Multi&#45;discipline team &#160;| &#160;HPC cluster</text>
<text text-anchor="start" x="276" y="-994.3" font-family="Helvetica,sans-Serif" font-size="14.00" fill="#d0e4f8"> &#160;</text>
</g>
<!-- L2&#45;&gt;L3 -->
<g id="edge3" class="edge">
<title>L2&#45;&gt;L3</title>
<path fill="none" stroke="#4a90d8" stroke-width="3" d="M237,-1460.72C237,-1397.13 237,-1321.12 237,-1256.2"/>
<polygon fill="#4a90d8" stroke="#4a90d8" stroke-width="3" points="240.85,-1256.05 237,-1245.05 233.15,-1256.05 240.85,-1256.05"/>
</g>
<!-- L2&#45;&gt;FDTD -->
<g id="edge20" class="edge">
<title>L2&#45;&gt;FDTD</title>
<path fill="none" stroke="#a060e0" stroke-width="1.2" stroke-dasharray="5,2" d="M375.52,-1736.6C466.6,-1828.05 581.71,-1943.64 653.09,-2015.32"/>
<polygon fill="#a060e0" stroke="#a060e0" stroke-width="1.2" points="376.93,-1735.03 371.21,-1732.26 373.95,-1738 376.93,-1735.03"/>
</g>
<!-- FEM -->
<g id="node13" class="node">
<title>FEM</title>
<path fill="#1c1028" stroke="#6a3a98" stroke-width="1.5" d="M679.5,-1177.5C679.5,-1177.5 490.5,-1177.5 490.5,-1177.5 484.5,-1177.5 478.5,-1171.5 478.5,-1165.5 478.5,-1165.5 478.5,-1053.5 478.5,-1053.5 478.5,-1047.5 484.5,-1041.5 490.5,-1041.5 490.5,-1041.5 679.5,-1041.5 679.5,-1041.5 685.5,-1041.5 691.5,-1047.5 691.5,-1053.5 691.5,-1053.5 691.5,-1165.5 691.5,-1165.5 691.5,-1171.5 685.5,-1177.5 679.5,-1177.5"/>
<text text-anchor="middle" x="585" y="-1155.7" font-family="Helvetica,sans-Serif" font-size="11.00" fill="#c090f0">FEM</text>
<text text-anchor="middle" x="585" y="-1143.7" font-family="Helvetica,sans-Serif" font-size="11.00" fill="#c090f0">Finite Element Method</text>
<text text-anchor="middle" x="585" y="-1118.7" font-family="Helvetica,sans-Serif" font-size="11.00" fill="#c090f0">+ Adaptive meshing</text>
<text text-anchor="middle" x="585" y="-1106.7" font-family="Helvetica,sans-Serif" font-size="11.00" fill="#c090f0">+ Complex boundary conditions</text>
<text text-anchor="middle" x="585" y="-1094.7" font-family="Helvetica,sans-Serif" font-size="11.00" fill="#c090f0">+ Cavity / material detail</text>
<text text-anchor="middle" x="585" y="-1069.7" font-family="Helvetica,sans-Serif" font-size="11.00" fill="#c090f0">− Less suited for</text>
<text text-anchor="middle" x="585" y="-1057.7" font-family="Helvetica,sans-Serif" font-size="11.00" fill="#c090f0"> &#160;open far&#45;field scattering</text>
</g>
<!-- L2&#45;&gt;FEM -->
<g id="edge21" class="edge">
<title>L2&#45;&gt;FEM</title>
<path fill="none" stroke="#a060e0" stroke-width="1.2" stroke-dasharray="5,2" d="M337.21,-1455.84C402.75,-1364.5 485.43,-1249.27 536.76,-1177.73"/>
<polygon fill="#a060e0" stroke="#a060e0" stroke-width="1.2" points="335.5,-1454.62 333.71,-1460.72 338.91,-1457.07 335.5,-1454.62"/>
</g>
<!-- A1 -->
<g id="node15" class="node">
<title>A1</title>
<path fill="#180e08" stroke="#5a3810" stroke-width="1.5" d="M803.5,-1634C803.5,-1634 646.5,-1634 646.5,-1634 640.5,-1634 634.5,-1628 634.5,-1622 634.5,-1622 634.5,-1571 634.5,-1571 634.5,-1565 640.5,-1559 646.5,-1559 646.5,-1559 803.5,-1559 803.5,-1559 809.5,-1559 815.5,-1565 815.5,-1571 815.5,-1571 815.5,-1622 815.5,-1622 815.5,-1628 809.5,-1634 803.5,-1634"/>
<text text-anchor="middle" x="725" y="-1612.2" font-family="Helvetica,sans-Serif" font-size="11.00" fill="#c07828">A1 &#160;· &#160;Scripted Batch Runs</text>
<text text-anchor="middle" x="725" y="-1587.2" font-family="Helvetica,sans-Serif" font-size="11.00" fill="#c07828">Repeatable pipelines</text>
<text text-anchor="middle" x="725" y="-1575.2" font-family="Helvetica,sans-Serif" font-size="11.00" fill="#c07828">Basic parameter loops</text>
</g>
<!-- L2&#45;&gt;A1 -->
<g id="edge27" class="edge">
<title>L2&#45;&gt;A1</title>
<path fill="none" stroke="#c08040" stroke-width="1.2" stroke-dasharray="5,2" d="M457.09,-1495.85C529.63,-1489.93 602.16,-1510.95 674.69,-1558.91"/>
<polygon fill="#c08040" stroke="#c08040" stroke-width="1.2" points="456.76,-1493.77 450.98,-1496.41 457.14,-1497.95 456.76,-1493.77"/>
</g>
<!-- L2&#45;&gt;A1 -->
<!-- L4 -->
<g id="node5" class="node">
<title>L4</title>
<path fill="#123a70" stroke="#3a80c0" stroke-width="2.5" d="M415.5,-758C415.5,-758 58.5,-758 58.5,-758 52.5,-758 46.5,-752 46.5,-746 46.5,-746 46.5,-499 46.5,-499 46.5,-493 52.5,-487 58.5,-487 58.5,-487 415.5,-487 415.5,-487 421.5,-487 427.5,-493 427.5,-499 427.5,-499 427.5,-746 427.5,-746 427.5,-752 421.5,-758 415.5,-758"/>
<polygon fill="#123a70" stroke="transparent" points="46.5,-487 46.5,-758 427.5,-758 427.5,-487 46.5,-487"/>
<polygon fill="#0a2248" stroke="transparent" points="47,-722.5 47,-757.5 428,-757.5 428,-722.5 47,-722.5"/>
<text text-anchor="start" x="171.5" y="-737.3" font-family="Helvetica,sans-Serif" font-size="14.00" fill="#d0e4f8"> &#160;&#160;&#160;</text>
<text text-anchor="start" x="190.5" y="-737.3" font-family="Helvetica,sans-Serif" font-weight="bold" font-size="10.00" fill="#407898">◆◆◆   TIER 4   ◆◆◆</text>
<text text-anchor="start" x="293.5" y="-737.3" font-family="Helvetica,sans-Serif" font-size="14.00" fill="#d0e4f8"> &#160;</text>
<text text-anchor="start" x="63" y="-695.5" font-family="Helvetica,sans-Serif" font-size="14.00" fill="#d0e4f8"> &#160;&#160;&#160;</text>
<text text-anchor="start" x="82" y="-695.5" font-family="Helvetica,sans-Serif" font-weight="bold" font-size="15.00" fill="#50a0d8">L4 &#160;· &#160;Integrated Observability Design</text>
<text text-anchor="start" x="402" y="-695.5" font-family="Helvetica,sans-Serif" font-size="14.00" fill="#d0e4f8"> &#160;</text>
<text text-anchor="start" x="63" y="-647.3" font-family="Helvetica,sans-Serif" font-size="14.00" fill="#d0e4f8"> &#160;&#160;&#160;</text>
<text text-anchor="start" x="82" y="-647.3" font-family="Helvetica,sans-Serif" font-style="italic" font-size="11.00" fill="#9ab8d8">Unlock: “Observability becomes a design variable.”</text>
<text text-anchor="start" x="367" y="-647.3" font-family="Helvetica,sans-Serif" font-size="14.00" fill="#d0e4f8"> &#160;</text>
<text text-anchor="start" x="63" y="-600.3" font-family="Helvetica,sans-Serif" font-size="14.00" fill="#d0e4f8"> &#160;&#160;&#160;</text>
<text text-anchor="start" x="82" y="-600.3" font-family="Helvetica,sans-Serif" font-size="11.00" fill="#c8daf0">• Multi&#45;aspect observability envelope</text>
<text text-anchor="start" x="63" y="-588.7" font-family="Helvetica,sans-Serif" font-size="11.00" fill="#c8daf0">• Aero / structure vs. observability trade studies</text>
<text text-anchor="start" x="63" y="-577.7" font-family="Helvetica,sans-Serif" font-size="11.00" fill="#c8daf0">• Monte Carlo design space exploration</text>
<text text-anchor="start" x="63" y="-566.7" font-family="Helvetica,sans-Serif" font-size="11.00" fill="#c8daf0">• Parametric airframe generation</text>
<text text-anchor="start" x="106" y="-553.3" font-family="Helvetica,sans-Serif" font-size="11.00" fill="#c8daf0">• Surrogate model acceleration</text>
<text text-anchor="start" x="280" y="-553.3" font-family="Helvetica,sans-Serif" font-size="14.00" fill="#d0e4f8"> &#160;</text>
<text text-anchor="start" x="63" y="-507.3" font-family="Helvetica,sans-Serif" font-size="14.00" fill="#d0e4f8"> &#160;&#160;&#160;</text>
<text text-anchor="start" x="82" y="-507.3" font-family="Helvetica,sans-Serif" font-style="italic" font-size="10.00" fill="#506878">Program&#45;level &#160;| &#160;EM + aero + structures team</text>
<text text-anchor="start" x="309" y="-507.3" font-family="Helvetica,sans-Serif" font-size="14.00" fill="#d0e4f8"> &#160;</text>
</g>
<!-- L3&#45;&gt;L4 -->
<g id="edge4" class="edge">
<title>L3&#45;&gt;L4</title>
<path fill="none" stroke="#4a90d8" stroke-width="3" d="M237,-973.72C237,-910.13 237,-834.12 237,-769.2"/>
<polygon fill="#4a90d8" stroke="#4a90d8" stroke-width="3" points="240.85,-769.05 237,-758.05 233.15,-769.05 240.85,-769.05"/>
</g>
<!-- L3&#45;&gt;FEM -->
<g id="edge22" class="edge">
<title>L3&#45;&gt;FEM</title>
<path fill="none" stroke="#a060e0" stroke-width="1.2" stroke-dasharray="5,2" d="M414.29,-1007.91C446.46,-1008.62 478.62,-1019.75 510.79,-1041.3"/>
<polygon fill="#a060e0" stroke="#a060e0" stroke-width="1.2" points="414.29,-1005.81 408.28,-1007.9 414.28,-1010.01 414.29,-1005.81"/>
</g>
<!-- L3&#45;&gt;FEM -->
<!-- MoM -->
<g id="node14" class="node">
<title>MoM</title>
<path fill="#201430" stroke="#6a3a98" stroke-width="1.5" d="M682,-690.5C682,-690.5 498,-690.5 498,-690.5 492,-690.5 486,-684.5 486,-678.5 486,-678.5 486,-566.5 486,-566.5 486,-560.5 492,-554.5 498,-554.5 498,-554.5 682,-554.5 682,-554.5 688,-554.5 694,-560.5 694,-566.5 694,-566.5 694,-678.5 694,-678.5 694,-684.5 688,-690.5 682,-690.5"/>
<text text-anchor="middle" x="590" y="-668.7" font-family="Helvetica,sans-Serif" font-size="11.00" fill="#b080e8">MoM</text>
<text text-anchor="middle" x="590" y="-656.7" font-family="Helvetica,sans-Serif" font-size="11.00" fill="#b080e8">Method of Moments</text>
<text text-anchor="middle" x="590" y="-631.7" font-family="Helvetica,sans-Serif" font-size="11.00" fill="#b080e8">+ Surface discretization</text>
<text text-anchor="middle" x="590" y="-619.7" font-family="Helvetica,sans-Serif" font-size="11.00" fill="#b080e8">+ Large metallic sweeps</text>
<text text-anchor="middle" x="590" y="-607.7" font-family="Helvetica,sans-Serif" font-size="11.00" fill="#b080e8">+ Design&#45;space efficiency</text>
<text text-anchor="middle" x="590" y="-582.7" font-family="Helvetica,sans-Serif" font-size="11.00" fill="#b080e8">− Limited volumetric materials</text>
<text text-anchor="middle" x="590" y="-570.7" font-family="Helvetica,sans-Serif" font-size="11.00" fill="#b080e8">− Dense matrix O(N²)</text>
</g>
<!-- L3&#45;&gt;MoM -->
<g id="edge24" class="edge">
<title>L3&#45;&gt;MoM</title>
<path fill="none" stroke="#a060e0" stroke-width="1.2" stroke-dasharray="5,2" d="M338.65,-968.84C405.13,-877.5 489,-762.27 541.07,-690.73"/>
<polygon fill="#a060e0" stroke="#a060e0" stroke-width="1.2" points="336.93,-967.64 335.1,-973.72 340.32,-970.11 336.93,-967.64"/>
</g>
<!-- A2 -->
<g id="node16" class="node">
<title>A2</title>
<path fill="#1e1008" stroke="#6a4818" stroke-width="1.5" d="M937,-1147C937,-1147 771,-1147 771,-1147 765,-1147 759,-1141 759,-1135 759,-1135 759,-1084 759,-1084 759,-1078 765,-1072 771,-1072 771,-1072 937,-1072 937,-1072 943,-1072 949,-1078 949,-1084 949,-1084 949,-1135 949,-1135 949,-1141 943,-1147 937,-1147"/>
<text text-anchor="middle" x="854" y="-1125.2" font-family="Helvetica,sans-Serif" font-size="11.00" fill="#d08838">A2 &#160;· &#160;Parametric Sweeps</text>
<text text-anchor="middle" x="854" y="-1100.2" font-family="Helvetica,sans-Serif" font-size="11.00" fill="#d08838">Structured geometry</text>
<text text-anchor="middle" x="854" y="-1088.2" font-family="Helvetica,sans-Serif" font-size="11.00" fill="#d08838">exploration + data handling</text>
</g>
<!-- L3&#45;&gt;A2 -->
<g id="edge28" class="edge">
<title>L3&#45;&gt;A2</title>
<path fill="none" stroke="#c08040" stroke-width="1.2" stroke-dasharray="5,2" d="M339.94,-1249.58C378.46,-1290.88 425.91,-1330.91 479,-1353 566.4,-1389.36 608.56,-1397.71 692,-1353 773.68,-1309.24 821.23,-1204.12 841.81,-1147.37"/>
<polygon fill="#c08040" stroke="#c08040" stroke-width="1.2" points="341.38,-1248.04 335.77,-1245.06 338.3,-1250.89 341.38,-1248.04"/>
</g>
<!-- L5 -->
<g id="node6" class="node">
<title>L5</title>
<path fill="#0c3498" stroke="#3a80c0" stroke-width="2.5" d="M462,-271C462,-271 12,-271 12,-271 6,-271 0,-265 0,-259 0,-259 0,-12 0,-12 0,-6 6,0 12,0 12,0 462,0 462,0 468,0 474,-6 474,-12 474,-12 474,-259 474,-259 474,-265 468,-271 462,-271"/>
<polygon fill="#0c3498" stroke="transparent" points="0,0 0,-271 474,-271 474,0 0,0"/>
<polygon fill="#061a50" stroke="transparent" points="0,-235.5 0,-270.5 474,-270.5 474,-235.5 0,-235.5"/>
<text text-anchor="start" x="171" y="-250.3" font-family="Helvetica,sans-Serif" font-size="14.00" fill="#d0e4f8"> &#160;&#160;&#160;</text>
<text text-anchor="start" x="190" y="-250.3" font-family="Helvetica,sans-Serif" font-weight="bold" font-size="10.00" fill="#3870a0">◆◆◆   TIER 5   ◆◆◆</text>
<text text-anchor="start" x="293" y="-250.3" font-family="Helvetica,sans-Serif" font-size="14.00" fill="#d0e4f8"> &#160;</text>
<text text-anchor="start" x="16" y="-208.5" font-family="Helvetica,sans-Serif" font-size="14.00" fill="#d0e4f8"> &#160;&#160;&#160;</text>
<text text-anchor="start" x="35" y="-208.5" font-family="Helvetica,sans-Serif" font-weight="bold" font-size="15.00" fill="#40a0ff">L5 &#160;· &#160;Closed&#45;Loop Observability Optimization</text>
<text text-anchor="start" x="420" y="-208.5" font-family="Helvetica,sans-Serif" font-size="14.00" fill="#d0e4f8"> &#160;</text>
<text text-anchor="start" x="16" y="-160.3" font-family="Helvetica,sans-Serif" font-size="14.00" fill="#d0e4f8"> &#160;&#160;&#160;</text>
<text text-anchor="start" x="35" y="-160.3" font-family="Helvetica,sans-Serif" font-style="italic" font-size="11.00" fill="#9ab8d8">Unlock: “Automated exploration and optimization of aircraft observability.”</text>
<text text-anchor="start" x="448" y="-160.3" font-family="Helvetica,sans-Serif" font-size="14.00" fill="#d0e4f8"> &#160;</text>
<text text-anchor="start" x="16" y="-113.3" font-family="Helvetica,sans-Serif" font-size="14.00" fill="#d0e4f8"> &#160;&#160;&#160;</text>
<text text-anchor="start" x="35" y="-113.3" font-family="Helvetica,sans-Serif" font-size="11.00" fill="#c8daf0">• AI&#45;driven geometry exploration</text>
<text text-anchor="start" x="16" y="-101.7" font-family="Helvetica,sans-Serif" font-size="11.00" fill="#c8daf0">• Monte Carlo + gradient refinement</text>
<text text-anchor="start" x="16" y="-90.7" font-family="Helvetica,sans-Serif" font-size="11.00" fill="#c8daf0">• Adjoint sensitivity methods</text>
<text text-anchor="start" x="16" y="-79.7" font-family="Helvetica,sans-Serif" font-size="11.00" fill="#c8daf0">• Surrogate&#45;accelerated optimization</text>
<text text-anchor="start" x="36.5" y="-66.3" font-family="Helvetica,sans-Serif" font-size="11.00" fill="#c8daf0">• Uncertainty quantification</text>
<text text-anchor="start" x="190.5" y="-66.3" font-family="Helvetica,sans-Serif" font-size="14.00" fill="#d0e4f8"> &#160;</text>
<text text-anchor="start" x="16" y="-20.3" font-family="Helvetica,sans-Serif" font-size="14.00" fill="#d0e4f8"> &#160;&#160;&#160;</text>
<text text-anchor="start" x="35" y="-20.3" font-family="Helvetica,sans-Serif" font-style="italic" font-size="10.00" fill="#506878">Major aerospace program &#160;| &#160;Formal EM discipline</text>
<text text-anchor="start" x="277" y="-20.3" font-family="Helvetica,sans-Serif" font-size="14.00" fill="#d0e4f8"> &#160;</text>
</g>
<!-- L4&#45;&gt;L5 -->
<g id="edge5" class="edge">
<title>L4&#45;&gt;L5</title>
<path fill="none" stroke="#4a90d8" stroke-width="3" d="M237,-486.72C237,-423.13 237,-347.12 237,-282.2"/>
<polygon fill="#4a90d8" stroke="#4a90d8" stroke-width="3" points="240.85,-282.05 237,-271.05 233.15,-282.05 240.85,-282.05"/>
</g>
<!-- L4&#45;&gt;FEM -->
<g id="edge23" class="edge">
<title>L4&#45;&gt;FEM</title>
<path fill="none" stroke="#a060e0" stroke-width="1.2" stroke-dasharray="5,2" d="M337.2,-763.14C402.75,-854.51 485.46,-969.78 536.79,-1041.32"/>
<polygon fill="#a060e0" stroke="#a060e0" stroke-width="1.2" points="338.9,-761.91 333.7,-758.26 335.49,-764.36 338.9,-761.91"/>
</g>
<!-- L4&#45;&gt;MoM -->
<g id="edge25" class="edge">
<title>L4&#45;&gt;MoM</title>
<path fill="none" stroke="#a060e0" stroke-width="1.2" stroke-dasharray="5,2" d="M433.77,-522.21C460.79,-525.79 487.82,-536.51 514.84,-554.38"/>
<polygon fill="#a060e0" stroke="#a060e0" stroke-width="1.2" points="433.83,-520.11 427.63,-521.53 433.36,-524.28 433.83,-520.11"/>
</g>
<!-- L4&#45;&gt;MoM -->
<!-- A3 -->
<g id="node17" class="node">
<title>A3</title>
<path fill="#241408" stroke="#7a5828" stroke-width="1.5" d="M942,-660C942,-660 764,-660 764,-660 758,-660 752,-654 752,-648 752,-648 752,-597 752,-597 752,-591 758,-585 764,-585 764,-585 942,-585 942,-585 948,-585 954,-591 954,-597 954,-597 954,-648 954,-648 954,-654 948,-660 942,-660"/>
<text text-anchor="middle" x="853" y="-638.2" font-family="Helvetica,sans-Serif" font-size="11.00" fill="#d89848">A3 &#160;· &#160;Monte Carlo Exploration</text>
<text text-anchor="middle" x="853" y="-613.2" font-family="Helvetica,sans-Serif" font-size="11.00" fill="#d89848">Sensitivity mapping</text>
<text text-anchor="middle" x="853" y="-601.2" font-family="Helvetica,sans-Serif" font-size="11.00" fill="#d89848">Multi&#45;run comparison</text>
</g>
<!-- L4&#45;&gt;A3 -->
<g id="edge29" class="edge">
<title>L4&#45;&gt;A3</title>
<path fill="none" stroke="#c08040" stroke-width="1.2" stroke-dasharray="5,2" d="M343.63,-762.65C383.31,-803.97 431.98,-843.98 486,-866 571.6,-900.9 612.7,-910.01 694,-866 775.03,-822.14 821.34,-717.06 841.24,-660.34"/>
<polygon fill="#c08040" stroke="#c08040" stroke-width="1.2" points="344.98,-761.03 339.33,-758.13 341.94,-763.93 344.98,-761.03"/>
</g>
<!-- L5&#45;&gt;MoM -->
<g id="edge26" class="edge">
<title>L5&#45;&gt;MoM</title>
<path fill="none" stroke="#a060e0" stroke-width="1.2" stroke-dasharray="5,2" d="M338.64,-276.14C405.13,-367.51 489.03,-482.78 541.1,-554.32"/>
<polygon fill="#a060e0" stroke="#a060e0" stroke-width="1.2" points="340.31,-274.88 335.08,-271.26 336.92,-277.35 340.31,-274.88"/>
</g>
<!-- A4 -->
<g id="node18" class="node">
<title>A4</title>
<path fill="#2a1a08" stroke="#8a6838" stroke-width="1.5" d="M838.5,-179C838.5,-179 651.5,-179 651.5,-179 645.5,-179 639.5,-173 639.5,-167 639.5,-167 639.5,-104 639.5,-104 639.5,-98 645.5,-92 651.5,-92 651.5,-92 838.5,-92 838.5,-92 844.5,-92 850.5,-98 850.5,-104 850.5,-104 850.5,-167 850.5,-167 850.5,-173 844.5,-179 838.5,-179"/>
<text text-anchor="middle" x="745" y="-157.2" font-family="Helvetica,sans-Serif" font-size="11.00" fill="#e0a858">A4 &#160;· &#160;Surrogate + Optimization</text>
<text text-anchor="middle" x="745" y="-132.2" font-family="Helvetica,sans-Serif" font-size="11.00" fill="#e0a858">ML model acceleration</text>
<text text-anchor="middle" x="745" y="-120.2" font-family="Helvetica,sans-Serif" font-size="11.00" fill="#e0a858">Multi&#45;objective loops</text>
<text text-anchor="middle" x="745" y="-108.2" font-family="Helvetica,sans-Serif" font-size="11.00" fill="#e0a858">Adjoint gradient descent</text>
</g>
<!-- L5&#45;&gt;A4 -->
<g id="edge30" class="edge">
<title>L5&#45;&gt;A4</title>
<path fill="none" stroke="#c08040" stroke-width="1.2" stroke-dasharray="5,2" d="M480.25,-34.06C547.78,-31.77 615.31,-51.03 682.84,-91.84"/>
<polygon fill="#c08040" stroke="#c08040" stroke-width="1.2" points="480.04,-31.96 474.13,-34.32 480.22,-36.16 480.04,-31.96"/>
</g>
<!-- L5&#45;&gt;A4 -->
<!-- V0 -->
<g id="node7" class="node">
<title>V0</title>
<path fill="#0a1810" stroke="#1a4028" stroke-width="1.5" d="M1167.5,-2602.5C1167.5,-2602.5 1034.5,-2602.5 1034.5,-2602.5 1028.5,-2602.5 1022.5,-2596.5 1022.5,-2590.5 1022.5,-2590.5 1022.5,-2539.5 1022.5,-2539.5 1022.5,-2533.5 1028.5,-2527.5 1034.5,-2527.5 1034.5,-2527.5 1167.5,-2527.5 1167.5,-2527.5 1173.5,-2527.5 1179.5,-2533.5 1179.5,-2539.5 1179.5,-2539.5 1179.5,-2590.5 1179.5,-2590.5 1179.5,-2596.5 1173.5,-2602.5 1167.5,-2602.5"/>
<text text-anchor="middle" x="1101" y="-2580.7" font-family="Helvetica,sans-Serif" font-size="11.00" fill="#507060">V0 &#160;· &#160;No Validation</text>
<text text-anchor="middle" x="1101" y="-2555.7" font-family="Helvetica,sans-Serif" font-size="11.00" fill="#507060">Anecdotal correlation</text>
<text text-anchor="middle" x="1101" y="-2543.7" font-family="Helvetica,sans-Serif" font-size="11.00" fill="#507060">to known returns only</text>
</g>
<!-- V0&#45;&gt;L0 -->
<!-- V1 -->
<g id="node8" class="node">
<title>V1</title>
<path fill="#0e2018" stroke="#d4a800" stroke-width="3" d="M1179.5,-2121C1179.5,-2121 1022.5,-2121 1022.5,-2121 1016.5,-2121 1010.5,-2115 1010.5,-2109 1010.5,-2109 1010.5,-2058 1010.5,-2058 1010.5,-2052 1016.5,-2046 1022.5,-2046 1022.5,-2046 1179.5,-2046 1179.5,-2046 1185.5,-2046 1191.5,-2052 1191.5,-2058 1191.5,-2058 1191.5,-2109 1191.5,-2109 1191.5,-2115 1185.5,-2121 1179.5,-2121"/>
<text text-anchor="middle" x="1101" y="-2099.2" font-family="Helvetica,sans-Serif" font-size="11.00" fill="#80c888">V1 &#160;· &#160;Canonical Validation</text>
<text text-anchor="middle" x="1101" y="-2074.2" font-family="Helvetica,sans-Serif" font-size="11.00" fill="#80c888">Sphere comparison</text>
<text text-anchor="middle" x="1101" y="-2062.2" font-family="Helvetica,sans-Serif" font-size="11.00" fill="#80c888">Analytical benchmarks</text>
</g>
<!-- V0&#45;&gt;V1 -->
<g id="edge6" class="edge">
<title>V0&#45;&gt;V1</title>
<path fill="none" stroke="#2a7050" stroke-width="2" d="M1101,-2527.17C1101,-2440.42 1101,-2223.49 1101,-2129.31"/>
<polygon fill="#2a7050" stroke="#2a7050" stroke-width="2" points="1103.8,-2129.13 1101,-2121.13 1098.2,-2129.13 1103.8,-2129.13"/>
</g>
<!-- V1&#45;&gt;L1 -->
<g id="edge13" class="edge">
<title>V1&#45;&gt;L1</title>
<path fill="none" stroke="#30a060" stroke-width="1.2" stroke-dasharray="5,2" d="M1067.59,-2121.39C1020.58,-2171.51 929.55,-2257.43 830.67,-2291 698.11,-2336.01 549.42,-2283.88 434,-2220.63"/>
<polygon fill="#30a060" stroke="#30a060" stroke-width="1.2" points="434.8,-2218.67 428.53,-2217.61 432.77,-2222.35 434.8,-2218.67"/>
<text text-anchor="middle" x="737.74" y="-2317.47" font-family="Helvetica,sans-Serif" font-size="8.00" fill="#607890">enables</text>
<text text-anchor="middle" x="737.74" y="-2308.47" font-family="Helvetica,sans-Serif" font-size="8.00" fill="#607890">engineering</text>
</g>
<!-- V1&#45;&gt;L1 -->
<!-- V2 -->
<g id="node9" class="node">
<title>V2</title>
<path fill="#102818" stroke="#206038" stroke-width="1.5" d="M1190,-1634C1190,-1634 1012,-1634 1012,-1634 1006,-1634 1000,-1628 1000,-1622 1000,-1622 1000,-1571 1000,-1571 1000,-1565 1006,-1559 1012,-1559 1012,-1559 1190,-1559 1190,-1559 1196,-1559 1202,-1565 1202,-1571 1202,-1571 1202,-1622 1202,-1622 1202,-1628 1196,-1634 1190,-1634"/>
<text text-anchor="middle" x="1101" y="-1612.2" font-family="Helvetica,sans-Serif" font-size="11.00" fill="#80c888">V2 &#160;· &#160;Material Coupon Testing</text>
<text text-anchor="middle" x="1101" y="-1587.2" font-family="Helvetica,sans-Serif" font-size="11.00" fill="#80c888">Reflectivity measurement</text>
<text text-anchor="middle" x="1101" y="-1575.2" font-family="Helvetica,sans-Serif" font-size="11.00" fill="#80c888">S&#45;parameter extraction</text>
</g>
<!-- V1&#45;&gt;V2 -->
<g id="edge7" class="edge">
<title>V1&#45;&gt;V2</title>
<path fill="none" stroke="#2a7050" stroke-width="2" d="M1101,-2045.65C1101,-1958.1 1101,-1737.85 1101,-1642.57"/>
<polygon fill="#2a7050" stroke="#2a7050" stroke-width="2" points="1103.8,-1642.3 1101,-1634.3 1098.2,-1642.3 1103.8,-1642.3"/>
</g>
<!-- V2&#45;&gt;L2 -->
<g id="edge14" class="edge">
<title>V2&#45;&gt;L2</title>
<path fill="none" stroke="#30a060" stroke-width="1.2" stroke-dasharray="5,2" d="M1066.82,-1634.41C1018.77,-1684.54 925.85,-1770.48 825.67,-1804 695.43,-1847.58 549.86,-1797.15 436.07,-1735.12"/>
<polygon fill="#30a060" stroke="#30a060" stroke-width="1.2" points="436.95,-1733.2 430.68,-1732.15 434.92,-1736.88 436.95,-1733.2"/>
<text text-anchor="middle" x="746.03" y="-1829.16" font-family="Helvetica,sans-Serif" font-size="8.00" fill="#607890">improves</text>
<text text-anchor="middle" x="746.03" y="-1820.16" font-family="Helvetica,sans-Serif" font-size="8.00" fill="#607890">credibility</text>
</g>
<!-- V2&#45;&gt;L2 -->
<!-- V3 -->
<g id="node10" class="node">
<title>V3</title>
<path fill="#143020" stroke="#286848" stroke-width="1.5" d="M1181,-1147C1181,-1147 1021,-1147 1021,-1147 1015,-1147 1009,-1141 1009,-1135 1009,-1135 1009,-1084 1009,-1084 1009,-1078 1015,-1072 1021,-1072 1021,-1072 1181,-1072 1181,-1072 1187,-1072 1193,-1078 1193,-1084 1193,-1084 1193,-1135 1193,-1135 1193,-1141 1187,-1147 1181,-1147"/>
<text text-anchor="middle" x="1101" y="-1125.2" font-family="Helvetica,sans-Serif" font-size="11.00" fill="#90d0a0">V3 &#160;· &#160;Scaled Model Testing</text>
<text text-anchor="middle" x="1101" y="-1100.2" font-family="Helvetica,sans-Serif" font-size="11.00" fill="#90d0a0">Anechoic chamber runs</text>
<text text-anchor="middle" x="1101" y="-1088.2" font-family="Helvetica,sans-Serif" font-size="11.00" fill="#90d0a0">Subassembly validation</text>
</g>
<!-- V2&#45;&gt;V3 -->
<g id="edge8" class="edge">
<title>V2&#45;&gt;V3</title>
<path fill="none" stroke="#2a7050" stroke-width="2" d="M1101,-1558.65C1101,-1471.1 1101,-1250.85 1101,-1155.57"/>
<polygon fill="#2a7050" stroke="#2a7050" stroke-width="2" points="1103.8,-1155.3 1101,-1147.3 1098.2,-1155.3 1103.8,-1155.3"/>
</g>
<!-- V3&#45;&gt;L3 -->
<g id="edge15" class="edge">
<title>V3&#45;&gt;L3</title>
<path fill="none" stroke="#30a060" stroke-width="1.2" stroke-dasharray="5,2" d="M1087.92,-1147.13C1068.46,-1196.53 1026.69,-1281.17 958.67,-1317 766.24,-1418.35 672.53,-1394.53 469.33,-1317 429.96,-1301.98 393.04,-1276.88 360.71,-1249.23"/>
<polygon fill="#30a060" stroke="#30a060" stroke-width="1.2" points="361.89,-1247.47 355.98,-1245.13 359.14,-1250.64 361.89,-1247.47"/>
<text text-anchor="middle" x="700.59" y="-1395.68" font-family="Helvetica,sans-Serif" font-size="8.00" fill="#607890">required</text>
<text text-anchor="middle" x="700.59" y="-1386.68" font-family="Helvetica,sans-Serif" font-size="8.00" fill="#607890">for trust</text>
</g>
<!-- V3&#45;&gt;L3 -->
<!-- V3&#45;&gt;L4 -->
<g id="edge16" class="edge">
<title>V3&#45;&gt;L4</title>
<path fill="none" stroke="#30a060" stroke-width="1.2" stroke-dasharray="5,2" d="M1074.73,-1071.84C1051.94,-1042.19 1016.6,-1001.07 978,-974 772.76,-830.09 680.39,-871.72 457,-758 449.14,-754 441.19,-749.82 433.2,-745.5"/>
<polygon fill="#30a060" stroke="#30a060" stroke-width="1.2" points="433.94,-743.52 427.67,-742.5 431.94,-747.21 433.94,-743.52"/>
</g>
<!-- V4 -->
<g id="node11" class="node">
<title>V4</title>
<path fill="#183828" stroke="#307858" stroke-width="1.5" d="M1176.5,-660C1176.5,-660 1025.5,-660 1025.5,-660 1019.5,-660 1013.5,-654 1013.5,-648 1013.5,-648 1013.5,-597 1013.5,-597 1013.5,-591 1019.5,-585 1025.5,-585 1025.5,-585 1176.5,-585 1176.5,-585 1182.5,-585 1188.5,-591 1188.5,-597 1188.5,-597 1188.5,-648 1188.5,-648 1188.5,-654 1182.5,-660 1176.5,-660"/>
<text text-anchor="middle" x="1101" y="-638.2" font-family="Helvetica,sans-Serif" font-size="11.00" fill="#a0d8b0">V4 &#160;· &#160;Full Aircraft Range</text>
<text text-anchor="middle" x="1101" y="-613.2" font-family="Helvetica,sans-Serif" font-size="11.00" fill="#a0d8b0">Compact / outdoor range</text>
<text text-anchor="middle" x="1101" y="-601.2" font-family="Helvetica,sans-Serif" font-size="11.00" fill="#a0d8b0">Flight&#45;based validation</text>
</g>
<!-- V3&#45;&gt;V4 -->
<g id="edge9" class="edge">
<title>V3&#45;&gt;V4</title>
<path fill="none" stroke="#2a7050" stroke-width="2" d="M1101,-1071.65C1101,-984.1 1101,-763.85 1101,-668.57"/>
<polygon fill="#2a7050" stroke="#2a7050" stroke-width="2" points="1103.8,-668.3 1101,-660.3 1098.2,-668.3 1103.8,-668.3"/>
</g>
<!-- V4&#45;&gt;L4 -->
<!-- V4&#45;&gt;L5 -->
<g id="edge17" class="edge">
<title>V4&#45;&gt;L5</title>
<path fill="none" stroke="#30a060" stroke-width="1.2" stroke-dasharray="5,2" d="M1075.55,-584.94C1053.67,-555.55 1019.86,-514.73 983,-487 830.02,-371.92 633.2,-281.4 480.14,-221.2"/>
<polygon fill="#30a060" stroke="#30a060" stroke-width="1.2" points="480.61,-219.12 474.26,-218.89 479.08,-223.03 480.61,-219.12"/>
<text text-anchor="middle" x="772.48" y="-378.4" font-family="Helvetica,sans-Serif" font-size="8.00" fill="#607890">required</text>
<text text-anchor="middle" x="772.48" y="-369.4" font-family="Helvetica,sans-Serif" font-size="8.00" fill="#607890">for closure</text>
</g>
<!-- FEM&#45;&gt;A2 -->
<!-- MoM&#45;&gt;A3 -->
<!-- A1&#45;&gt;A2 -->
<g id="edge10" class="edge">
<title>A1&#45;&gt;A2</title>
<path fill="none" stroke="#7a5828" stroke-width="2" d="M734.8,-1558.65C758.11,-1471.01 816.79,-1250.4 842.09,-1155.29"/>
<polygon fill="#7a5828" stroke="#7a5828" stroke-width="2" points="844.86,-1155.75 844.21,-1147.3 839.45,-1154.31 844.86,-1155.75"/>
</g>
<!-- A2&#45;&gt;A3 -->
<g id="edge11" class="edge">
<title>A2&#45;&gt;A3</title>
<path fill="none" stroke="#7a5828" stroke-width="2" d="M853.92,-1071.65C853.74,-984.1 853.29,-763.85 853.09,-668.57"/>
<polygon fill="#7a5828" stroke="#7a5828" stroke-width="2" points="855.89,-668.29 853.08,-660.3 850.29,-668.3 855.89,-668.29"/>
</g>
<!-- A3&#45;&gt;A4 -->
<g id="edge12" class="edge">
<title>A3&#45;&gt;A4</title>
<path fill="none" stroke="#7a5828" stroke-width="2" d="M844.79,-584.65C825.67,-498.75 778.09,-285.11 756.27,-187.1"/>
<polygon fill="#7a5828" stroke="#7a5828" stroke-width="2" points="758.96,-186.31 754.49,-179.11 753.49,-187.53 758.96,-186.31"/>
</g>
</g>
</svg>
